<?xml version="1.0" encoding="UTF-8"?>
<svg id="Layer_1" xmlns="http://www.w3.org/2000/svg" version="1.1" viewBox="0 0 2599 1733">
  <!-- Generator: Adobe Illustrator 29.0.1, SVG Export Plug-In . SVG Version: 2.1.0 Build 192)  -->
  <defs>
    <style>
      .st0 {
        fill: #000;
      }

      .st1 {
        opacity: .9;
      }

      .st2 {
        opacity: .89;
      }

      .st3 {
        opacity: .92;
      }

      .st4 {
        opacity: .92;
      }

      .st5 {
        opacity: .91;
      }

      .st6 {
        opacity: .91;
      }

      .st7 {
        opacity: .87;
      }

      .st8 {
        opacity: .86;
      }

      .st9 {
        opacity: .89;
      }

      .st10 {
        opacity: .89;
      }

      .st11 {
        opacity: .83;
      }

      .st12 {
        opacity: .83;
      }

      .st13 {
        opacity: .83;
      }

      .st14 {
        opacity: .84;
      }

      .st15 {
        opacity: .8;
      }

      .st16 {
        opacity: .8;
      }

      .st17 {
        opacity: .82;
      }

      .st18 {
        opacity: .83;
      }

      .st19 {
        opacity: .82;
      }

      .st20 {
        opacity: .77;
      }

      .st21 {
        opacity: .74;
      }

      .st22 {
        opacity: .74;
      }

      .st23 {
        opacity: .76;
      }

      .st24 {
        opacity: .76;
      }

      .st25 {
        opacity: .76;
      }

      .st26 {
        opacity: .75;
      }

      .st27 {
        opacity: .72;
      }

      .st28 {
        opacity: .71;
      }

      .st29 {
        opacity: .73;
      }

      .st30 {
        opacity: .68;
      }

      .st31 {
        opacity: .7;
      }

      .st32 {
        opacity: 1;
      }

      .st33 {
        opacity: .99;
      }

      .st34 {
        opacity: .99;
      }

      .st35 {
        opacity: .96;
      }

      .st36 {
        opacity: .96;
      }

      .st37 {
        opacity: .93;
      }

      .st38 {
        opacity: .95;
      }

      .st39 {
        opacity: .95;
      }

      .st40 {
        opacity: .95;
      }

      .st41 {
        opacity: .46;
      }

      .st42 {
        opacity: .46;
      }

      .st43 {
        opacity: .44;
      }

      .st44 {
        opacity: .42;
      }

      .st45 {
        opacity: .43;
      }

      .st46 {
        opacity: .42;
      }

      .st47 {
        opacity: .4;
      }

      .st48 {
        opacity: .4;
      }

      .st49 {
        opacity: .39;
      }

      .st50 {
        opacity: .35;
      }

      .st51 {
        opacity: .35;
      }

      .st52 {
        opacity: .65;
      }

      .st53 {
        opacity: .65;
      }

      .st54 {
        opacity: .65;
      }

      .st55 {
        opacity: .66;
      }

      .st56 {
        opacity: .64;
      }

      .st57 {
        opacity: .64;
      }

      .st58 {
        opacity: .59;
      }

      .st59 {
        opacity: .61;
      }

      .st60 {
        opacity: .6;
      }

      .st61 {
        opacity: .6;
      }

      .st62 {
        opacity: .59;
      }

      .st63 {
        opacity: .59;
      }

      .st64 {
        opacity: .56;
      }

      .st65 {
        opacity: .58;
      }

      .st66 {
        opacity: .54;
      }

      .st67 {
        opacity: .53;
      }

      .st68 {
        opacity: .5;
      }

      .st69 {
        opacity: .51;
      }

      .st70 {
        opacity: .46;
      }

      .st71 {
        opacity: .22;
      }

      .st72 {
        opacity: .22;
      }

      .st73 {
        opacity: .2;
      }

      .st74 {
        opacity: .19;
      }

      .st75 {
        opacity: .18;
      }

      .st76 {
        opacity: .33;
      }

      .st77 {
        opacity: .31;
      }

      .st78 {
        opacity: .32;
      }

      .st79 {
        opacity: .32;
      }

      .st80 {
        opacity: .32;
      }

      .st81 {
        opacity: .3;
      }

      .st82 {
        opacity: .28;
      }

      .st83 {
        opacity: .27;
      }

      .st84 {
        opacity: .27;
      }

      .st85 {
        opacity: .26;
      }

      .st86 {
        opacity: .26;
      }

      .st87 {
        opacity: .25;
      }

      .st88 {
        opacity: .25;
      }

      .st89 {
        opacity: .26;
      }

      .st90 {
        opacity: .24;
      }

      .st91 {
        opacity: .24;
      }

      .st92 {
        opacity: .24;
      }

      .st93 {
        opacity: .23;
      }

      .st94 {
        opacity: .1;
      }

      .st95 {
        opacity: .16;
      }

      .st96 {
        opacity: .15;
      }

      .st97 {
        opacity: .16;
      }

      .st98 {
        opacity: .15;
      }

      .st99 {
        opacity: .13;
      }

      .st100 {
        opacity: .12;
      }
    </style>
  </defs>
  <g className="st30">
    <path className="st0" d="M1652.68,771.54c-4.26-17.93-22.31-29.06-40.25-24.8-17.93,4.26-29.06,22.31-24.8,40.25,4.26,17.93,22.31,29.06,40.25,24.8,17.93-4.26,29.06-22.31,24.8-40.25ZM1605.37,782.77c-1.94-8.15,3.12-16.36,11.27-18.29,8.15-1.94,16.36,3.12,18.29,11.27,1.94,8.15-3.12,16.36-11.27,18.29-8.15,1.94-16.36-3.12-18.29-11.27Z"/>
    <path className="st0" d="M1705.6,763.49c-17.93,4.26-29.06,22.31-24.8,40.25,4.26,17.93,22.31,29.06,40.25,24.8,17.93-4.26,29.06-22.31,24.8-40.25-4.26-17.93-22.31-29.06-40.25-24.8ZM1716.84,810.79c-8.15,1.94-16.36-3.12-18.29-11.27-1.94-8.15,3.12-16.36,11.27-18.29s16.36,3.12,18.29,11.27c1.94,8.15-3.12,16.36-11.27,18.29Z"/>
    <polygon className="st0" points="1656.75 848.31 1696.32 725.09 1675.59 730.01 1636.02 853.23 1656.75 848.31"/>
  </g>
  <g className="st9">
    <path className="st0" d="M1935.71,94.63c3.84-13.24-3.82-27.13-17.06-30.97-13.24-3.84-27.13,3.82-30.97,17.06-3.84,13.24,3.82,27.13,17.06,30.97,13.24,3.84,27.13-3.82,30.97-17.06ZM1900.78,84.51c1.74-6.02,8.06-9.5,14.08-7.75,6.02,1.74,9.5,8.06,7.75,14.08-1.74,6.02-8.06,9.5-14.08,7.75-6.02-1.74-9.5-8.06-7.75-14.08Z"/>
    <path className="st0" d="M1973.12,108.89c-13.24-3.84-27.13,3.82-30.97,17.05-3.84,13.24,3.82,27.13,17.06,30.97,13.24,3.84,27.13-3.82,30.97-17.06,3.84-13.24-3.82-27.13-17.06-30.97ZM1963,143.81c-6.02-1.74-9.5-8.06-7.75-14.08,1.74-6.02,8.06-9.5,14.08-7.75,6.02,1.74,9.5,8.06,7.75,14.08-1.74,6.02-8.06,9.5-14.08,7.75Z"/>
    <polygon className="st0" points="1910.07 146.09 1981.22 80.47 1965.91 76.04 1894.77 141.66 1910.07 146.09"/>
  </g>
  <g className="st99">
    <path className="st0" d="M1593.69,1233.97c1.16-12.7-8.23-23.97-20.92-25.13-12.7-1.16-23.97,8.23-25.13,20.92-1.16,12.7,8.23,23.97,20.92,25.13,12.7,1.16,23.97-8.23,25.13-20.92ZM1560.2,1230.91c.53-5.77,5.65-10.04,11.42-9.51s10.04,5.65,9.51,11.42c-.53,5.77-5.65,10.04-11.42,9.51-5.77-.53-10.04-5.65-9.51-11.42Z"/>
    <path className="st0" d="M1630.17,1240.36c-12.7-1.16-23.97,8.22-25.13,20.92-1.16,12.7,8.23,23.97,20.92,25.13,12.7,1.16,23.97-8.23,25.13-20.92,1.16-12.7-8.23-23.97-20.92-25.13ZM1627.11,1273.85c-5.77-.53-10.04-5.65-9.51-11.42.53-5.77,5.65-10.04,11.42-9.51,5.77.53,10.04,5.65,9.51,11.42-.53,5.77-5.65,10.04-11.42,9.51Z"/>
    <polygon className="st0" points="1579.44 1285.21 1632.54 1213.13 1617.86 1211.79 1564.76 1283.87 1579.44 1285.21"/>
  </g>
  <g className="st77">
    <path className="st0" d="M1534.91,536.76c-4.72-21.75-26.26-35.61-48.02-30.88-21.75,4.72-35.61,26.26-30.88,48.02,4.72,21.75,26.26,35.61,48.02,30.88,21.75-4.72,35.61-26.27,30.88-48.02ZM1477.53,549.22c-2.15-9.89,4.15-19.68,14.04-21.83,9.89-2.15,19.68,4.15,21.83,14.04,2.15,9.89-4.15,19.68-14.04,21.83-9.89,2.15-19.68-4.15-21.83-14.04Z"/>
    <path className="st0" d="M1599,528.26c-21.75,4.72-35.61,26.26-30.88,48.02,4.72,21.75,26.27,35.61,48.02,30.88,21.75-4.72,35.61-26.27,30.88-48.02-4.72-21.75-26.26-35.61-48.02-30.88ZM1611.46,585.65c-9.89,2.15-19.68-4.15-21.83-14.04-2.15-9.89,4.15-19.68,14.04-21.83,9.89-2.15,19.68,4.15,21.83,14.04,2.15,9.89-4.15,19.68-14.04,21.83Z"/>
    <polygon className="st0" points="1538.03 629.55 1588.68 481.68 1563.53 487.14 1512.88 635.01 1538.03 629.55"/>
  </g>
  <g className="st45">
    <path className="st0" d="M2135.86,456.55c-4.64-14.88-20.52-23.2-35.39-18.56-14.88,4.64-23.2,20.52-18.56,35.39,4.64,14.88,20.52,23.2,35.39,18.56,14.88-4.64,23.2-20.52,18.56-35.39ZM2096.62,468.79c-2.11-6.76,1.68-13.98,8.44-16.09,6.76-2.11,13.98,1.68,16.09,8.44,2.11,6.76-1.68,13.98-8.44,16.09-6.76,2.11-13.98-1.68-16.09-8.44Z"/>
    <path className="st0" d="M2180.02,446.66c-14.88,4.64-23.2,20.52-18.56,35.39,4.64,14.88,20.52,23.2,35.39,18.56,14.88-4.64,23.2-20.52,18.56-35.39-4.64-14.88-20.52-23.2-35.39-18.56ZM2192.26,485.91c-6.76,2.11-13.98-1.68-16.09-8.44-2.11-6.76,1.68-13.98,8.44-16.09,6.76-2.11,13.98,1.68,16.09,8.44,2.11,6.76-1.68,13.98-8.44,16.09Z"/>
    <polygon className="st0" points="2143.78 521.06 2169.95 414.82 2152.75 420.19 2126.59 526.43 2143.78 521.06"/>
  </g>
  <g className="st43">
    <path className="st0" d="M1205.2,1577.34c5.93-21.93-7.08-44.61-29.02-50.54-21.93-5.93-44.61,7.08-50.54,29.02-5.93,21.93,7.08,44.61,29.02,50.54,21.93,5.93,44.61-7.08,50.54-29.02ZM1147.34,1561.69c2.7-9.97,13-15.89,22.97-13.19,9.97,2.7,15.89,13,13.19,22.97-2.7,9.97-13,15.89-22.97,13.19-9.97-2.7-15.89-13-13.19-22.97Z"/>
    <path className="st0" d="M1267.27,1599.75c-21.93-5.93-44.61,7.08-50.54,29.02-5.93,21.93,7.08,44.61,29.02,50.54,21.93,5.93,44.61-7.08,50.54-29.02,5.93-21.93-7.08-44.61-29.02-50.54ZM1251.62,1657.61c-9.97-2.7-15.89-13-13.19-22.97,2.7-9.97,13-15.89,22.97-13.19,9.97,2.7,15.89,13,13.19,22.97-2.7,9.97-13,15.89-22.97,13.19Z"/>
    <polygon className="st0" points="1164.45 1662.91 1279.8 1552.68 1254.44 1545.82 1139.1 1656.05 1164.45 1662.91"/>
  </g>
  <g className="st5">
    <path className="st0" d="M1164.9,390.1c-2.75-12.55-15.19-20.52-27.74-17.78-12.55,2.75-20.52,15.19-17.78,27.74,2.75,12.55,15.19,20.52,27.74,17.78,12.55-2.75,20.52-15.19,17.78-27.74ZM1131.79,397.35c-1.25-5.7,2.38-11.36,8.08-12.61,5.7-1.25,11.36,2.38,12.61,8.08,1.25,5.7-2.38,11.36-8.08,12.61-5.7,1.25-11.36-2.38-12.61-8.08Z"/>
    <path className="st0" d="M1201.87,385.14c-12.55,2.75-20.52,15.19-17.78,27.74,2.75,12.55,15.19,20.52,27.74,17.78,12.55-2.75,20.52-15.19,17.78-27.74-2.75-12.55-15.19-20.52-27.74-17.78ZM1209.12,418.24c-5.7,1.25-11.36-2.38-12.61-8.08-1.25-5.7,2.38-11.36,8.08-12.61,5.7-1.25,11.36,2.38,12.61,8.08,1.25,5.7-2.38,11.36-8.08,12.61Z"/>
    <polygon className="st0" points="1166.78 443.65 1195.87 358.27 1181.37 361.44 1152.28 446.82 1166.78 443.65"/>
  </g>
  <g className="st92">
    <path className="st0" d="M1418.44,1144.13c-3.12-12.64-15.93-20.38-28.57-17.26-12.64,3.12-20.38,15.93-17.26,28.57,3.12,12.64,15.93,20.38,28.57,17.26,12.64-3.12,20.38-15.93,17.26-28.57ZM1385.11,1152.35c-1.42-5.74,2.1-11.57,7.85-12.99,5.74-1.42,11.57,2.1,12.99,7.85,1.42,5.74-2.1,11.57-7.85,12.99-5.74,1.42-11.57-2.1-12.99-7.85Z"/>
    <path className="st0" d="M1455.76,1138.11c-12.64,3.12-20.38,15.93-17.26,28.57,3.12,12.64,15.93,20.38,28.57,17.26,12.64-3.12,20.38-15.93,17.26-28.57-3.12-12.64-15.93-20.38-28.57-17.26ZM1463.98,1171.45c-5.74,1.42-11.57-2.1-12.99-7.85-1.42-5.74,2.1-11.57,7.85-12.99,5.74-1.42,11.57,2.1,12.99,7.85,1.42,5.74-2.1,11.57-7.85,12.99Z"/>
    <polygon className="st0" points="1421.79 1198.31 1448.96 1111.06 1434.36 1114.66 1407.18 1201.91 1421.79 1198.31"/>
  </g>
  <g className="st11">
    <path className="st0" d="M2021.07,1607.3c4.16-13.42-3.37-27.72-16.79-31.88-13.42-4.16-27.72,3.37-31.88,16.79-4.16,13.42,3.37,27.72,16.79,31.88,13.42,4.16,27.72-3.37,31.88-16.79ZM1985.67,1596.33c1.89-6.1,8.39-9.52,14.49-7.63,6.1,1.89,9.52,8.39,7.63,14.49-1.89,6.1-8.39,9.52-14.49,7.63-6.1-1.89-9.52-8.39-7.63-14.49Z"/>
    <path className="st0" d="M2058.91,1622.54c-13.42-4.16-27.72,3.37-31.88,16.79-4.16,13.42,3.37,27.72,16.79,31.88,13.42,4.16,27.72-3.37,31.88-16.79,4.16-13.42-3.37-27.72-16.79-31.88ZM2047.94,1657.94c-6.1-1.89-9.52-8.39-7.63-14.49,1.89-6.1,8.39-9.52,14.49-7.63,6.1,1.89,9.52,8.39,7.63,14.49-1.89,6.1-8.39,9.52-14.49,7.63Z"/>
    <polygon className="st0" points="1993.96 1659.25 2067.71 1593.74 2052.2 1588.94 1978.45 1654.44 1993.96 1659.25"/>
  </g>
  <g className="st51">
    <path className="st0" d="M757,1592.45c-1.84-20.48-19.99-35.65-40.47-33.81-20.48,1.84-35.65,19.99-33.81,40.47,1.84,20.48,19.99,35.65,40.47,33.81,20.48-1.84,35.65-19.99,33.81-40.47ZM702.97,1597.29c-.83-9.31,6.06-17.56,15.37-18.4,9.31-.83,17.56,6.06,18.4,15.37.83,9.31-6.06,17.56-15.37,18.4-9.31.83-17.56-6.06-18.4-15.37Z"/>
    <path className="st0" d="M816.71,1592.01c-20.48,1.84-35.65,19.99-33.81,40.47,1.84,20.48,19.99,35.65,40.47,33.81,20.48-1.84,35.65-19.99,33.81-40.47-1.84-20.48-19.99-35.65-40.47-33.81ZM821.55,1646.03c-9.31.83-17.56-6.06-18.4-15.37-.83-9.31,6.06-17.56,15.37-18.4,9.31-.83,17.56,6.06,18.4,15.37.83,9.31-6.06,17.56-15.37,18.4Z"/>
    <polygon className="st0" points="749.22 1677.85 812.59 1548.13 788.92 1550.25 725.55 1679.98 749.22 1677.85"/>
  </g>
  <g className="st37">
    <path className="st0" d="M2270.08,820.44c6.56-19.54-4.01-40.77-23.54-47.32-19.54-6.56-40.77,4-47.32,23.54-6.56,19.54,4,40.77,23.54,47.32,19.54,6.56,40.77-4.01,47.32-23.54ZM2218.54,803.14c2.98-8.88,12.63-13.68,21.51-10.7,8.88,2.98,13.68,12.63,10.7,21.51-2.98,8.88-12.63,13.68-21.51,10.7-8.88-2.98-13.68-12.63-10.7-21.51Z"/>
    <path className="st0" d="M2325.06,844.07c-19.54-6.56-40.77,4-47.32,23.54-6.56,19.54,4.01,40.77,23.54,47.32,19.54,6.56,40.77-4.01,47.32-23.54,6.56-19.54-4.01-40.77-23.54-47.32ZM2307.77,895.6c-8.88-2.98-13.68-12.63-10.7-21.51,2.98-8.88,12.63-13.68,21.51-10.7,8.88,2.98,13.68,12.63,10.7,21.51-2.98,8.88-12.63,13.68-21.51,10.7Z"/>
    <polygon className="st0" points="2228.57 895.71 2338.94 802.13 2316.36 794.56 2205.98 888.13 2228.57 895.71"/>
  </g>
  <g className="st1">
    <path className="st0" d="M2295.52,1228.06c-8.53-24.35-35.28-37.23-59.64-28.7-24.35,8.53-37.23,35.28-28.7,59.64,8.53,24.35,35.28,37.23,59.64,28.7,24.35-8.53,37.23-35.28,28.7-59.64ZM2231.28,1250.56c-3.88-11.07,1.97-23.23,13.04-27.11,11.07-3.88,23.23,1.97,27.11,13.04,3.88,11.07-1.97,23.23-13.04,27.11-11.07,3.88-23.23-1.97-27.11-13.04Z"/>
    <path className="st0" d="M2368.04,1209.17c-24.35,8.53-37.23,35.28-28.7,59.64,8.53,24.35,35.28,37.23,59.64,28.7,24.35-8.53,37.23-35.28,28.7-59.64-8.53-24.35-35.28-37.23-59.64-28.7ZM2390.54,1273.41c-11.07,3.88-23.23-1.97-27.11-13.04-3.88-11.07,1.97-23.23,13.05-27.11,11.07-3.88,23.23,1.97,27.11,13.04,3.88,11.07-1.97,23.23-13.04,27.11Z"/>
    <polygon className="st0" points="2312.32 1334.37 2349.54 1157.05 2321.39 1166.91 2284.17 1344.23 2312.32 1334.37"/>
  </g>
  <g className="st26">
    <path className="st0" d="M2240.98,1036.91c2.18-15.55-8.69-29.97-24.23-32.16-15.55-2.18-29.97,8.69-32.16,24.23-2.18,15.55,8.69,29.97,24.23,32.16,15.55,2.18,29.97-8.69,32.16-24.23ZM2199.97,1031.15c.99-7.07,7.55-12.01,14.62-11.02,7.07.99,12.01,7.55,11.02,14.62-.99,7.07-7.55,12.01-14.62,11.02-7.07-.99-12.01-7.55-11.02-14.62Z"/>
    <path className="st0" d="M2285.46,1046.93c-15.55-2.18-29.97,8.69-32.16,24.23-2.18,15.55,8.69,29.97,24.23,32.16,15.55,2.18,29.97-8.69,32.16-24.23,2.18-15.55-8.69-29.97-24.23-32.16ZM2279.7,1087.94c-7.07-.99-12.01-7.55-11.02-14.62.99-7.07,7.55-12.01,14.62-11.02,7.07.99,12.01,7.55,11.02,14.62-.99,7.07-7.55,12.01-14.62,11.02Z"/>
    <polygon className="st0" points="2220.4 1099.07 2290.01 1013.59 2272.03 1011.07 2202.43 1096.55 2220.4 1099.07"/>
  </g>
  <g className="st81">
    <path className="st0" d="M1831.82,939.25c3.96-16.95-6.61-33.97-23.56-37.93-16.95-3.96-33.97,6.61-37.93,23.56-3.96,16.95,6.61,33.97,23.56,37.93,16.95,3.96,33.97-6.61,37.93-23.56ZM1787.1,928.8c1.8-7.71,9.53-12.51,17.24-10.71,7.71,1.8,12.51,9.53,10.71,17.24-1.8,7.71-9.53,12.51-17.24,10.71-7.71-1.8-12.51-9.53-10.71-17.24Z"/>
    <path className="st0" d="M1879.95,954.75c-16.95-3.96-33.97,6.61-37.93,23.56-3.96,16.95,6.61,33.97,23.56,37.93,16.95,3.96,33.97-6.61,37.93-23.56,3.96-16.95-6.61-33.97-23.56-37.93ZM1869.5,999.48c-7.71-1.8-12.51-9.53-10.71-17.24,1.8-7.71,9.53-12.51,17.24-10.71,7.71,1.8,12.51,9.53,10.71,17.24-1.8,7.71-9.53,12.51-17.24,10.71Z"/>
    <polygon className="st0" points="1802.9 1005.86 1888.29 918.38 1868.69 913.8 1783.3 1001.28 1802.9 1005.86"/>
  </g>
  <g className="st17">
    <path className="st0" d="M2468.02,1587.05c.22-20.15-16-36.72-36.15-36.94-20.15-.22-36.72,16-36.94,36.15-.22,20.15,16,36.72,36.15,36.94,20.15.22,36.72-16,36.94-36.15ZM2414.86,1586.48c.1-9.16,7.63-16.53,16.79-16.43,9.16.1,16.53,7.63,16.43,16.79-.1,9.16-7.63,16.53-16.79,16.43-9.16-.1-16.53-7.63-16.43-16.79Z"/>
    <path className="st0" d="M2526.3,1592.49c-20.15-.22-36.72,16-36.94,36.15-.22,20.15,16,36.72,36.15,36.94,20.15.22,36.72-16,36.94-36.15.22-20.15-16-36.72-36.15-36.94ZM2525.72,1645.64c-9.16-.1-16.53-7.63-16.43-16.79.1-9.16,7.63-16.53,16.79-16.43,9.16.1,16.53,7.63,16.43,16.79-.1,9.16-7.63,16.53-16.79,16.43Z"/>
    <polygon className="st0" points="2452.06 1669.58 2526.59 1549.29 2503.29 1549.04 2428.77 1669.33 2452.06 1669.58"/>
  </g>
  <g className="st3">
    <path className="st0" d="M1273.64,230.51c4.2-22.21-10.45-43.69-32.65-47.89-22.21-4.2-43.69,10.45-47.89,32.65-4.2,22.21,10.45,43.69,32.65,47.89,22.21,4.2,43.69-10.45,47.89-32.65ZM1215.06,219.43c1.91-10.09,11.68-16.75,21.77-14.84,10.09,1.91,16.75,11.68,14.84,21.77-1.91,10.09-11.68,16.75-21.77,14.84-10.09-1.91-16.75-11.68-14.84-21.77Z"/>
    <path className="st0" d="M1336.91,247.96c-22.21-4.2-43.69,10.45-47.89,32.65-4.2,22.21,10.45,43.69,32.65,47.89,22.21,4.2,43.69-10.45,47.89-32.65,4.2-22.21-10.45-43.69-32.65-47.89ZM1325.83,306.54c-10.09-1.91-16.75-11.68-14.84-21.77,1.91-10.09,11.68-16.75,21.77-14.84,10.09,1.91,16.75,11.68,14.84,21.77-1.91,10.09-11.68,16.75-21.77,14.84Z"/>
    <polygon className="st0" points="1239.79 318.49 1345.72 200.33 1320.05 195.47 1214.12 313.64 1239.79 318.49"/>
  </g>
  <g className="st7">
    <path className="st0" d="M1074.03,1193.8c5.64-18.5-4.82-38.13-23.32-43.77-18.5-5.64-38.13,4.82-43.77,23.31-5.64,18.5,4.82,38.13,23.32,43.77,18.5,5.64,38.13-4.82,43.77-23.32ZM1025.24,1178.92c2.56-8.41,11.49-13.16,19.9-10.6,8.41,2.56,13.16,11.49,10.6,19.9-2.56,8.41-11.49,13.16-19.9,10.6-8.41-2.56-13.16-11.49-10.6-19.9Z"/>
    <path className="st0" d="M1126.22,1214.53c-18.5-5.64-38.13,4.82-43.77,23.31-5.64,18.5,4.82,38.13,23.32,43.77s38.13-4.82,43.77-23.32c5.64-18.5-4.82-38.13-23.32-43.77ZM1111.34,1263.32c-8.41-2.56-13.16-11.49-10.6-19.9,2.56-8.41,11.49-13.16,19.9-10.6,8.41,2.56,13.16,11.49,10.6,19.9-2.56,8.41-11.49,13.16-19.9,10.6Z"/>
    <polygon className="st0" points="1037.06 1265.48 1138.14 1174.83 1116.76 1168.31 1015.68 1258.96 1037.06 1265.48"/>
  </g>
  <g className="st94">
    <path className="st0" d="M331.86,634.22c1.84-17.63-11-33.46-28.63-35.3-17.63-1.84-33.46,11-35.3,28.63-1.84,17.63,11,33.46,28.63,35.3,17.63,1.84,33.46-11,35.3-28.63ZM285.37,629.37c.84-8.01,8.03-13.85,16.05-13.01,8.01.84,13.85,8.03,13.01,16.05-.84,8.01-8.04,13.85-16.05,13.01-8.01-.84-13.85-8.03-13.01-16.05Z"/>
    <path className="st0" d="M382.44,643.74c-17.63-1.84-33.46,11-35.3,28.63-1.84,17.63,11,33.46,28.63,35.3,17.63,1.84,33.46-11,35.3-28.63s-11-33.46-28.63-35.3ZM377.59,690.24c-8.01-.84-13.85-8.03-13.01-16.05.84-8.01,8.03-13.85,16.05-13.01,8.01.84,13.85,8.03,13.01,16.05-.84,8.01-8.04,13.85-16.05,13.01Z"/>
    <polygon className="st0" points="311.14 705.17 386.23 605.95 365.85 603.82 290.76 703.05 311.14 705.17"/>
  </g>
  <g className="st40">
    <path className="st0" d="M2472.84,929.12c4.48-12.58-2.11-26.47-14.7-30.95-12.58-4.48-26.47,2.11-30.95,14.7-4.48,12.58,2.11,26.47,14.7,30.95,12.58,4.48,26.47-2.11,30.95-14.7ZM2439.65,917.3c2.04-5.72,8.35-8.72,14.07-6.68,5.72,2.04,8.72,8.35,6.68,14.07-2.04,5.72-8.35,8.72-14.07,6.68-5.72-2.04-8.72-8.35-6.68-14.07Z"/>
    <path className="st0" d="M2508.2,945.08c-12.58-4.48-26.47,2.11-30.95,14.7-4.48,12.58,2.11,26.47,14.7,30.95,12.58,4.48,26.47-2.11,30.95-14.7,4.48-12.58-2.11-26.47-14.7-30.95ZM2496.38,978.28c-5.72-2.04-8.72-8.35-6.68-14.07,2.04-5.72,8.35-8.72,14.07-6.68,5.72,2.04,8.72,8.35,6.68,14.07-2.04,5.72-8.35,8.72-14.07,6.68Z"/>
    <polygon className="st0" points="2445.05 977.41 2517.69 918.07 2503.15 912.89 2430.5 972.23 2445.05 977.41"/>
  </g>
  <g className="st60">
    <path className="st0" d="M2080.46,667.33c-2.2-24.08-23.58-41.87-47.66-39.67-24.08,2.2-41.87,23.58-39.67,47.65,2.2,24.08,23.58,41.87,47.66,39.67,24.08-2.2,41.87-23.58,39.67-47.66ZM2016.95,673.14c-1-10.94,7.09-20.66,18.03-21.66,10.94-1,20.66,7.09,21.66,18.03,1,10.94-7.09,20.66-18.03,21.66-10.94,1-20.66-7.09-21.66-18.03Z"/>
    <path className="st0" d="M2150.67,666.7c-24.08,2.2-41.87,23.58-39.67,47.65,2.2,24.08,23.58,41.87,47.66,39.67,24.08-2.2,41.87-23.58,39.67-47.66-2.2-24.08-23.58-41.87-47.66-39.67ZM2156.48,730.21c-10.94,1-20.66-7.09-21.66-18.03-1-10.94,7.09-20.66,18.03-21.66,10.94-1,20.66,7.09,21.66,18.03,1,10.94-7.09,20.66-18.03,21.66Z"/>
    <polygon className="st0" points="2071.49 767.77 2145.74 615.11 2117.91 617.66 2043.66 770.32 2071.49 767.77"/>
  </g>
  <g className="st24">
    <path className="st0" d="M469.51,1404.02c-1.9-12.44-13.57-21-26-19.1-12.44,1.9-21.01,13.57-19.1,26,1.9,12.44,13.57,21,26,19.1,12.44-1.9,21-13.57,19.1-26ZM436.7,1409.04c-.86-5.65,3.03-10.95,8.68-11.82,5.65-.86,10.95,3.03,11.82,8.68.86,5.65-3.03,10.96-8.68,11.82-5.65.87-10.96-3.03-11.82-8.68Z"/>
    <path className="st0" d="M505.95,1401.47c-12.44,1.9-21,13.57-19.1,26,1.9,12.44,13.57,21,26,19.1,12.44-1.9,21-13.57,19.1-26-1.9-12.44-13.57-21-26-19.1ZM510.97,1434.28c-5.65.86-10.96-3.03-11.82-8.68-.86-5.65,3.03-10.95,8.68-11.82,5.65-.86,10.96,3.03,11.82,8.68s-3.03,10.96-8.68,11.82Z"/>
    <polygon className="st0" points="468.02 1456.47 501.76 1374.84 487.39 1377.04 453.64 1458.67 468.02 1456.47"/>
  </g>
  <g className="st64">
    <path className="st0" d="M297.59,278.82c4.78-14.53-3.15-30.25-17.68-35.04-14.53-4.78-30.25,3.15-35.04,17.68-4.78,14.53,3.15,30.25,17.68,35.04,14.53,4.78,30.25-3.15,35.04-17.68ZM259.25,266.2c2.18-6.61,9.32-10.21,15.93-8.04,6.61,2.17,10.21,9.32,8.04,15.93-2.18,6.61-9.32,10.21-15.93,8.04-6.61-2.17-10.21-9.32-8.04-15.93Z"/>
    <path className="st0" d="M338.52,296.13c-14.53-4.78-30.25,3.15-35.04,17.68-4.78,14.53,3.15,30.25,17.68,35.04,14.53,4.78,30.25-3.15,35.04-17.68,4.78-14.53-3.15-30.25-17.68-35.04ZM325.9,334.47c-6.61-2.18-10.21-9.32-8.04-15.93,2.18-6.61,9.32-10.21,15.93-8.04,6.61,2.17,10.21,9.32,8.04,15.93-2.18,6.61-9.32,10.21-15.93,8.04Z"/>
    <polygon className="st0" points="267.09 334.88 348.65 264.94 331.84 259.41 250.29 329.35 267.09 334.88"/>
  </g>
  <g className="st98">
    <path className="st0" d="M132.92,88.16c1.37-20.31-14.05-37.95-34.36-39.31-20.31-1.36-37.95,14.05-39.31,34.36-1.37,20.31,14.05,37.95,34.36,39.31,20.31,1.36,37.95-14.05,39.31-34.36ZM79.34,84.56c.62-9.23,8.64-16.24,17.87-15.62,9.23.62,16.24,8.64,15.62,17.87-.62,9.23-8.64,16.24-17.87,15.62-9.23-.62-16.24-8.64-15.62-17.87Z"/>
    <path className="st0" d="M191.38,96.95c-20.31-1.36-37.95,14.05-39.31,34.36-1.37,20.31,14.05,37.95,34.36,39.31,20.31,1.36,37.95-14.05,39.31-34.36,1.37-20.31-14.05-37.95-34.36-39.31ZM187.78,150.53c-9.23-.62-16.24-8.64-15.62-17.87.62-9.23,8.64-16.24,17.87-15.62,9.23.62,16.24,8.64,15.62,17.87-.62,9.23-8.64,16.24-17.87,15.62Z"/>
    <polygon className="st0" points="112.13 170.49 194.13 53.4 170.65 51.82 88.65 168.91 112.13 170.49"/>
  </g>
  <g className="st74">
    <path className="st0" d="M2056.01,896.68c2.71-11.63-4.54-23.3-16.17-26.02-11.63-2.71-23.3,4.54-26.02,16.17-2.71,11.63,4.54,23.3,16.17,26.02,11.63,2.71,23.3-4.54,26.02-16.17ZM2025.32,889.52c1.23-5.29,6.54-8.58,11.83-7.35,5.29,1.23,8.59,6.54,7.35,11.83-1.23,5.29-6.54,8.59-11.83,7.35-5.29-1.23-8.59-6.54-7.35-11.83Z"/>
    <path className="st0" d="M2089.03,907.3c-11.63-2.71-23.3,4.54-26.02,16.17-2.71,11.63,4.54,23.3,16.17,26.02,11.63,2.71,23.3-4.54,26.02-16.17,2.71-11.63-4.54-23.3-16.17-26.02ZM2081.87,937.99c-5.29-1.23-8.59-6.54-7.35-11.83,1.23-5.29,6.54-8.59,11.83-7.35,5.29,1.23,8.58,6.54,7.35,11.83s-6.54,8.59-11.83,7.35Z"/>
    <polygon className="st0" points="2036.17 942.38 2094.74 882.35 2081.29 879.21 2022.73 939.24 2036.17 942.38"/>
  </g>
  <g className="st46">
    <path className="st0" d="M1302.86,566.52c3.52-14.13-5.12-28.48-19.25-32-14.13-3.52-28.48,5.12-32,19.24-3.52,14.13,5.12,28.48,19.24,32,14.13,3.52,28.48-5.12,32-19.24ZM1265.6,557.25c1.6-6.42,8.12-10.34,14.54-8.75,6.42,1.6,10.35,8.12,8.75,14.54-1.6,6.42-8.12,10.35-14.54,8.75-6.42-1.6-10.35-8.12-8.75-14.54Z"/>
    <path className="st0" d="M1342.92,580.06c-14.13-3.52-28.48,5.12-32,19.24-3.52,14.13,5.12,28.48,19.24,32,14.13,3.52,28.48-5.12,32-19.24,3.52-14.13-5.12-28.48-19.25-32ZM1333.64,617.33c-6.42-1.6-10.35-8.12-8.75-14.54,1.6-6.42,8.12-10.35,14.54-8.75,6.42,1.6,10.35,8.12,8.75,14.54-1.6,6.42-8.12,10.35-14.54,8.75Z"/>
    <polygon className="st0" points="1277.88 621.87 1350.32 549.75 1333.99 545.69 1261.55 617.8 1277.88 621.87"/>
  </g>
  <g className="st59">
    <path className="st0" d="M680.29,957.13c-1.43-11.95-12.32-20.51-24.27-19.08-11.95,1.43-20.51,12.32-19.08,24.27,1.43,11.95,12.32,20.51,24.27,19.08,11.95-1.43,20.51-12.32,19.08-24.27ZM648.77,960.9c-.65-5.43,3.24-10.38,8.67-11.03,5.43-.65,10.38,3.24,11.03,8.67.65,5.43-3.24,10.38-8.67,11.03-5.43.65-10.38-3.24-11.03-8.67Z"/>
    <path className="st0" d="M715.22,955.83c-11.95,1.43-20.51,12.32-19.08,24.27,1.43,11.95,12.32,20.51,24.27,19.08,11.95-1.43,20.51-12.32,19.08-24.27-1.43-11.95-12.32-20.51-24.27-19.08ZM719,987.36c-5.43.65-10.38-3.24-11.03-8.67-.65-5.43,3.24-10.38,8.67-11.03,5.43-.65,10.38,3.24,11.03,8.67.65,5.43-3.24,10.38-8.67,11.03Z"/>
    <polygon className="st0" points="677.23 1007.24 712.05 930.23 698.23 931.89 663.41 1008.89 677.23 1007.24"/>
  </g>
  <g className="st53">
    <path className="st0" d="M94.19,289.08c4.83-25.27-11.81-49.76-37.08-54.58-25.27-4.83-49.76,11.81-54.58,37.08-4.83,25.27,11.81,49.76,37.08,54.59s49.76-11.81,54.58-37.08ZM27.53,276.35c2.19-11.49,13.32-19.05,24.81-16.85,11.49,2.19,19.05,13.32,16.85,24.81-2.19,11.49-13.32,19.05-24.81,16.85-11.49-2.19-19.05-13.32-16.85-24.81Z"/>
    <path className="st0" d="M166.19,309.07c-25.27-4.83-49.76,11.81-54.58,37.08-4.83,25.27,11.81,49.76,37.08,54.59s49.76-11.81,54.58-37.08c4.83-25.27-11.81-49.76-37.08-54.58ZM153.46,375.74c-11.49-2.19-19.05-13.32-16.85-24.81,2.19-11.49,13.32-19.05,24.81-16.85,11.49,2.19,19.05,13.32,16.85,24.81-2.19,11.49-13.32,19.05-24.81,16.85Z"/>
    <polygon className="st0" points="55.49 389.17 176.31 254.87 147.1 249.29 26.28 383.59 55.49 389.17"/>
  </g>
  <g className="st57">
    <path className="st0" d="M1444.4,1393.83c-1.96-22.5-21.86-39.22-44.36-37.26-22.5,1.96-39.22,21.86-37.26,44.36,1.96,22.5,21.86,39.22,44.36,37.26,22.5-1.96,39.22-21.86,37.26-44.36ZM1385.04,1398.99c-.89-10.23,6.71-19.27,16.94-20.16,10.23-.89,19.27,6.71,20.16,16.94.89,10.23-6.71,19.27-16.94,20.16-10.23.89-19.27-6.71-20.16-16.94Z"/>
    <path className="st0" d="M1510,1393.53c-22.5,1.96-39.22,21.86-37.26,44.36,1.96,22.5,21.86,39.22,44.36,37.26,22.5-1.96,39.22-21.86,37.26-44.36-1.96-22.5-21.86-39.22-44.36-37.26ZM1515.16,1452.89c-10.23.89-19.27-6.71-20.16-16.94-.89-10.23,6.71-19.27,16.94-20.16,10.23-.89,19.27,6.71,20.16,16.94.89,10.23-6.71,19.27-16.94,20.16Z"/>
    <polygon className="st0" points="1435.6 1487.63 1505.6 1345.32 1479.59 1347.58 1409.59 1489.9 1435.6 1487.63"/>
  </g>
  <g className="st68">
    <path className="st0" d="M984.61,1600.99c4.42-12.26-1.96-25.82-14.22-30.24-12.26-4.42-25.82,1.96-30.24,14.22-4.42,12.26,1.96,25.82,14.22,30.24,12.26,4.42,25.82-1.96,30.24-14.22ZM952.28,1589.33c2.01-5.57,8.17-8.47,13.74-6.46,5.57,2.01,8.47,8.17,6.46,13.74-2.01,5.57-8.17,8.47-13.74,6.46-5.57-2.01-8.47-8.17-6.46-13.74Z"/>
    <path className="st0" d="M1019.03,1616.69c-12.26-4.42-25.82,1.96-30.24,14.22-4.42,12.26,1.96,25.82,14.22,30.24,12.26,4.42,25.82-1.96,30.24-14.22,4.42-12.26-1.96-25.82-14.22-30.24ZM1007.38,1649.02c-5.57-2.01-8.47-8.17-6.46-13.74,2.01-5.57,8.17-8.47,13.74-6.46,5.57,2.01,8.47,8.17,6.46,13.74-2.01,5.57-8.17,8.47-13.74,6.46Z"/>
    <polygon className="st0" points="957.33 1647.97 1028.39 1590.38 1014.22 1585.27 943.16 1642.87 957.33 1647.97"/>
  </g>
  <g className="st48">
    <path className="st0" d="M297.93,835.13c-2.7-23.3-23.86-40.05-47.15-37.35-23.3,2.7-40.05,23.86-37.35,47.15,2.7,23.3,23.86,40.05,47.15,37.35,23.3-2.7,40.05-23.86,37.35-47.15ZM236.47,842.26c-1.23-10.59,6.39-20.2,16.98-21.43,10.59-1.23,20.2,6.39,21.43,16.98,1.23,10.59-6.39,20.21-16.98,21.43-10.59,1.23-20.2-6.39-21.43-16.98Z"/>
    <path className="st0" d="M366,832.86c-23.3,2.7-40.05,23.86-37.35,47.15,2.7,23.3,23.86,40.05,47.15,37.35,23.3-2.7,40.05-23.86,37.35-47.15-2.7-23.3-23.86-40.05-47.15-37.35ZM373.13,894.31c-10.59,1.23-20.21-6.39-21.43-16.98-1.23-10.59,6.39-20.2,16.98-21.43,10.59-1.23,20.2,6.39,21.43,16.98,1.23,10.59-6.39,20.21-16.98,21.43Z"/>
    <polygon className="st0" points="291.6 932.75 360 782.95 333.07 786.07 264.67 935.88 291.6 932.75"/>
  </g>
  <g className="st91">
    <path className="st0" d="M446.15,1188.75c-.39-12.31-10.73-22-23.04-21.61-12.31.39-22.01,10.73-21.61,23.04.39,12.31,10.73,22.01,23.04,21.61,12.31-.39,22.01-10.73,21.61-23.04ZM413.67,1189.79c-.18-5.6,4.23-10.29,9.82-10.47,5.59-.18,10.29,4.23,10.47,9.82.18,5.6-4.23,10.29-9.82,10.47-5.6.18-10.29-4.23-10.47-9.82Z"/>
    <path className="st0" d="M481.87,1190.55c-12.31.39-22.01,10.73-21.61,23.04.39,12.31,10.73,22.01,23.04,21.61,12.31-.39,22.01-10.73,21.61-23.04-.39-12.31-10.73-22.01-23.04-21.61ZM482.91,1223.02c-5.6.18-10.29-4.23-10.47-9.82-.18-5.6,4.23-10.29,9.82-10.47,5.6-.18,10.29,4.23,10.47,9.82.18,5.6-4.23,10.29-9.82,10.47Z"/>
    <polygon className="st0" points="438.55 1239.56 480.92 1164.17 466.69 1164.62 424.32 1240.01 438.55 1239.56"/>
  </g>
  <g className="st32">
    <path className="st0" d="M1789.09,1172.15c-.39-13.02-11.3-23.3-24.32-22.91-13.02.39-23.3,11.3-22.91,24.32.39,13.02,11.3,23.3,24.32,22.91,13.02-.39,23.3-11.3,22.91-24.32ZM1754.75,1173.18c-.18-5.92,4.49-10.88,10.41-11.05,5.92-.18,10.88,4.49,11.06,10.41.18,5.92-4.49,10.88-10.41,11.06-5.92.18-10.88-4.49-11.06-10.41Z"/>
    <path className="st0" d="M1826.88,1174.13c-13.02.39-23.3,11.3-22.91,24.32.39,13.02,11.3,23.3,24.32,22.91,13.02-.39,23.3-11.3,22.91-24.32-.39-13.02-11.3-23.3-24.32-22.91ZM1827.9,1208.48c-5.92.18-10.88-4.49-11.06-10.41-.18-5.92,4.49-10.88,10.41-11.05,5.92-.18,10.88,4.49,11.06,10.41.18,5.92-4.49,10.88-10.41,11.06Z"/>
    <polygon className="st0" points="1780.96 1225.88 1825.92 1146.22 1810.87 1146.67 1765.91 1226.33 1780.96 1225.88"/>
  </g>
  <g className="st31">
    <path className="st0" d="M1880.26,722.8c2.87-16.4-8.14-32.07-24.53-34.94-16.4-2.87-32.07,8.13-34.94,24.53-2.87,16.4,8.14,32.07,24.53,34.94,16.4,2.87,32.07-8.14,34.94-24.53ZM1837.01,715.23c1.3-7.45,8.43-12.45,15.88-11.15,7.45,1.3,12.46,8.43,11.15,15.88-1.3,7.45-8.43,12.46-15.88,11.15-7.45-1.3-12.46-8.43-11.15-15.88Z"/>
    <path className="st0" d="M1927.04,735.01c-16.4-2.87-32.07,8.14-34.94,24.53-2.87,16.4,8.14,32.07,24.53,34.94,16.4,2.87,32.07-8.14,34.94-24.53,2.87-16.4-8.14-32.07-24.53-34.94ZM1919.47,778.26c-7.45-1.3-12.46-8.43-11.15-15.88,1.3-7.45,8.43-12.45,15.88-11.15,7.45,1.3,12.46,8.43,11.15,15.88-1.3,7.45-8.43,12.46-15.88,11.15Z"/>
    <polygon className="st0" points="1856.23 787.94 1933.04 699.84 1914.09 696.52 1837.28 784.62 1856.23 787.94"/>
  </g>
  <g className="st52">
    <path className="st0" d="M1707.94,104.12c-.46-12.38-10.91-22.07-23.29-21.6-12.38.46-22.07,10.91-21.6,23.29.46,12.38,10.91,22.07,23.29,21.6,12.38-.46,22.07-10.91,21.6-23.29ZM1675.29,105.35c-.21-5.63,4.19-10.37,9.82-10.59,5.63-.21,10.37,4.19,10.59,9.82.21,5.63-4.19,10.38-9.82,10.59-5.63.21-10.37-4.19-10.59-9.82Z"/>
    <path className="st0" d="M1743.87,105.72c-12.38.47-22.07,10.91-21.6,23.29.47,12.38,10.91,22.07,23.29,21.6,12.38-.46,22.07-10.91,21.6-23.29-.46-12.38-10.91-22.07-23.29-21.6ZM1745.1,138.37c-5.63.21-10.38-4.19-10.59-9.82-.21-5.63,4.19-10.37,9.82-10.59,5.63-.21,10.37,4.19,10.59,9.82.21,5.63-4.19,10.38-9.82,10.59Z"/>
    <polygon className="st0" points="1700.59 155.26 1742.76 79.2 1728.46 79.74 1686.28 155.8 1700.59 155.26"/>
  </g>
  <g className="st97">
    <path className="st0" d="M1069.53,555.64c.42-23.53-18.38-43.02-41.91-43.44-23.53-.42-43.02,18.38-43.44,41.91-.42,23.53,18.38,43.02,41.91,43.44,23.53.42,43.02-18.38,43.44-41.91ZM1007.46,554.52c.19-10.7,9.05-19.24,19.75-19.05,10.7.19,19.24,9.05,19.05,19.75-.19,10.7-9.05,19.24-19.75,19.05-10.7-.19-19.24-9.05-19.05-19.75Z"/>
    <path className="st0" d="M1137.54,562.47c-23.53-.42-43.02,18.38-43.44,41.91-.42,23.53,18.38,43.02,41.91,43.44,23.53.42,43.02-18.38,43.44-41.91.42-23.53-18.38-43.02-41.91-43.44ZM1136.42,624.54c-10.7-.19-19.24-9.05-19.05-19.75.19-10.69,9.05-19.24,19.75-19.05,10.7.19,19.24,9.05,19.05,19.75-.19,10.7-9.05,19.24-19.75,19.05Z"/>
    <polygon className="st0" points="1050.2 651.88 1138.24 512.03 1111.04 511.54 1023 651.39 1050.2 651.88"/>
  </g>
  <g className="st23">
    <path className="st0" d="M111.67,1616.77c-1.55-11.88-12.48-20.29-24.37-18.73-11.88,1.55-20.29,12.48-18.74,24.37,1.55,11.88,12.48,20.29,24.37,18.74,11.88-1.55,20.29-12.48,18.74-24.37ZM80.32,1620.87c-.71-5.4,3.11-10.37,8.52-11.08,5.4-.71,10.37,3.11,11.08,8.52.71,5.4-3.11,10.37-8.52,11.08-5.4.71-10.37-3.11-11.08-8.52Z"/>
    <path className="st0" d="M146.43,1615.11c-11.88,1.55-20.29,12.48-18.74,24.37,1.55,11.88,12.48,20.29,24.37,18.74,11.88-1.55,20.29-12.48,18.73-24.37-1.55-11.88-12.48-20.29-24.37-18.73ZM150.53,1646.46c-5.4.71-10.37-3.11-11.08-8.52-.71-5.4,3.11-10.37,8.52-11.08,5.4-.71,10.37,3.11,11.08,8.52.71,5.4-3.11,10.37-8.52,11.08Z"/>
    <polygon className="st0" points="109.16 1666.7 143 1589.65 129.26 1591.45 95.42 1668.49 109.16 1666.7"/>
  </g>
  <g className="st66">
    <path className="st0" d="M2329.51,417.53c.52-13.31-9.88-24.57-23.2-25.09-13.31-.52-24.57,9.88-25.09,23.2-.52,13.31,9.88,24.57,23.2,25.09,13.31.52,24.57-9.88,25.09-23.2ZM2294.39,416.15c.24-6.05,5.35-10.78,11.41-10.54,6.05.24,10.78,5.35,10.54,11.41-.24,6.05-5.35,10.78-11.41,10.54-6.05-.24-10.78-5.35-10.54-11.41Z"/>
    <path className="st0" d="M2367.92,422.21c-13.31-.52-24.57,9.88-25.09,23.2-.52,13.31,9.88,24.57,23.2,25.09,13.31.52,24.57-9.88,25.09-23.2.52-13.31-9.88-24.57-23.2-25.09ZM2366.54,457.33c-6.05-.24-10.78-5.35-10.54-11.41.24-6.05,5.35-10.78,11.41-10.54,6.05.24,10.78,5.35,10.54,11.4-.24,6.05-5.35,10.78-11.41,10.54Z"/>
    <polygon className="st0" points="2317.41 471.77 2368.92 393.67 2353.53 393.07 2302.02 471.16 2317.41 471.77"/>
  </g>
  <g className="st29">
    <path className="st0" d="M286.76,1323.16c5.16-16.02-3.67-33.25-19.69-38.41-16.02-5.16-33.25,3.67-38.42,19.69-5.16,16.02,3.67,33.25,19.69,38.42,16.02,5.16,33.25-3.67,38.42-19.69ZM244.5,1309.54c2.35-7.28,10.18-11.3,17.46-8.95,7.28,2.35,11.3,10.18,8.95,17.46-2.35,7.28-10.18,11.3-17.46,8.95-7.28-2.35-11.3-10.18-8.95-17.46Z"/>
    <path className="st0" d="M331.9,1341.91c-16.02-5.16-33.25,3.67-38.42,19.69-5.16,16.02,3.67,33.25,19.69,38.42,16.02,5.16,33.25-3.67,38.42-19.69,5.16-16.02-3.67-33.25-19.69-38.41ZM318.28,1384.17c-7.28-2.35-11.3-10.18-8.95-17.46,2.35-7.28,10.18-11.3,17.46-8.95,7.28,2.35,11.3,10.18,8.95,17.46-2.35,7.28-10.18,11.3-17.46,8.95Z"/>
    <polygon className="st0" points="253.6 1385.04 342.82 1307.53 324.3 1301.56 235.08 1379.07 253.6 1385.04"/>
  </g>
  <g className="st19">
    <path className="st0" d="M1218.27,790.13c1.62-13.72-8.24-26.2-21.96-27.82-13.72-1.61-26.2,8.24-27.82,21.96-1.62,13.72,8.24,26.2,21.96,27.82,13.72,1.61,26.2-8.24,27.82-21.96ZM1182.07,785.87c.73-6.24,6.41-10.72,12.64-9.98,6.24.73,10.72,6.41,9.98,12.64-.73,6.24-6.41,10.72-12.64,9.98-6.24-.73-10.72-6.41-9.98-12.64Z"/>
    <path className="st0" d="M1257.61,798.08c-13.72-1.61-26.2,8.24-27.82,21.96-1.62,13.72,8.24,26.2,21.96,27.82,13.72,1.62,26.2-8.24,27.82-21.96,1.61-13.72-8.24-26.2-21.96-27.82ZM1253.35,834.28c-6.24-.73-10.72-6.41-9.98-12.64.73-6.24,6.41-10.72,12.64-9.98,6.24.73,10.72,6.41,9.98,12.64-.73,6.24-6.41,10.72-12.64,9.98Z"/>
    <polygon className="st0" points="1201.38 845.24 1260.94 768.65 1245.08 766.78 1185.52 843.37 1201.38 845.24"/>
  </g>
  <g className="st36">
    <path className="st0" d="M1942.59,501.27c-3.37-11.97-15.84-18.96-27.81-15.6-11.97,3.37-18.96,15.84-15.6,27.81,3.37,11.97,15.84,18.96,27.81,15.6,11.97-3.37,18.96-15.84,15.6-27.81ZM1911.02,510.15c-1.53-5.44,1.65-11.11,7.09-12.64,5.44-1.53,11.11,1.65,12.64,7.09,1.53,5.44-1.65,11.11-7.09,12.64-5.44,1.53-11.11-1.65-12.64-7.09Z"/>
    <path className="st0" d="M1978.03,494.37c-11.97,3.37-18.96,15.84-15.6,27.81,3.37,11.97,15.84,18.96,27.81,15.6,11.97-3.37,18.96-15.84,15.6-27.81-3.37-11.97-15.84-18.96-27.81-15.6ZM1986.91,525.94c-5.44,1.53-11.11-1.65-12.64-7.09-1.53-5.44,1.65-11.11,7.09-12.64,5.44-1.53,11.11,1.65,12.64,7.09,1.53,5.44-1.65,11.11-7.09,12.64Z"/>
    <polygon className="st0" points="1947.46 552.89 1970.7 468.75 1956.87 472.65 1933.62 556.78 1947.46 552.89"/>
  </g>
  <g className="st35">
    <path className="st0" d="M2083.98,1430.8c-7.19-23.42-32.09-36.62-55.5-29.44-23.42,7.19-36.62,32.08-29.44,55.5,7.19,23.42,32.09,36.62,55.5,29.44,23.42-7.19,36.62-32.09,29.44-55.5ZM2022.2,1449.76c-3.27-10.64,2.74-21.96,13.38-25.23,10.64-3.27,21.96,2.74,25.23,13.38,3.27,10.65-2.74,21.96-13.38,25.23-10.64,3.27-21.96-2.74-25.23-13.38Z"/>
    <path className="st0" d="M2153.47,1415.58c-23.42,7.19-36.62,32.09-29.44,55.5,7.19,23.42,32.09,36.62,55.5,29.44,23.42-7.19,36.62-32.09,29.44-55.5-7.19-23.42-32.08-36.62-55.5-29.44ZM2172.43,1477.35c-10.64,3.27-21.96-2.74-25.23-13.38-3.27-10.64,2.74-21.96,13.38-25.23,10.64-3.27,21.96,2.74,25.23,13.38,3.27,10.64-2.74,21.96-13.38,25.23Z"/>
    <polygon className="st0" points="2095.96 1532.27 2137.86 1365.45 2110.79 1373.75 2068.89 1540.57 2095.96 1532.27"/>
  </g>
  <g className="st38">
    <path className="st0" d="M639.79,90.23c5.16-19.96-6.88-40.41-26.85-45.57-19.97-5.16-40.41,6.88-45.57,26.85-5.16,19.96,6.88,40.41,26.85,45.57,19.96,5.16,40.41-6.88,45.57-26.85ZM587.13,76.62c2.35-9.07,11.64-14.55,20.71-12.2,9.08,2.35,14.55,11.64,12.2,20.71-2.35,9.08-11.64,14.55-20.71,12.2-9.08-2.35-14.55-11.64-12.2-20.71Z"/>
    <path className="st0" d="M696.35,109.93c-19.96-5.16-40.41,6.88-45.57,26.85-5.16,19.96,6.88,40.41,26.85,45.57,19.96,5.16,40.41-6.88,45.57-26.85,5.16-19.96-6.88-40.41-26.85-45.57ZM682.74,162.59c-9.08-2.35-14.55-11.64-12.2-20.71,2.35-9.07,11.64-14.55,20.71-12.2,9.07,2.35,14.55,11.64,12.2,20.71-2.35,9.08-11.64,14.55-20.71,12.2Z"/>
    <polygon className="st0" points="603.69 168.3 707.23 67.09 684.16 61.12 580.61 162.34 603.69 168.3"/>
  </g>
  <g className="st76">
    <path className="st0" d="M280.4,1068.12c-.3-15.04-12.79-27.03-27.83-26.73-15.04.3-27.03,12.79-26.73,27.83.3,15.04,12.79,27.03,27.83,26.73,15.04-.3,27.03-12.79,26.73-27.83ZM240.72,1068.92c-.14-6.84,5.31-12.51,12.15-12.65,6.84-.14,12.51,5.31,12.65,12.15.14,6.84-5.31,12.51-12.15,12.65-6.84.14-12.51-5.31-12.65-12.15Z"/>
    <path className="st0" d="M324,1070.83c-15.04.3-27.03,12.78-26.73,27.83.3,15.04,12.79,27.03,27.83,26.73,15.04-.3,27.03-12.79,26.73-27.83-.3-15.04-12.79-27.03-27.83-26.73ZM324.8,1110.5c-6.84.14-12.51-5.31-12.65-12.15-.14-6.84,5.31-12.51,12.15-12.65,6.84-.14,12.51,5.31,12.65,12.15.14,6.84-5.31,12.51-12.15,12.65Z"/>
    <polygon className="st0" points="270.39 1130.07 323.22 1038.59 305.83 1038.94 253.01 1130.42 270.39 1130.07"/>
  </g>
  <g className="st72">
    <path className="st0" d="M1254.57,1305.92c-7.23-24.56-33.09-38.65-57.64-31.42-24.56,7.23-38.65,33.09-31.43,57.64,7.23,24.56,33.09,38.65,57.64,31.43,24.56-7.23,38.65-33.09,31.43-57.64ZM1189.79,1324.99c-3.29-11.16,3.12-22.92,14.28-26.2,11.16-3.29,22.92,3.12,26.2,14.28,3.29,11.16-3.12,22.92-14.28,26.2-11.16,3.29-22.92-3.12-26.2-14.28Z"/>
    <path className="st0" d="M1327.36,1290.85c-24.56,7.23-38.65,33.09-31.43,57.64,7.23,24.56,33.09,38.65,57.65,31.43,24.56-7.23,38.65-33.09,31.42-57.64-7.23-24.56-33.09-38.65-57.64-31.42ZM1346.43,1355.62c-11.16,3.29-22.92-3.12-26.2-14.28-3.29-11.16,3.12-22.92,14.28-26.2,11.16-3.29,22.92,3.12,26.2,14.28,3.29,11.16-3.12,22.92-14.28,26.2Z"/>
    <polygon className="st0" points="1265.87 1412.09 1311.65 1238.28 1283.27 1246.63 1237.48 1420.44 1265.87 1412.09"/>
  </g>
  <g className="st8">
    <path className="st0" d="M1413.03,369.2c-1.82-16.19-16.47-27.87-32.66-26.05-16.19,1.82-27.87,16.47-26.05,32.66,1.82,16.19,16.47,27.87,32.66,26.05,16.19-1.82,27.87-16.47,26.05-32.66ZM1370.33,374.01c-.83-7.36,4.48-14.02,11.84-14.84,7.36-.83,14.02,4.48,14.84,11.84.83,7.36-4.48,14.02-11.84,14.84-7.36.83-14.02-4.48-14.84-11.84Z"/>
    <path className="st0" d="M1460.31,367.79c-16.19,1.82-27.87,16.47-26.05,32.66,1.82,16.19,16.47,27.87,32.66,26.05,16.19-1.82,27.87-16.47,26.05-32.66-1.82-16.19-16.47-27.87-32.66-26.05ZM1465.11,410.49c-7.36.83-14.02-4.48-14.84-11.84-.83-7.36,4.48-14.02,11.84-14.84,7.36-.83,14.02,4.48,14.84,11.84.83,7.36-4.48,14.02-11.84,14.84Z"/>
    <polygon className="st0" points="1408.4 436.99 1456.26 333.11 1437.55 335.22 1389.69 439.09 1408.4 436.99"/>
  </g>
  <g className="st93">
    <path className="st0" d="M673.79,1397.28c2.21-13.8-7.21-26.82-21.01-29.03-13.8-2.21-26.82,7.21-29.03,21.01-2.21,13.8,7.21,26.82,21.01,29.03,13.8,2.21,26.82-7.21,29.03-21.01ZM637.4,1391.44c1.01-6.27,6.93-10.55,13.2-9.55,6.27,1.01,10.55,6.93,9.55,13.2-1.01,6.27-6.93,10.55-13.2,9.55-6.27-1.01-10.55-6.93-9.55-13.2Z"/>
    <path className="st0" d="M713.2,1406.97c-13.8-2.21-26.82,7.21-29.03,21.01-2.21,13.8,7.21,26.82,21.01,29.03,13.8,2.21,26.82-7.21,29.03-21.01,2.21-13.8-7.21-26.82-21.01-29.03ZM707.36,1443.36c-6.27-1.01-10.55-6.93-9.55-13.2,1.01-6.27,6.93-10.55,13.2-9.55,6.27,1.01,10.55,6.93,9.55,13.2-1.01,6.27-6.93,10.55-13.2,9.55Z"/>
    <polygon className="st0" points="654.4 1452.23 717.82 1377.38 701.87 1374.82 638.45 1449.68 654.4 1452.23"/>
  </g>
  <g className="st12">
    <path className="st0" d="M981.34,734.68c-.15-22.47-18.56-40.62-41.03-40.47-22.47.15-40.62,18.56-40.47,41.03.15,22.47,18.56,40.62,41.03,40.47,22.47-.15,40.62-18.56,40.47-41.03ZM922.06,735.08c-.07-10.21,8.18-18.58,18.4-18.65,10.21-.07,18.58,8.18,18.65,18.39.07,10.21-8.18,18.58-18.4,18.65-10.21.07-18.58-8.18-18.65-18.4Z"/>
    <path className="st0" d="M1046.41,739.59c-22.47.15-40.62,18.56-40.47,41.03.15,22.47,18.56,40.62,41.03,40.47,22.47-.15,40.62-18.56,40.47-41.03-.15-22.47-18.56-40.62-41.03-40.47ZM1046.81,798.86c-10.21.07-18.58-8.18-18.65-18.4-.07-10.21,8.18-18.58,18.4-18.65,10.21-.07,18.58,8.18,18.65,18.39.07,10.21-8.18,18.58-18.4,18.65Z"/>
    <polygon className="st0" points="965.17 826.99 1045.88 691.43 1019.9 691.61 939.19 827.17 965.17 826.99"/>
  </g>
  <g className="st21">
    <path className="st0" d="M875.59,1358.76c6.31-23.83-7.94-48.35-31.77-54.67-23.83-6.31-48.35,7.93-54.67,31.76-6.31,23.83,7.94,48.35,31.77,54.67,23.83,6.31,48.35-7.94,54.67-31.77ZM812.73,1342.1c2.87-10.83,14.02-17.31,24.85-14.44,10.83,2.87,17.31,14.02,14.44,24.85-2.87,10.83-14.02,17.31-24.85,14.44-10.83-2.87-17.31-14.02-14.44-24.85Z"/>
    <path className="st0" d="M943.05,1382.71c-23.83-6.31-48.35,7.94-54.67,31.76-6.31,23.83,7.94,48.35,31.77,54.67,23.83,6.31,48.35-7.94,54.67-31.77,6.31-23.83-7.94-48.35-31.77-54.67ZM926.4,1445.57c-10.83-2.87-17.31-14.02-14.44-24.85,2.87-10.83,14.02-17.31,24.85-14.44,10.83,2.87,17.31,14.02,14.44,24.85-2.87,10.83-14.02,17.31-24.85,14.44Z"/>
    <polygon className="st0" points="831.86 1451.82 956.37 1331.58 928.83 1324.28 804.32 1444.52 831.86 1451.82"/>
  </g>
  <g className="st34">
    <path className="st0" d="M2052.42,270.23c2.26-14.57-7.76-28.27-22.33-30.53-14.57-2.26-28.27,7.76-30.53,22.33-2.26,14.57,7.76,28.27,22.33,30.53,14.57,2.26,28.27-7.76,30.53-22.33ZM2013.97,264.26c1.03-6.62,7.25-11.18,13.88-10.15s11.18,7.25,10.15,13.88c-1.03,6.62-7.25,11.18-13.88,10.15s-11.18-7.25-10.15-13.88Z"/>
    <path className="st0" d="M2094.06,280.24c-14.57-2.26-28.27,7.76-30.53,22.33-2.26,14.57,7.76,28.27,22.33,30.53,14.57,2.26,28.27-7.76,30.53-22.33,2.26-14.57-7.76-28.27-22.33-30.53ZM2088.1,318.69c-6.62-1.03-11.18-7.25-10.15-13.88,1.03-6.62,7.25-11.18,13.88-10.15,6.62,1.03,11.18,7.25,10.15,13.88-1.03,6.63-7.25,11.18-13.88,10.15Z"/>
    <polygon className="st0" points="2032.24 328.34 2098.78 248.99 2081.93 246.37 2015.4 325.73 2032.24 328.34"/>
  </g>
  <g className="st85">
    <path className="st0" d="M106.35,953.87c3.03-12.46-4.65-25.06-17.11-28.09-12.46-3.03-25.06,4.65-28.09,17.11-3.03,12.46,4.65,25.06,17.11,28.09,12.46,3.03,25.06-4.65,28.09-17.11ZM73.48,945.89c1.38-5.66,7.1-9.15,12.77-7.78,5.66,1.38,9.15,7.1,7.78,12.77-1.38,5.66-7.1,9.15-12.77,7.78-5.66-1.38-9.15-7.1-7.78-12.77Z"/>
    <path className="st0" d="M141.7,965.6c-12.46-3.03-25.06,4.65-28.09,17.11-3.03,12.46,4.65,25.06,17.11,28.09,12.46,3.03,25.06-4.65,28.09-17.11,3.03-12.46-4.65-25.06-17.11-28.09ZM133.71,998.47c-5.66-1.38-9.15-7.1-7.78-12.77,1.38-5.66,7.1-9.15,12.77-7.78,5.66,1.38,9.15,7.1,7.78,12.77-1.38,5.66-7.1,9.15-12.77,7.78Z"/>
    <polygon className="st0" points="84.61 1002.74 148.08 938.87 133.67 935.37 70.21 999.25 84.61 1002.74"/>
  </g>
  <g className="st69">
    <path className="st0" d="M1744.45,532.44c3.11-19.21-9.98-37.37-29.19-40.48-19.21-3.11-37.37,9.98-40.48,29.19-3.11,19.21,9.98,37.37,29.19,40.48,19.21,3.11,37.37-9.98,40.48-29.19ZM1693.78,524.23c1.42-8.73,9.67-14.68,18.4-13.27,8.73,1.42,14.68,9.67,13.27,18.4-1.42,8.73-9.67,14.68-18.4,13.27-8.73-1.42-14.68-9.67-13.27-18.4Z"/>
    <path className="st0" d="M1799.3,546.03c-19.21-3.11-37.37,9.98-40.48,29.19-3.11,19.21,9.98,37.37,29.19,40.48,19.21,3.11,37.37-9.98,40.48-29.19,3.11-19.21-9.98-37.37-29.19-40.48ZM1791.09,596.7c-8.73-1.42-14.68-9.67-13.27-18.4,1.42-8.73,9.67-14.68,18.4-13.27,8.73,1.42,14.68,9.67,13.27,18.4-1.42,8.73-9.67,14.68-18.4,13.27Z"/>
    <polygon className="st0" points="1717.31 608.94 1805.81 504.83 1783.6 501.23 1695.1 605.34 1717.31 608.94"/>
  </g>
  <g className="st65">
    <path className="st0" d="M2486.5,1357.62c1.26-19.05-13.22-35.58-32.27-36.84-19.05-1.26-35.58,13.22-36.84,32.27-1.26,19.05,13.22,35.58,32.27,36.84,19.05,1.26,35.58-13.22,36.84-32.27ZM2436.24,1354.3c.57-8.66,8.08-15.24,16.74-14.67,8.66.57,15.24,8.08,14.67,16.74-.57,8.66-8.08,15.24-16.74,14.67-8.66-.57-15.24-8.08-14.67-16.74Z"/>
    <path className="st0" d="M2541.35,1365.8c-19.05-1.26-35.58,13.22-36.84,32.27-1.26,19.05,13.22,35.58,32.28,36.84,19.05,1.26,35.58-13.22,36.84-32.27,1.26-19.05-13.22-35.58-32.27-36.84ZM2538.03,1416.06c-8.66-.57-15.24-8.08-14.67-16.74.57-8.66,8.08-15.24,16.75-14.67,8.66.57,15.24,8.08,14.67,16.74-.57,8.66-8.08,15.24-16.74,14.67Z"/>
    <polygon className="st0" points="2467.09 1434.87 2543.88 1324.95 2521.85 1323.5 2445.07 1433.41 2467.09 1434.87"/>
  </g>
  <g className="st73">
    <path className="st0" d="M1441.96,711.55c1.87-23.62-15.82-44.37-39.45-46.24-23.62-1.87-44.37,15.82-46.24,39.44-1.87,23.62,15.82,44.37,39.45,46.25,23.62,1.87,44.37-15.82,46.24-39.45ZM1379.64,706.6c.85-10.74,10.28-18.78,21.02-17.93s18.78,10.28,17.93,21.02c-.85,10.74-10.28,18.78-21.02,17.93-10.74-.85-18.78-10.28-17.93-21.02Z"/>
    <path className="st0" d="M1509.89,722.6c-23.62-1.87-44.37,15.82-46.24,39.44-1.87,23.62,15.82,44.37,39.45,46.25,23.62,1.87,44.37-15.82,46.24-39.45,1.87-23.62-15.82-44.37-39.45-46.24ZM1504.95,784.92c-10.74-.85-18.78-10.28-17.93-21.02.85-10.74,10.28-18.78,21.02-17.93,10.74.85,18.78,10.28,17.93,21.02-.85,10.74-10.28,18.78-21.02,17.93Z"/>
    <polygon className="st0" points="1416.6 807.09 1513.7 671.95 1486.39 669.78 1389.3 804.92 1416.6 807.09"/>
  </g>
  <g className="st47">
    <path className="st0" d="M1695.38,1405.45c4.74-14.33-3.06-29.84-17.39-34.57-14.33-4.74-29.84,3.06-34.58,17.39-4.74,14.33,3.06,29.84,17.39,34.58,14.33,4.74,29.84-3.06,34.57-17.39ZM1657.58,1392.95c2.15-6.51,9.2-10.06,15.72-7.9,6.51,2.15,10.06,9.2,7.9,15.72-2.15,6.51-9.2,10.06-15.72,7.9-6.51-2.15-10.06-9.2-7.9-15.72Z"/>
    <path className="st0" d="M1735.72,1422.57c-14.33-4.74-29.84,3.06-34.58,17.39-4.74,14.33,3.06,29.84,17.39,34.58,14.33,4.74,29.84-3.06,34.57-17.39,4.74-14.33-3.06-29.84-17.39-34.57ZM1723.22,1460.36c-6.51-2.15-10.06-9.2-7.9-15.72,2.15-6.51,9.2-10.06,15.72-7.9,6.51,2.15,10.06,9.2,7.9,15.72-2.15,6.51-9.2,10.06-15.72,7.91Z"/>
    <polygon className="st0" points="1665.22 1460.69 1745.74 1391.82 1729.18 1386.34 1648.66 1455.22 1665.22 1460.69"/>
  </g>
  <g className="st61">
    <path className="st0" d="M1287.56,70.28c-.08-17.6-14.47-31.84-32.07-31.76-17.6.08-31.85,14.47-31.76,32.07.08,17.6,14.47,31.85,32.07,31.76,17.6-.08,31.84-14.47,31.76-32.07ZM1241.14,70.5c-.04-8,6.44-14.54,14.44-14.58s14.54,6.44,14.58,14.44c.04,8-6.44,14.54-14.44,14.58-8,.04-14.54-6.44-14.58-14.44Z"/>
    <path className="st0" d="M1338.51,74.22c-17.6.08-31.85,14.47-31.76,32.07.08,17.6,14.47,31.85,32.07,31.76,17.6-.08,31.84-14.47,31.76-32.07-.08-17.6-14.47-31.84-32.07-31.76ZM1338.73,120.64c-8,.04-14.54-6.44-14.58-14.44-.04-8,6.44-14.54,14.44-14.58s14.54,6.44,14.58,14.44c.04,8-6.44,14.54-14.44,14.58Z"/>
    <polygon className="st0" points="1274.75 142.55 1338.17 36.51 1317.83 36.61 1254.41 142.65 1274.75 142.55"/>
  </g>
  <g className="st39">
    <path className="st0" d="M534.72,736.93c5.59-18.5-4.91-38.09-23.4-43.68-18.5-5.59-38.09,4.9-43.68,23.4-5.59,18.5,4.9,38.09,23.4,43.68,18.49,5.59,38.09-4.91,43.68-23.4ZM485.93,722.18c2.54-8.41,11.45-13.18,19.86-10.64,8.41,2.54,13.18,11.45,10.64,19.86-2.54,8.41-11.45,13.18-19.86,10.64-8.41-2.54-13.18-11.45-10.64-19.86Z"/>
    <path className="st0" d="M586.92,757.52c-18.5-5.59-38.09,4.9-43.68,23.4-5.59,18.49,4.91,38.09,23.4,43.68,18.5,5.59,38.09-4.91,43.68-23.4,5.59-18.49-4.91-38.09-23.4-43.68ZM572.17,806.31c-8.41-2.54-13.18-11.45-10.64-19.86,2.54-8.41,11.45-13.18,19.86-10.64,8.41,2.54,13.18,11.45,10.64,19.86-2.54,8.41-11.45,13.18-19.86,10.64Z"/>
    <polygon className="st0" points="497.94 808.65 598.74 717.83 577.36 711.37 476.56 802.18 497.94 808.65"/>
  </g>
  <g className="st78">
    <path className="st0" d="M1072.01,117.71c-4.51-13.89-19.47-21.52-33.36-17.02-13.89,4.51-21.52,19.47-17.02,33.36,4.51,13.89,19.47,21.52,33.36,17.02,13.89-4.51,21.52-19.47,17.02-33.36ZM1035.37,129.6c-2.05-6.31,1.42-13.12,7.74-15.16,6.31-2.05,13.12,1.42,15.16,7.74,2.05,6.31-1.42,13.12-7.74,15.17-6.31,2.05-13.12-1.42-15.16-7.74Z"/>
    <path className="st0" d="M1113.29,107.98c-13.89,4.51-21.52,19.47-17.02,33.36,4.51,13.89,19.47,21.52,33.36,17.02,13.89-4.51,21.52-19.47,17.02-33.36-4.51-13.89-19.47-21.52-33.36-17.02ZM1125.18,144.62c-6.31,2.05-13.12-1.42-15.17-7.74-2.05-6.31,1.42-13.12,7.74-15.16,6.31-2.05,13.12,1.42,15.16,7.74,2.05,6.31-1.42,13.12-7.73,15.16Z"/>
    <polygon className="st0" points="1080.12 178.08 1103.51 78.25 1087.45 83.45 1064.06 183.29 1080.12 178.08"/>
  </g>
  <g className="st100">
    <path className="st0" d="M871.68,920.56c.74-16.1-11.75-29.81-27.86-30.56-16.11-.74-29.81,11.75-30.56,27.86-.74,16.11,11.75,29.81,27.86,30.56,16.1.74,29.81-11.75,30.56-27.86ZM829.2,918.59c.34-7.32,6.57-13,13.89-12.66,7.32.34,13,6.57,12.66,13.89-.34,7.32-6.57,13-13.89,12.66-7.32-.34-13-6.57-12.66-13.89Z"/>
    <path className="st0" d="M918.12,926.55c-16.1-.74-29.81,11.75-30.56,27.86-.74,16.11,11.75,29.81,27.86,30.56,16.1.74,29.81-11.75,30.56-27.86.74-16.11-11.75-29.81-27.86-30.56ZM916.15,969.03c-7.32-.34-13-6.57-12.66-13.89.34-7.32,6.57-13,13.89-12.66,7.32.34,13,6.57,12.66,13.89-.34,7.32-6.57,13-13.89,12.66Z"/>
    <polygon className="st0" points="856.59 986.08 919.57 892.02 900.95 891.16 837.97 985.22 856.59 986.08"/>
  </g>
  <g className="st67">
    <path className="st0" d="M860.06,99.96c-.21-17.92-14.96-32.33-32.88-32.12-17.92.21-32.33,14.96-32.12,32.88.21,17.92,14.96,32.33,32.88,32.12,17.92-.21,32.33-14.96,32.12-32.88ZM812.79,100.52c-.1-8.15,6.45-14.85,14.6-14.95,8.15-.1,14.85,6.45,14.95,14.6.1,8.15-6.45,14.85-14.6,14.95-8.15.1-14.85-6.45-14.95-14.6Z"/>
    <path className="st0" d="M911.98,103.61c-17.92.21-32.33,14.96-32.12,32.88.21,17.92,14.96,32.33,32.89,32.12,17.92-.21,32.33-14.96,32.12-32.88-.21-17.92-14.96-32.33-32.88-32.12ZM912.54,150.89c-8.15.1-14.85-6.45-14.95-14.6-.1-8.15,6.45-14.85,14.6-14.95,8.15-.1,14.85,6.45,14.95,14.6.1,8.15-6.45,14.85-14.6,14.95Z"/>
    <polygon className="st0" points="847.53 173.65 911.37 65.21 890.65 65.45 826.82 173.9 847.53 173.65"/>
  </g>
  <g className="st62">
    <path className="st0" d="M382.53,456.68c-5.47-19.02-25.4-30.04-44.42-24.57-19.02,5.47-30.04,25.4-24.57,44.42s25.4,30.04,44.42,24.57c19.02-5.47,30.04-25.4,24.57-44.42ZM332.36,471.11c-2.49-8.64,2.52-17.7,11.17-20.19,8.65-2.49,17.7,2.52,20.19,11.17,2.49,8.65-2.52,17.7-11.17,20.19-8.65,2.49-17.7-2.52-20.19-11.17Z"/>
    <path className="st0" d="M438.89,445.37c-19.02,5.47-30.04,25.4-24.57,44.42,5.47,19.02,25.4,30.04,44.42,24.57,19.02-5.47,30.04-25.4,24.57-44.42-5.47-19.02-25.4-30.04-44.42-24.57ZM453.32,495.54c-8.65,2.49-17.7-2.52-20.19-11.17-2.49-8.64,2.52-17.7,11.17-20.19,8.65-2.49,17.7,2.52,20.19,11.17,2.49,8.65-2.52,17.7-11.17,20.19Z"/>
    <polygon className="st0" points="390.77 538.82 426.99 404.65 405 410.98 368.78 545.14 390.77 538.82"/>
  </g>
  <g className="st50">
    <path className="st0" d="M1607.1,994.78c-4.05-25.45-28.06-42.86-53.51-38.81-25.45,4.05-42.86,28.05-38.81,53.51,4.05,25.45,28.06,42.86,53.51,38.81,25.45-4.05,42.86-28.06,38.81-53.51ZM1539.95,1005.47c-1.84-11.57,6.07-22.48,17.64-24.32,11.57-1.84,22.48,6.07,24.32,17.64,1.84,11.57-6.07,22.48-17.64,24.32-11.57,1.84-22.48-6.07-24.32-17.64Z"/>
    <path className="st0" d="M1681.73,989.12c-25.45,4.05-42.86,28.05-38.81,53.51,4.05,25.45,28.06,42.86,53.51,38.81,25.45-4.05,42.86-28.06,38.81-53.51-4.05-25.45-28.06-42.86-53.51-38.81ZM1692.42,1056.26c-11.57,1.84-22.48-6.07-24.32-17.64-1.84-11.57,6.07-22.48,17.64-24.32,11.57-1.84,22.48,6.07,24.32,17.64,1.84,11.57-6.07,22.48-17.64,24.32Z"/>
    <polygon className="st0" points="1604.69 1102.26 1672.82 934.6 1643.4 939.29 1575.27 1106.94 1604.69 1102.26"/>
  </g>
  <g className="st90">
    <path className="st0" d="M1390.45,1588.65c.15-25.04-20.09-45.53-45.13-45.69-25.04-.15-45.53,20.09-45.69,45.13-.15,25.04,20.09,45.54,45.13,45.69,25.04.15,45.53-20.09,45.69-45.13ZM1324.4,1588.25c.07-11.38,9.39-20.58,20.77-20.51,11.38.07,20.58,9.39,20.51,20.77-.07,11.38-9.39,20.58-20.77,20.52-11.38-.07-20.58-9.39-20.52-20.77Z"/>
    <path className="st0" d="M1462.88,1595.06c-25.04-.15-45.53,20.09-45.69,45.13-.15,25.04,20.09,45.54,45.13,45.69,25.04.15,45.53-20.09,45.69-45.13.15-25.04-20.09-45.53-45.13-45.69ZM1462.48,1661.11c-11.38-.07-20.59-9.39-20.52-20.77.07-11.38,9.39-20.58,20.77-20.51,11.38.07,20.58,9.39,20.51,20.77-.07,11.38-9.39,20.58-20.77,20.52Z"/>
    <polygon className="st0" points="1371.1 1691.29 1462.99 1541.39 1434.04 1541.22 1342.16 1691.11 1371.1 1691.29"/>
  </g>
  <g className="st88">
    <path className="st0" d="M1061.15,973.92c-3.14-12.4-15.78-19.94-28.18-16.8-12.4,3.14-19.94,15.78-16.8,28.18,3.14,12.4,15.78,19.94,28.18,16.8,12.4-3.14,19.94-15.78,16.8-28.18ZM1028.43,982.19c-1.43-5.64,2-11.38,7.64-12.81,5.64-1.43,11.38,2,12.81,7.64,1.43,5.64-2,11.38-7.64,12.81-5.64,1.43-11.38-2-12.81-7.64Z"/>
    <path className="st0" d="M1097.79,967.8c-12.4,3.14-19.94,15.78-16.81,28.18,3.14,12.4,15.78,19.94,28.18,16.8,12.4-3.14,19.94-15.78,16.8-28.18-3.14-12.4-15.78-19.94-28.18-16.8ZM1106.07,1000.51c-5.64,1.43-11.38-2-12.81-7.64-1.43-5.64,2-11.38,7.64-12.81,5.64-1.43,11.38,2,12.81,7.64,1.43,5.64-2,11.38-7.64,12.81Z"/>
    <polygon className="st0" points="1064.75 1027.16 1090.96 941.24 1076.63 944.87 1050.41 1030.78 1064.75 1027.16"/>
  </g>
  <g className="st49">
    <path className="st0" d="M1829.49,299.26c.08-19.3-15.56-35.06-34.86-35.14-19.3-.08-35.07,15.56-35.14,34.86-.08,19.3,15.56,35.06,34.86,35.14,19.3.08,35.06-15.56,35.14-34.86ZM1778.57,299.06c.03-8.77,7.2-15.88,15.97-15.85,8.77.04,15.88,7.2,15.85,15.97-.04,8.77-7.2,15.88-15.97,15.85-8.77-.04-15.88-7.2-15.85-15.97Z"/>
    <path className="st0" d="M1885.33,304.09c-19.3-.08-35.07,15.56-35.14,34.86-.08,19.3,15.56,35.06,34.86,35.14,19.3.08,35.06-15.56,35.14-34.86.08-19.3-15.56-35.06-34.86-35.14ZM1885.12,355c-8.77-.03-15.88-7.2-15.85-15.97.04-8.77,7.2-15.88,15.97-15.85,8.77.03,15.88,7.2,15.85,15.97-.04,8.77-7.2,15.88-15.97,15.85Z"/>
    <polygon className="st0" points="1814.74 378.4 1885.32 262.72 1863.01 262.63 1792.43 378.31 1814.74 378.4"/>
  </g>
  <g className="st22">
    <path className="st0" d="M2302.41,1431.88c3.24-13.53-5.14-27.16-18.66-30.4-13.53-3.23-27.16,5.14-30.4,18.66-3.23,13.53,5.14,27.16,18.66,30.4,13.53,3.24,27.16-5.14,30.4-18.66ZM2266.73,1423.34c1.47-6.15,7.67-9.95,13.82-8.48,6.15,1.47,9.95,7.67,8.48,13.82-1.47,6.15-7.67,9.95-13.82,8.48-6.15-1.47-9.95-7.67-8.48-13.82Z"/>
    <path className="st0" d="M2340.79,1444.46c-13.53-3.23-27.16,5.14-30.4,18.66-3.24,13.53,5.14,27.16,18.66,30.4,13.53,3.23,27.16-5.14,30.4-18.66,3.24-13.53-5.14-27.16-18.66-30.4ZM2332.26,1480.14c-6.15-1.47-9.95-7.67-8.48-13.82,1.47-6.15,7.67-9.95,13.82-8.48,6.15,1.47,9.95,7.67,8.48,13.82-1.47,6.15-7.67,9.95-13.82,8.48Z"/>
    <polygon className="st0" points="2279.02 1484.96 2347.6 1415.44 2331.97 1411.7 2263.39 1481.22 2279.02 1484.96"/>
  </g>
  <g className="st42">
    <path className="st0" d="M1979.41,1094.51c-6.13-21.05-28.23-33.18-49.28-27.06-21.05,6.13-33.19,28.23-27.06,49.28,6.13,21.05,28.23,33.19,49.28,27.06,21.05-6.13,33.18-28.23,27.06-49.28ZM1923.89,1110.67c-2.78-9.57,2.73-19.61,12.3-22.4,9.57-2.78,19.62,2.73,22.4,12.3,2.79,9.57-2.73,19.62-12.3,22.4-9.57,2.79-19.62-2.73-22.4-12.3Z"/>
    <path className="st0" d="M2041.78,1081.79c-21.05,6.13-33.19,28.23-27.06,49.28,6.13,21.05,28.23,33.18,49.28,27.06,21.05-6.13,33.18-28.23,27.06-49.28-6.13-21.05-28.23-33.18-49.28-27.06ZM2057.94,1137.31c-9.57,2.78-19.62-2.73-22.4-12.3-2.78-9.57,2.73-19.61,12.3-22.4,9.57-2.79,19.62,2.73,22.4,12.3,2.79,9.57-2.73,19.62-12.3,22.4Z"/>
    <polygon className="st0" points="1988.81 1185.46 2028.46 1036.74 2004.13 1043.82 1964.48 1192.54 1988.81 1185.46"/>
  </g>
  <g className="st84">
    <path className="st0" d="M517.92,280.53c-5.16-25.19-29.85-41.49-55.04-36.33-25.19,5.16-41.49,29.85-36.33,55.04,5.16,25.19,29.85,41.49,55.04,36.33,25.19-5.16,41.49-29.85,36.33-55.04ZM451.46,294.13c-2.34-11.45,5.06-22.67,16.51-25.02,11.45-2.34,22.67,5.06,25.02,16.51,2.34,11.45-5.06,22.67-16.51,25.02-11.45,2.34-22.67-5.06-25.02-16.51Z"/>
    <path className="st0" d="M592.06,271.6c-25.19,5.16-41.49,29.85-36.33,55.04,5.16,25.19,29.85,41.49,55.04,36.33,25.19-5.16,41.49-29.85,36.33-55.04-5.16-25.19-29.85-41.49-55.04-36.33ZM605.67,338.05c-11.45,2.34-22.67-5.06-25.02-16.51-2.34-11.45,5.06-22.67,16.51-25.02,11.45-2.34,22.67,5.06,25.02,16.51,2.34,11.45-5.06,22.67-16.51,25.02Z"/>
    <polygon className="st0" points="520.25 387.76 580.78 217.65 551.66 223.61 491.13 393.72 520.25 387.76"/>
  </g>
  <g className="st25">
    <path className="st0" d="M748.59,304.03c7.11-23.29-6.04-48.02-29.33-55.13-23.29-7.11-48.02,6.04-55.13,29.33-7.11,23.29,6.04,48.02,29.33,55.13,23.29,7.11,48.02-6.04,55.13-29.33ZM687.16,285.26c3.23-10.58,14.47-16.56,25.06-13.33,10.58,3.23,16.56,14.47,13.33,25.06-3.23,10.58-14.47,16.57-25.06,13.33-10.58-3.23-16.57-14.47-13.33-25.06Z"/>
    <path className="st0" d="M814.29,330.16c-23.29-7.11-48.02,6.04-55.13,29.33-7.11,23.29,6.04,48.02,29.33,55.13,23.29,7.11,48.02-6.05,55.13-29.33,7.11-23.29-6.04-48.02-29.33-55.13ZM795.53,391.58c-10.58-3.23-16.57-14.47-13.33-25.06,3.23-10.58,14.47-16.56,25.06-13.33,10.58,3.23,16.56,14.47,13.33,25.06-3.23,10.58-14.47,16.57-25.06,13.33Z"/>
    <polygon className="st0" points="701.99 394.26 829.33 280.19 802.41 271.97 675.08 386.04 701.99 394.26"/>
  </g>
  <g className="st82">
    <path className="st0" d="M396.06,83.33c5.57-21.99-7.78-44.41-29.77-49.99-21.99-5.58-44.41,7.78-49.99,29.77-5.58,21.99,7.78,44.41,29.77,49.99,21.99,5.58,44.41-7.78,49.99-29.77ZM338.05,68.62c2.53-9.99,12.73-16.06,22.72-13.53,9.99,2.53,16.06,12.73,13.53,22.72-2.53,9.99-12.73,16.06-22.72,13.53-10-2.53-16.06-12.73-13.53-22.72Z"/>
    <path className="st0" d="M458.37,104.7c-21.99-5.57-44.41,7.78-49.99,29.77-5.57,21.99,7.78,44.41,29.77,49.99,21.99,5.58,44.41-7.78,49.99-29.77,5.58-21.99-7.78-44.41-29.77-49.99ZM443.67,162.71c-10-2.53-16.06-12.73-13.53-22.72,2.53-9.99,12.73-16.06,22.72-13.53,9.99,2.53,16.06,12.73,13.53,22.72-2.53,10-12.73,16.06-22.72,13.53Z"/>
    <polygon className="st0" points="356.74 169.39 470.12 57.53 444.71 51.08 331.32 162.94 356.74 169.39"/>
  </g>
  <g className="st4">
    <path className="st0" d="M1820.38,1583.93c6.79-19.84-3.82-41.5-23.66-48.29-19.84-6.79-41.5,3.82-48.29,23.66-6.79,19.84,3.82,41.5,23.66,48.29,19.84,6.79,41.5-3.83,48.29-23.66ZM1768.05,1566.02c3.09-9.02,12.93-13.84,21.95-10.75,9.02,3.09,13.84,12.93,10.76,21.95-3.09,9.02-12.93,13.84-21.95,10.76-9.02-3.09-13.84-12.93-10.76-21.95Z"/>
    <path className="st0" d="M1876.17,1608.31c-19.84-6.79-41.5,3.82-48.29,23.66-6.79,19.84,3.83,41.5,23.66,48.29,19.84,6.79,41.5-3.83,48.29-23.66,6.79-19.84-3.82-41.5-23.66-48.29ZM1858.26,1660.64c-9.02-3.09-13.84-12.93-10.76-21.95,3.09-9.02,12.93-13.84,21.95-10.75,9.02,3.09,13.84,12.93,10.75,21.95-3.09,9.02-12.93,13.84-21.95,10.76Z"/>
    <polygon className="st0" points="1777.68 1660.26 1890.55 1565.73 1867.62 1557.89 1754.75 1652.41 1777.68 1660.26"/>
  </g>
  <g className="st96">
    <path className="st0" d="M112.94,722.65c4.44-13.21-2.69-27.57-15.9-32.01-13.21-4.44-27.57,2.69-32.01,15.9-4.44,13.21,2.69,27.57,15.9,32.01,13.21,4.44,27.57-2.69,32.01-15.9ZM78.09,710.93c2.02-6,8.55-9.25,14.55-7.23,6,2.02,9.25,8.55,7.23,14.55-2.02,6-8.55,9.25-14.55,7.23-6.01-2.02-9.25-8.55-7.23-14.55Z"/>
    <path className="st0" d="M150.11,738.65c-13.21-4.44-27.57,2.69-32.01,15.9-4.44,13.21,2.69,27.57,15.9,32.01,13.21,4.44,27.57-2.69,32.01-15.9,4.44-13.21-2.69-27.57-15.9-32.01ZM138.4,773.49c-6-2.02-9.25-8.55-7.23-14.55,2.02-6,8.55-9.25,14.55-7.23,6,2.02,9.25,8.55,7.23,14.55-2.02,6-8.55,9.25-14.55,7.23Z"/>
    <polygon className="st0" points="84.84 773.53 159.51 710.3 144.24 705.16 69.57 768.4 84.84 773.53"/>
  </g>
  <g className="st27">
    <path className="st0" d="M312.81,1582.68c-5.75-17.81-24.92-27.62-42.73-21.87-17.81,5.75-27.62,24.92-21.87,42.73,5.75,17.81,24.92,27.62,42.73,21.87,17.81-5.75,27.62-24.92,21.87-42.73ZM265.83,1597.85c-2.61-8.09,1.85-16.81,9.94-19.42,8.1-2.61,16.81,1.85,19.42,9.94,2.61,8.1-1.85,16.81-9.94,19.42-8.1,2.61-16.81-1.85-19.42-9.94Z"/>
    <path className="st0" d="M365.74,1570.27c-17.81,5.75-27.62,24.92-21.87,42.73,5.75,17.81,24.92,27.62,42.73,21.87,17.81-5.75,27.62-24.92,21.87-42.73-5.75-17.81-24.92-27.62-42.73-21.87ZM380.91,1617.26c-8.1,2.61-16.81-1.85-19.42-9.94-2.61-8.1,1.85-16.81,9.94-19.42,8.1-2.61,16.81,1.85,19.42,9.94,2.61,8.1-1.85,16.81-9.94,19.42Z"/>
    <polygon className="st0" points="323.1 1660.06 353.25 1532.15 332.66 1538.8 302.51 1666.71 323.1 1660.06"/>
  </g>
  <g className="st86">
    <path className="st0" d="M2448.28,82.92c.78-19.18-14.19-35.41-33.37-36.19-19.18-.78-35.41,14.19-36.19,33.37-.78,19.18,14.19,35.41,33.37,36.19,19.18.78,35.41-14.19,36.19-33.37ZM2397.69,80.86c.35-8.72,7.73-15.52,16.45-15.17,8.72.35,15.52,7.73,15.17,16.45-.35,8.72-7.73,15.52-16.45,15.17-8.72-.35-15.52-7.73-15.17-16.45Z"/>
    <path className="st0" d="M2503.6,89.74c-19.18-.78-35.41,14.19-36.19,33.36-.78,19.18,14.19,35.41,33.37,36.19,19.18.78,35.41-14.19,36.19-33.37.78-19.18-14.19-35.41-33.37-36.19ZM2501.54,140.33c-8.72-.35-15.52-7.73-15.17-16.45.35-8.72,7.73-15.52,16.45-15.17,8.72.35,15.52,7.73,15.17,16.45-.35,8.72-7.73,15.52-16.45,15.17Z"/>
    <polygon className="st0" points="2430.74 161.03 2505.1 48.63 2482.93 47.73 2408.57 160.13 2430.74 161.03"/>
  </g>
  <g className="st44">
    <path className="st0" d="M2271.95,234.96c-1.41-14.95-14.73-25.96-29.68-24.55-14.95,1.41-25.96,14.73-24.55,29.68,1.41,14.95,14.73,25.96,29.68,24.55,14.95-1.41,25.96-14.73,24.55-29.68ZM2232.52,238.69c-.64-6.8,4.36-12.85,11.16-13.49,6.8-.64,12.85,4.36,13.49,11.16.64,6.8-4.36,12.85-11.16,13.49-6.8.64-12.85-4.36-13.49-11.16Z"/>
    <path className="st0" d="M2315.56,234.43c-14.95,1.41-25.96,14.73-24.55,29.68,1.41,14.95,14.73,25.96,29.68,24.55,14.95-1.41,25.96-14.73,24.55-29.68s-14.73-25.96-29.68-24.55ZM2319.29,273.87c-6.8.64-12.85-4.36-13.49-11.16-.64-6.8,4.36-12.85,11.16-13.49,6.8-.64,12.85,4.36,13.49,11.16.64,6.8-4.36,12.85-11.16,13.49Z"/>
    <polygon className="st0" points="2266.58 297.37 2312.4 202.4 2295.12 204.04 2249.29 299 2266.58 297.37"/>
  </g>
  <g className="st28">
    <path className="st0" d="M647.83,1179.39c.27-16.53-12.97-30.2-29.5-30.47-16.53-.27-30.2,12.97-30.47,29.5-.27,16.53,12.97,30.2,29.5,30.47,16.53.27,30.2-12.97,30.47-29.5ZM604.21,1178.69c.12-7.51,6.33-13.53,13.85-13.41,7.51.12,13.53,6.33,13.41,13.85-.12,7.52-6.33,13.53-13.85,13.41-7.52-.12-13.53-6.33-13.41-13.85Z"/>
    <path className="st0" d="M695.62,1184.1c-16.53-.27-30.2,12.97-30.47,29.5-.27,16.53,12.97,30.2,29.5,30.47,16.53.27,30.2-12.97,30.47-29.5.27-16.53-12.97-30.2-29.5-30.47ZM694.91,1227.71c-7.52-.12-13.53-6.33-13.41-13.85.12-7.51,6.33-13.53,13.85-13.41,7.51.12,13.53,6.33,13.41,13.85-.12,7.52-6.33,13.53-13.85,13.41Z"/>
    <polygon className="st0" points="634.38 1247.04 696.04 1148.66 676.93 1148.35 615.26 1246.73 634.38 1247.04"/>
  </g>
  <g className="st10">
    <path className="st0" d="M1904.07,1358.68c1.02-14.54-9.97-27.2-24.51-28.22-14.54-1.02-27.2,9.97-28.22,24.51-1.02,14.54,9.97,27.2,24.51,28.22,14.54,1.02,27.2-9.97,28.22-24.51ZM1865.72,1355.98c.46-6.61,6.22-11.61,12.83-11.14,6.61.46,11.61,6.22,11.14,12.83-.46,6.61-6.22,11.61-12.83,11.14-6.61-.47-11.61-6.22-11.14-12.83Z"/>
    <path className="st0" d="M1945.91,1365.11c-14.54-1.02-27.2,9.97-28.22,24.51-1.02,14.54,9.97,27.2,24.51,28.22,14.54,1.02,27.2-9.97,28.22-24.51,1.02-14.54-9.97-27.2-24.51-28.22ZM1943.21,1403.46c-6.61-.47-11.61-6.22-11.14-12.83.46-6.61,6.22-11.61,12.83-11.14,6.61.46,11.61,6.22,11.14,12.83-.46,6.61-6.22,11.61-12.83,11.14Z"/>
    <polygon className="st0" points="1889.01 1417.57 1947.97 1333.94 1931.17 1332.75 1872.2 1416.39 1889.01 1417.57"/>
  </g>
  <g className="st56">
    <path className="st0" d="M1248.46,1048.87c2.51-13.08-6.09-25.77-19.18-28.28-13.09-2.51-25.77,6.09-28.28,19.18-2.51,13.08,6.09,25.77,19.18,28.28,13.08,2.51,25.77-6.09,28.28-19.18ZM1213.95,1042.24c1.14-5.95,6.91-9.86,12.86-8.72,5.95,1.14,9.86,6.91,8.72,12.86-1.14,5.95-6.91,9.86-12.86,8.72s-9.86-6.91-8.72-12.86Z"/>
    <path className="st0" d="M1285.74,1059.25c-13.08-2.51-25.77,6.09-28.28,19.18-2.51,13.08,6.09,25.77,19.18,28.28,13.08,2.51,25.77-6.09,28.28-19.18,2.51-13.08-6.09-25.77-19.18-28.28ZM1279.11,1093.77c-5.95-1.14-9.86-6.91-8.72-12.86,1.14-5.95,6.91-9.86,12.86-8.72,5.95,1.14,9.86,6.91,8.72,12.86-1.14,5.95-6.91,9.86-12.86,8.72Z"/>
    <polygon className="st0" points="1228.38 1100.68 1291 1031.18 1275.88 1028.28 1213.25 1097.78 1228.38 1100.68"/>
  </g>
  <g className="st6">
    <path className="st0" d="M1602.25,1603.93c-2.44-12.11-14.27-19.98-26.38-17.54-12.11,2.44-19.98,14.27-17.54,26.38s14.27,19.98,26.38,17.54,19.98-14.27,17.54-26.38ZM1570.31,1610.35c-1.11-5.5,2.47-10.88,7.97-11.99,5.5-1.11,10.88,2.47,11.99,7.97,1.11,5.5-2.47,10.88-7.97,11.99-5.5,1.11-10.88-2.47-11.99-7.97Z"/>
    <path className="st0" d="M1637.88,1599.76c-12.11,2.44-19.98,14.27-17.54,26.38,2.44,12.11,14.27,19.98,26.38,17.54,12.11-2.44,19.98-14.27,17.54-26.38s-14.27-19.98-26.38-17.54ZM1644.31,1631.7c-5.5,1.11-10.88-2.47-11.99-7.97-1.11-5.5,2.47-10.88,7.97-11.99,5.5-1.11,10.88,2.47,11.99,7.97,1.11,5.5-2.47,10.88-7.97,11.99Z"/>
    <polygon className="st0" points="1603.2 1655.43 1632.55 1573.83 1618.55 1576.64 1589.2 1658.25 1603.2 1655.43"/>
  </g>
  <g className="st16">
    <path className="st0" d="M1417.49,913.37c-5.05-14.76-21.16-22.65-35.92-17.6-14.76,5.05-22.65,21.16-17.6,35.92,5.05,14.75,21.17,22.65,35.92,17.6,14.76-5.05,22.65-21.17,17.6-35.92ZM1378.57,926.7c-2.3-6.71,1.29-14.03,8-16.33,6.71-2.3,14.03,1.29,16.33,8,2.3,6.71-1.29,14.03-8,16.33-6.71,2.3-14.03-1.29-16.33-8Z"/>
    <path className="st0" d="M1461.4,902.27c-14.76,5.05-22.65,21.16-17.6,35.92,5.05,14.76,21.16,22.65,35.92,17.6,14.76-5.05,22.65-21.17,17.6-35.92-5.05-14.76-21.16-22.65-35.92-17.6ZM1474.73,941.19c-6.71,2.3-14.03-1.29-16.33-8-2.3-6.71,1.29-14.03,8-16.33,6.71-2.3,14.03,1.29,16.33,8,2.3,6.71-1.29,14.03-8,16.33Z"/>
    <polygon className="st0" points="1427.19 977.7 1450.44 870.69 1433.39 876.53 1410.13 983.54 1427.19 977.7"/>
  </g>
  <g className="st63">
    <path className="st0" d="M749.55,715.41c2.44-22.91-14.22-43.52-37.12-45.96-22.91-2.44-43.52,14.22-45.96,37.12-2.44,22.91,14.22,43.52,37.12,45.96,22.91,2.44,43.52-14.22,45.96-37.12ZM689.12,708.98c1.11-10.41,10.48-17.98,20.89-16.87,10.41,1.11,17.98,10.48,16.87,20.89-1.11,10.41-10.48,17.98-20.89,16.87-10.41-1.11-17.98-10.48-16.87-20.89Z"/>
    <path className="st0" d="M815.26,727.91c-22.91-2.44-43.52,14.22-45.96,37.12-2.44,22.91,14.22,43.52,37.12,45.96,22.91,2.44,43.52-14.22,45.96-37.12,2.44-22.91-14.22-43.52-37.12-45.96ZM808.84,788.34c-10.41-1.11-17.98-10.48-16.87-20.89,1.11-10.41,10.48-17.98,20.89-16.87,10.41,1.11,17.98,10.48,16.87,20.89-1.11,10.41-10.48,17.98-20.89,16.87Z"/>
    <polygon className="st0" points="722.42 807.58 820.28 678.8 793.8 675.98 695.95 804.76 722.42 807.58"/>
  </g>
  <g className="st2">
    <path className="st0" d="M540.34,1599.91c2.33-18.15-10.53-34.81-28.68-37.15-18.15-2.33-34.82,10.53-37.15,28.68-2.33,18.15,10.53,34.82,28.68,37.15,18.15,2.33,34.81-10.53,37.15-28.68ZM492.46,1593.76c1.06-8.25,8.64-14.1,16.89-13.04,8.25,1.06,14.1,8.64,13.04,16.89-1.06,8.25-8.64,14.1-16.89,13.04-8.25-1.06-14.1-8.64-13.04-16.89Z"/>
    <path className="st0" d="M592.31,1610.99c-18.15-2.33-34.81,10.53-37.15,28.68-2.33,18.15,10.53,34.82,28.68,37.15,18.15,2.33,34.81-10.53,37.15-28.68,2.33-18.15-10.53-34.81-28.68-37.15ZM586.16,1658.87c-8.25-1.06-14.1-8.64-13.04-16.89,1.06-8.25,8.64-14.1,16.89-13.04,8.25,1.06,14.1,8.64,13.04,16.89-1.06,8.25-8.64,14.1-16.89,13.04Z"/>
    <polygon className="st0" points="517.19 1672.65 597.15 1572.07 576.17 1569.37 496.21 1669.95 517.19 1672.65"/>
  </g>
  <g className="st58">
    <path className="st0" d="M2485.69,288.51c-.65-16.12-14.29-28.71-30.41-28.07-16.12.65-28.72,14.29-28.07,30.41.65,16.12,14.29,28.72,30.41,28.07,16.12-.64,28.72-14.29,28.07-30.41ZM2443.16,290.21c-.29-7.33,5.43-13.53,12.76-13.82,7.33-.29,13.53,5.43,13.82,12.76.29,7.33-5.43,13.53-12.76,13.82-7.33.29-13.53-5.43-13.82-12.76Z"/>
    <path className="st0" d="M2532.51,290.48c-16.12.64-28.72,14.29-28.07,30.41.64,16.12,14.29,28.72,30.41,28.07,16.12-.64,28.72-14.29,28.07-30.41-.64-16.12-14.29-28.71-30.41-28.07ZM2534.21,333.01c-7.33.29-13.53-5.43-13.82-12.76-.29-7.33,5.43-13.53,12.76-13.82,7.33-.29,13.53,5.43,13.82,12.76.29,7.33-5.43,13.53-12.76,13.82Z"/>
    <polygon className="st0" points="2476.28 355.15 2530.98 255.93 2512.35 256.68 2457.64 355.9 2476.28 355.15"/>
  </g>
  <g className="st80">
    <path className="st0" d="M973.98,318.97c4.99-15.12-3.26-31.48-18.38-36.47-15.12-4.99-31.48,3.26-36.47,18.38-4.99,15.12,3.26,31.48,18.38,36.47s31.48-3.26,36.47-18.38ZM934.08,305.82c2.27-6.87,9.7-10.62,16.58-8.36,6.87,2.27,10.62,9.7,8.36,16.58-2.27,6.87-9.7,10.62-16.58,8.36-6.87-2.27-10.62-9.7-8.36-16.58Z"/>
    <path className="st0" d="M1016.56,337c-15.12-4.99-31.48,3.26-36.47,18.38-4.99,15.12,3.26,31.48,18.38,36.47,15.12,4.99,31.48-3.26,36.47-18.38,4.99-15.12-3.26-31.48-18.38-36.47ZM1003.41,376.89c-6.87-2.27-10.62-9.7-8.36-16.58,2.27-6.87,9.7-10.62,16.58-8.36,6.87,2.27,10.62,9.7,8.36,16.58-2.27,6.87-9.7,10.62-16.58,8.36Z"/>
    <polygon className="st0" points="942.21 377.3 1027.11 304.54 1009.63 298.78 924.73 371.53 942.21 377.3"/>
  </g>
  <g className="st18">
    <path className="st0" d="M611.74,521.22c3.22-15.45-6.73-30.65-22.18-33.87-15.46-3.22-30.65,6.73-33.87,22.18-3.22,15.45,6.73,30.65,22.19,33.87,15.45,3.22,30.65-6.73,33.87-22.19ZM570.97,512.72c1.46-7.03,8.37-11.55,15.4-10.08,7.02,1.46,11.55,8.37,10.08,15.4-1.46,7.02-8.37,11.55-15.4,10.08-7.02-1.47-11.55-8.37-10.08-15.4Z"/>
    <path className="st0" d="M655.7,534.23c-15.45-3.22-30.65,6.73-33.87,22.18-3.22,15.45,6.73,30.65,22.19,33.87,15.45,3.22,30.65-6.73,33.87-22.19,3.22-15.45-6.73-30.65-22.19-33.87ZM647.2,575c-7.03-1.47-11.55-8.37-10.08-15.4,1.46-7.02,8.37-11.55,15.4-10.08,7.02,1.46,11.55,8.37,10.08,15.4-1.47,7.03-8.37,11.55-15.4,10.08Z"/>
    <polygon className="st0" points="586.96 582.23 662.47 501.08 644.6 497.35 569.09 578.51 586.96 582.23"/>
  </g>
  <g className="st55">
    <path className="st0" d="M109.31,1417.31c2.85-16.53-8.28-32.29-24.81-35.14-16.53-2.85-32.29,8.28-35.14,24.8-2.85,16.53,8.28,32.29,24.81,35.14,16.53,2.85,32.29-8.28,35.14-24.81ZM65.72,1409.79c1.29-7.51,8.46-12.57,15.97-11.27,7.51,1.29,12.57,8.46,11.28,15.97-1.29,7.51-8.46,12.57-15.97,11.28-7.51-1.29-12.57-8.46-11.28-15.97Z"/>
    <path className="st0" d="M156.47,1429.49c-16.53-2.85-32.29,8.28-35.14,24.8-2.85,16.53,8.28,32.29,24.81,35.14,16.53,2.85,32.29-8.28,35.14-24.81,2.85-16.53-8.28-32.29-24.8-35.14ZM148.95,1473.08c-7.51-1.29-12.57-8.46-11.28-15.97,1.29-7.51,8.46-12.57,15.97-11.27,7.51,1.29,12.57,8.46,11.28,15.97-1.29,7.51-8.46,12.57-15.97,11.28Z"/>
    <polygon className="st0" points="85.27 1482.99 162.42 1394.04 143.32 1390.75 66.17 1479.7 85.27 1482.99"/>
  </g>
  <g className="st89">
    <path className="st0" d="M2113.98,1239.77c3.64-14.37-5.09-29.02-19.46-32.66-14.37-3.64-29.02,5.09-32.66,19.46-3.64,14.37,5.09,29.02,19.46,32.66,14.37,3.64,29.02-5.09,32.66-19.46ZM2076.08,1230.17c1.65-6.53,8.31-10.5,14.84-8.84,6.53,1.65,10.5,8.31,8.84,14.84-1.65,6.53-8.31,10.5-14.84,8.85-6.53-1.65-10.5-8.31-8.84-14.84Z"/>
    <path className="st0" d="M2154.7,1253.72c-14.37-3.64-29.02,5.09-32.66,19.46-3.64,14.37,5.09,29.02,19.46,32.66,14.37,3.64,29.02-5.09,32.66-19.46,3.64-14.37-5.09-29.02-19.46-32.65ZM2145.11,1291.62c-6.53-1.65-10.5-8.31-8.85-14.84,1.65-6.53,8.31-10.5,14.84-8.84,6.53,1.65,10.5,8.31,8.84,14.84-1.65,6.53-8.31,10.5-14.84,8.84Z"/>
    <polygon className="st0" points="2088.31 1296.01 2162.37 1222.9 2145.77 1218.69 2071.7 1291.8 2088.31 1296.01"/>
  </g>
  <g className="st15">
    <path className="st0" d="M854.77,525.78c3.71-12.19-3.19-25.13-15.38-28.84-12.19-3.71-25.13,3.19-28.84,15.38-3.71,12.19,3.18,25.13,15.38,28.84,12.19,3.71,25.13-3.19,28.84-15.38ZM822.61,515.99c1.69-5.54,7.57-8.68,13.11-6.99,5.54,1.69,8.68,7.57,6.99,13.11-1.69,5.54-7.57,8.68-13.11,6.99-5.54-1.69-8.68-7.57-6.99-13.11Z"/>
    <path className="st0" d="M889.17,539.43c-12.19-3.71-25.13,3.18-28.84,15.38-3.71,12.19,3.19,25.13,15.38,28.84,12.19,3.71,25.13-3.19,28.84-15.38,3.71-12.19-3.19-25.13-15.38-28.84ZM879.38,571.59c-5.54-1.69-8.68-7.57-6.99-13.11,1.69-5.54,7.57-8.68,13.11-6.99,5.54,1.69,8.68,7.57,6.99,13.11-1.69,5.54-7.57,8.68-13.11,6.99Z"/>
    <polygon className="st0" points="830.42 573.03 897.02 513.27 882.93 508.98 816.33 568.74 830.42 573.03"/>
  </g>
  <g className="st13">
    <path className="st0" d="M484.89,968.09c1.13-15.69-10.72-29.38-26.41-30.51-15.69-1.13-29.38,10.72-30.51,26.41-1.13,15.69,10.72,29.38,26.41,30.51,15.69,1.13,29.38-10.72,30.51-26.41ZM443.5,965.11c.51-7.13,6.73-12.52,13.87-12.01,7.13.51,12.52,6.73,12.01,13.87-.51,7.13-6.73,12.52-13.87,12.01-7.13-.51-12.52-6.73-12.01-13.87Z"/>
    <path className="st0" d="M530.04,975.09c-15.69-1.13-29.38,10.72-30.51,26.41-1.13,15.69,10.72,29.38,26.41,30.51,15.69,1.13,29.38-10.72,30.51-26.42,1.13-15.69-10.72-29.38-26.41-30.5ZM527.07,1016.49c-7.13-.51-12.52-6.73-12.01-13.87.51-7.13,6.73-12.52,13.87-12.01,7.13.51,12.52,6.73,12.01,13.87-.51,7.13-6.73,12.52-13.87,12.01Z"/>
    <polygon className="st0" points="468.53 1031.64 532.32 941.45 514.18 940.14 450.39 1030.34 468.53 1031.64"/>
  </g>
  <g className="st33">
    <path className="st0" d="M2489.12,511.97c2.45-19.58-11.48-37.5-31.06-39.95-19.58-2.45-37.5,11.48-39.95,31.06-2.45,19.58,11.48,37.5,31.06,39.95,19.58,2.45,37.5-11.48,39.95-31.06ZM2437.47,505.5c1.11-8.9,9.26-15.23,18.16-14.12,8.9,1.11,15.23,9.26,14.12,18.16-1.11,8.9-9.26,15.23-18.16,14.12-8.9-1.11-15.23-9.26-14.12-18.16Z"/>
    <path className="st0" d="M2545.2,523.72c-19.58-2.45-37.5,11.48-39.95,31.06-2.45,19.58,11.48,37.5,31.06,39.95,19.58,2.45,37.5-11.48,39.95-31.06,2.45-19.58-11.48-37.5-31.06-39.95ZM2538.73,575.36c-8.9-1.11-15.23-9.26-14.12-18.16,1.11-8.9,9.26-15.23,18.16-14.12,8.9,1.11,15.23,9.26,14.12,18.16-1.11,8.9-9.26,15.23-18.16,14.12Z"/>
    <polygon className="st0" points="2464.42 590.47 2550.27 481.74 2527.64 478.91 2441.79 587.63 2464.42 590.47"/>
  </g>
  <g className="st95">
    <path className="st0" d="M1085.44,1401.91c7.29-24.16-6.44-49.75-30.6-57.04-24.16-7.29-49.75,6.44-57.04,30.6-7.29,24.16,6.44,49.75,30.6,57.04,24.16,7.29,49.75-6.44,57.04-30.6ZM1021.7,1382.69c3.31-10.98,14.94-17.22,25.93-13.91,10.98,3.31,17.22,14.94,13.91,25.92-3.31,10.98-14.94,17.22-25.93,13.91-10.98-3.31-17.22-14.94-13.91-25.93Z"/>
    <path className="st0" d="M1153.64,1428.76c-24.16-7.29-49.75,6.44-57.04,30.6-7.29,24.16,6.44,49.75,30.6,57.04,24.16,7.29,49.75-6.44,57.04-30.6,7.29-24.16-6.44-49.75-30.6-57.04ZM1134.42,1492.5c-10.98-3.31-17.22-14.94-13.91-25.93,3.31-10.98,14.94-17.22,25.93-13.91,10.98,3.31,17.22,14.94,13.91,25.92-3.31,10.98-14.94,17.22-25.93,13.91Z"/>
    <polygon className="st0" points="1037.47 1495.62 1169.05 1376.91 1141.11 1368.48 1009.54 1487.19 1037.47 1495.62"/>
  </g>
  <g className="st70">
    <path className="st0" d="M2469.57,716.87c-.69-21.8-18.98-38.97-40.77-38.28-21.8.69-38.97,18.98-38.28,40.77.69,21.79,18.98,38.97,40.77,38.28,21.8-.69,38.97-18.98,38.28-40.77ZM2412.08,718.68c-.31-9.91,7.49-18.22,17.4-18.53,9.91-.31,18.22,7.49,18.53,17.4.31,9.91-7.49,18.22-17.4,18.53-9.91.31-18.22-7.49-18.53-17.4Z"/>
    <path className="st0" d="M2532.82,720.07c-21.8.69-38.97,18.98-38.28,40.77.69,21.79,18.98,38.97,40.77,38.28,21.79-.69,38.97-18.98,38.28-40.77-.69-21.79-18.98-38.97-40.77-38.28ZM2534.64,777.56c-9.91.31-18.22-7.49-18.53-17.4-.31-9.91,7.49-18.22,17.4-18.53,9.91-.31,18.22,7.49,18.53,17.4.31,9.91-7.49,18.22-17.4,18.53Z"/>
    <polygon className="st0" points="2456.1 806.81 2531.15 673.36 2505.96 674.15 2430.91 807.61 2456.1 806.81"/>
  </g>
  <g className="st79">
    <path className="st0" d="M97.49,1179.72c.91-25.78-19.32-47.49-45.1-48.4-25.78-.91-47.49,19.32-48.4,45.1-.91,25.78,19.32,47.49,45.11,48.4,25.78.91,47.49-19.33,48.4-45.11ZM29.48,1177.32c.41-11.72,10.28-20.91,22-20.5,11.72.41,20.92,10.28,20.5,22-.41,11.72-10.28,20.92-22,20.5s-20.92-10.28-20.5-22Z"/>
    <path className="st0" d="M171.89,1188.49c-25.78-.91-47.49,19.32-48.4,45.1-.91,25.78,19.33,47.49,45.11,48.4,25.78.91,47.49-19.33,48.4-45.11.91-25.78-19.32-47.49-45.1-48.4ZM169.49,1256.5c-11.72-.41-20.92-10.28-20.5-22,.41-11.72,10.28-20.91,22-20.5,11.72.41,20.92,10.28,20.5,22-.41,11.72-10.28,20.92-22,20.5Z"/>
    <polygon className="st0" points="74.48 1284.83 173.61 1133.23 143.81 1132.18 44.68 1283.78 74.48 1284.83"/>
  </g>
  <g className="st71">
    <path className="st0" d="M2174.83,83.84c-3.07-11.63-15.03-18.6-26.66-15.53-11.63,3.07-18.6,15.03-15.53,26.66,3.07,11.63,15.03,18.6,26.66,15.53,11.63-3.07,18.6-15.03,15.53-26.66ZM2144.15,91.93c-1.39-5.29,1.77-10.72,7.06-12.12,5.29-1.39,10.72,1.77,12.12,7.06,1.39,5.29-1.77,10.72-7.06,12.12-5.29,1.39-10.72-1.77-12.12-7.06Z"/>
    <path className="st0" d="M2209.22,77.73c-11.63,3.07-18.6,15.03-15.53,26.66,3.07,11.63,15.03,18.6,26.66,15.53,11.63-3.07,18.6-15.03,15.53-26.66-3.07-11.63-15.03-18.6-26.66-15.53ZM2217.31,108.41c-5.29,1.39-10.72-1.77-12.12-7.06-1.39-5.29,1.77-10.72,7.06-12.12,5.29-1.39,10.72,1.77,12.12,7.06,1.39,5.29-1.77,10.72-7.06,12.12Z"/>
    <polygon className="st0" points="2178.72 133.86 2202.54 52.83 2189.1 56.38 2165.28 137.41 2178.72 133.86"/>
  </g>
  <g className="st54">
    <path className="st0" d="M2291.64,619.53c1.13-13.79-9.17-25.92-22.96-27.05-13.79-1.13-25.92,9.17-27.05,22.96-1.13,13.79,9.17,25.92,22.96,27.05,13.79,1.13,25.92-9.17,27.05-22.96ZM2255.27,616.55c.51-6.27,6.03-10.95,12.3-10.43,6.27.51,10.95,6.03,10.43,12.3-.51,6.27-6.03,10.95-12.3,10.44-6.27-.51-10.95-6.03-10.44-12.3Z"/>
    <path className="st0" d="M2331.28,626.08c-13.79-1.13-25.92,9.17-27.05,22.96-1.13,13.79,9.17,25.92,22.96,27.05,13.79,1.13,25.92-9.17,27.05-22.96,1.13-13.79-9.17-25.92-22.96-27.05ZM2328.3,662.45c-6.27-.51-10.95-6.03-10.44-12.3.51-6.27,6.03-10.95,12.3-10.44,6.27.51,10.95,6.03,10.43,12.3-.51,6.27-6.03,10.95-12.3,10.44Z"/>
    <polygon className="st0" points="2276.7 675.26 2333.58 596.52 2317.64 595.22 2260.76 673.96 2276.7 675.26"/>
  </g>
  <g className="st20">
    <path className="st0" d="M859.29,1145.69c-3.35-12.79-16.48-20.48-29.27-17.13-12.79,3.35-20.48,16.48-17.14,29.27,3.35,12.79,16.48,20.48,29.27,17.13,12.79-3.35,20.48-16.48,17.13-29.27ZM825.53,1154.52c-1.52-5.82,1.97-11.78,7.79-13.31,5.82-1.52,11.78,1.97,13.31,7.79,1.52,5.82-1.97,11.79-7.79,13.31-5.82,1.52-11.79-1.97-13.31-7.79Z"/>
    <path className="st0" d="M897.12,1139.05c-12.79,3.35-20.48,16.48-17.14,29.27,3.35,12.79,16.48,20.48,29.27,17.13,12.79-3.35,20.48-16.48,17.13-29.27-3.35-12.79-16.48-20.48-29.27-17.13ZM905.94,1172.81c-5.82,1.52-11.79-1.97-13.31-7.79-1.52-5.82,1.97-11.78,7.79-13.31,5.82-1.52,11.78,1.97,13.31,7.79,1.52,5.82-1.97,11.78-7.79,13.31Z"/>
    <polygon className="st0" points="863.45 1200.7 889.83 1111.66 875.04 1115.53 848.66 1204.57 863.45 1200.7"/>
  </g>
  <g className="st75">
    <path className="st0" d="M1623.18,323.7c-1.65-13.73-14.17-23.55-27.89-21.9-13.73,1.65-23.56,14.16-21.9,27.89,1.65,13.73,14.17,23.55,27.89,21.9,13.73-1.65,23.55-14.17,21.9-27.89ZM1586.97,328.06c-.75-6.24,3.72-11.93,9.96-12.68,6.24-.75,11.93,3.72,12.68,9.96.75,6.24-3.72,11.93-9.96,12.68-6.24.75-11.93-3.71-12.68-9.96Z"/>
    <path className="st0" d="M1663.31,322.19c-13.73,1.65-23.56,14.16-21.9,27.89,1.65,13.73,14.17,23.55,27.89,21.9,13.73-1.65,23.56-14.17,21.9-27.9-1.65-13.73-14.17-23.55-27.89-21.9ZM1667.67,358.41c-6.24.75-11.93-3.71-12.68-9.96-.75-6.24,3.72-11.93,9.96-12.68,6.24-.75,11.93,3.72,12.68,9.96.75,6.24-3.72,11.93-9.96,12.68Z"/>
    <polygon className="st0" points="1619.7 381.27 1659.65 292.78 1643.78 294.69 1603.83 383.18 1619.7 381.27"/>
  </g>
  <g className="st14">
    <path className="st0" d="M128.25,498.06c1.27-21.53-15.21-40.07-36.74-41.34-21.53-1.27-40.08,15.21-41.34,36.74-1.27,21.53,15.21,40.08,36.74,41.35,21.53,1.27,40.07-15.21,41.34-36.74ZM71.47,494.71c.58-9.78,9.01-17.28,18.79-16.7,9.79.58,17.28,9.01,16.7,18.79-.58,9.79-9.01,17.28-18.79,16.7-9.79-.58-17.28-9.01-16.7-18.79Z"/>
    <path className="st0" d="M190.26,506.86c-21.53-1.27-40.08,15.21-41.34,36.74-1.27,21.53,15.21,40.08,36.74,41.34,21.53,1.27,40.07-15.21,41.34-36.74,1.27-21.53-15.21-40.07-36.74-41.34ZM186.91,563.65c-9.79-.58-17.28-9.01-16.7-18.79.58-9.78,9.01-17.28,18.79-16.7,9.79.58,17.28,9.01,16.7,18.79-.58,9.79-9.01,17.28-18.79,16.7Z"/>
    <polygon className="st0" points="106.95 585.45 192.79 460.7 167.91 459.24 82.06 583.98 106.95 585.45"/>
  </g>
  <g className="st41">
    <path className="st0" d="M1497.31,122.29c1.56-12.84-7.62-24.55-20.46-26.11-12.84-1.56-24.55,7.62-26.11,20.46-1.56,12.84,7.62,24.55,20.46,26.11,12.84,1.56,24.55-7.62,26.11-20.46ZM1463.44,118.18c.71-5.84,6.03-10.01,11.87-9.3,5.84.71,10.01,6.03,9.3,11.87-.71,5.84-6.03,10.01-11.87,9.3-5.84-.71-10.01-6.03-9.3-11.87Z"/>
    <path className="st0" d="M1534.1,129.86c-12.84-1.56-24.55,7.62-26.11,20.46-1.56,12.84,7.62,24.55,20.46,26.11,12.84,1.56,24.55-7.62,26.11-20.46,1.56-12.84-7.62-24.55-20.46-26.11ZM1529.99,163.72c-5.84-.71-10.01-6.03-9.3-11.87.71-5.84,6.03-10.01,11.87-9.3,5.84.71,10.01,6.03,9.3,11.87-.71,5.84-6.03,10.01-11.87,9.3Z"/>
    <polygon className="st0" points="1481.32 173.81 1537.33 102.32 1522.49 100.52 1466.48 172.01 1481.32 173.81"/>
  </g>
  <g className="st87">
    <path className="st0" d="M2483.88,1133.55c2.65-11.35-4.44-22.74-15.79-25.39-11.35-2.65-22.74,4.44-25.39,15.79-2.65,11.35,4.44,22.75,15.79,25.39,11.35,2.65,22.74-4.44,25.39-15.79ZM2453.93,1126.57c1.2-5.16,6.38-8.38,11.54-7.18,5.16,1.2,8.38,6.38,7.18,11.54-1.2,5.16-6.38,8.38-11.54,7.18-5.16-1.2-8.38-6.38-7.18-11.54Z"/>
    <path className="st0" d="M2516.11,1143.91c-11.35-2.65-22.74,4.44-25.39,15.79-2.65,11.35,4.44,22.74,15.79,25.39,11.35,2.65,22.74-4.44,25.39-15.79,2.65-11.35-4.44-22.74-15.79-25.39ZM2509.13,1173.87c-5.16-1.2-8.38-6.38-7.18-11.54,1.2-5.16,6.38-8.38,11.54-7.18,5.16,1.2,8.38,6.38,7.18,11.54-1.2,5.16-6.38,8.38-11.54,7.18Z"/>
    <polygon className="st0" points="2464.53 1178.16 2521.68 1119.56 2508.56 1116.5 2451.4 1175.1 2464.53 1178.16"/>
  </g>
  <g className="st83">
    <path className="st0" d="M2247.52,1604.75c7.23-22.21-4.95-46.15-27.16-53.39-22.21-7.23-46.15,4.95-53.39,27.16-7.23,22.21,4.95,46.16,27.16,53.39,22.21,7.23,46.15-4.95,53.39-27.16ZM2188.94,1585.68c3.29-10.09,14.17-15.63,24.27-12.34,10.09,3.29,15.63,14.17,12.34,24.27-3.29,10.09-14.17,15.63-24.27,12.35-10.09-3.29-15.63-14.17-12.35-24.27Z"/>
    <path className="st0" d="M2310.07,1630.97c-22.21-7.23-46.15,4.95-53.39,27.16-7.23,22.21,4.95,46.16,27.16,53.39,22.21,7.23,46.16-4.95,53.39-27.16,7.23-22.21-4.95-46.15-27.16-53.38ZM2290.99,1689.55c-10.09-3.29-15.63-14.17-12.35-24.27,3.29-10.09,14.17-15.63,24.27-12.34,10.09,3.29,15.63,14.17,12.34,24.27-3.29,10.09-14.17,15.63-24.27,12.35Z"/>
    <polygon className="st0" points="2201.24 1690.47 2325.37 1583.31 2299.7 1574.95 2175.58 1682.11 2201.24 1690.47"/>
  </g>
</svg>