              <svg
                width="140px"
                height="150px"
                fill="none"
                xmlns="http://www.w3.org/2000/svg"
              >
                <path
                  d="M63.9178 136.219C98.9834 135.787 127.314 127.293 127.197 117.245C127.079 107.198 98.5575 99.4029 63.4919 99.8342C28.4263 100.266 0.0953482 108.76 0.212966 118.807C0.330584 128.855 28.8522 136.65 63.9178 136.219Z"
                  fill="#dc262610"
                ></path>
                <path
                  fill-rule="evenodd"
                  clip-rule="evenodd"
                  d="M75.7754 55.3057V88.2533L88.7446 74.9589L106.68 68.5046C86.0756 59.7067 75.7741 55.307 75.7754 55.3057Z"
                  fill="white"
                  stroke="#dc2626"
                  stroke-width="2"
                ></path>
                <path
                  fill-rule="evenodd"
                  clip-rule="evenodd"
                  d="M75.7754 55.3057V88.2533L88.7446 74.9589L106.68 68.5046C86.0756 59.7067 75.7741 55.307 75.7754 55.3057Z"
                  fill="#dc262650"
                ></path>
                <path
                  fill-rule="evenodd"
                  clip-rule="evenodd"
                  d="M75.7806 88.2533V55.3057L41.6035 67.9482L59.4319 74.9589L69.5822 94.6121L75.7806 88.2533Z"
                  fill="white"
                  stroke="#dc2626"
                  stroke-width="2"
                ></path>
                <path
                  fill-rule="evenodd"
                  clip-rule="evenodd"
                  d="M75.7806 88.2533V55.3057L41.6035 67.9482L59.4319 74.9589L69.5822 94.6121L75.7806 88.2533Z"
                  fill="#dc262650"
                ></path>
                <path
                  fill-rule="evenodd"
                  clip-rule="evenodd"
                  d="M21.0781 111.374V75.5342L69.5724 94.6097L123.142 75.5342V111.374L69.0088 130.45L21.0781 111.374Z"
                  fill="white"
                  stroke="#dc2626"
                  stroke-width="2"
                  stroke-miterlimit="2.613"
                ></path>
                <path
                  fill-rule="evenodd"
                  clip-rule="evenodd"
                  d="M75.7768 55.3061L21.0793 75.5371L4.16211 61.665L58.2951 42.0117L75.7768 55.3061Z"
                  fill="white"
                  stroke="#dc2626"
                  stroke-width="2"
                  stroke-miterlimit="2.613"
                ></path>
                <path
                  fill-rule="evenodd"
                  clip-rule="evenodd"
                  d="M21.078 75.5361L69.5723 94.6116L59.421 74.9584L10.9277 55.8828L21.078 75.5361Z"
                  fill="white"
                  stroke="#dc2626"
                  stroke-width="2"
                  stroke-miterlimit="2.613"
                ></path>
                <path
                  fill-rule="evenodd"
                  clip-rule="evenodd"
                  d="M123.141 75.5354L75.7754 55.3044L96.6346 43.7441L144.001 62.8197L123.141 75.5354Z"
                  fill="white"
                  stroke="#dc2626"
                  stroke-width="2"
                  stroke-miterlimit="2.613"
                ></path>
                <path
                  d="M75.7754 55.3066V88.2715"
                  stroke="#dc2626"
                  stroke-width="2"
                  stroke-miterlimit="2.613"
                ></path>
                <path
                  d="M69.5714 94.6113C69.195 118.505 69.0072 130.452 69.0078 130.452"
                  stroke="#dc2626"
                  stroke-width="2"
                  stroke-miterlimit="2.613"
                ></path>
                <path
                  fill-rule="evenodd"
                  clip-rule="evenodd"
                  d="M123.142 75.5363L69.5723 94.6067L88.7447 74.9535L141.751 55.8779L123.142 75.5363Z"
                  fill="white"
                  stroke="#dc2626"
                  stroke-width="2"
                  stroke-miterlimit="2.613"
                ></path>
                <path
                  d="M38.2683 96.1574C37.6879 98.0164 35.7277 98.9921 33.4516 98.5515C32.326 98.3311 31.2732 97.8219 30.3915 97.0714C29.5099 96.3209 28.8282 95.3535 28.4102 94.2598"
                  stroke="#dc2626"
                  stroke-width="2"
                  stroke-miterlimit="2.613"
                ></path>
                <path
                  d="M57.5134 102.594C56.933 104.453 54.9729 105.429 52.6968 104.988C51.5706 104.767 50.5173 104.258 49.6352 103.507C48.753 102.756 48.0709 101.789 47.6523 100.694"
                  stroke="#dc2626"
                  stroke-width="2"
                  stroke-miterlimit="2.613"
                ></path>
                <path
                  d="M34.3322 35.6531C34.7993 35.6531 35.178 35.2649 35.178 34.786C35.178 34.3071 34.7993 33.9189 34.3322 33.9189C33.865 33.9189 33.4863 34.3071 33.4863 34.786C33.4863 35.2649 33.865 35.6531 34.3322 35.6531Z"
                  stroke="#dc2626"
                  stroke-width="2"
                  stroke-miterlimit="2.613"
                ></path>
                <path
                  fill-rule="evenodd"
                  clip-rule="evenodd"
                  d="M54.6283 5.047C55.1513 5.04513 55.6523 4.83134 56.0221 4.45226C56.3919 4.07319 56.6005 3.55959 56.6023 3.0235C56.6005 2.48741 56.3919 1.97381 56.0221 1.59473C55.6523 1.21566 55.1513 1.00187 54.6283 1C54.1053 1.00187 53.6043 1.21566 53.2345 1.59473C52.8647 1.97381 52.6561 2.48741 52.6543 3.0235C52.6561 3.55959 52.8647 4.07319 53.2345 4.45226C53.6043 4.83134 54.1053 5.04513 54.6283 5.047Z"
                  stroke="#dc2626"
                  stroke-width="2"
                  stroke-miterlimit="2.613"
                ></path>
                <path
                  d="M65.9084 24.0906C66.3755 24.0906 66.7542 23.7024 66.7542 23.2235C66.7542 22.7446 66.3755 22.3564 65.9084 22.3564C65.4412 22.3564 65.0625 22.7446 65.0625 23.2235C65.0625 23.7024 65.4412 24.0906 65.9084 24.0906Z"
                  stroke="#dc2626"
                  stroke-width="2"
                  stroke-miterlimit="2.613"
                ></path>
                <path
                  d="M93.5392 17.7332C94.0064 17.7332 94.3851 17.345 94.3851 16.8661C94.3851 16.3872 94.0064 15.999 93.5392 15.999C93.0721 15.999 92.6934 16.3872 92.6934 16.8661C92.6934 17.345 93.0721 17.7332 93.5392 17.7332Z"
                  stroke="#dc2626"
                  stroke-width="2"
                  stroke-miterlimit="2.613"
                ></path>
                <path
                  d="M133.294 34.4955C133.917 34.4955 134.422 33.9777 134.422 33.339C134.422 32.7004 133.917 32.1826 133.294 32.1826C132.671 32.1826 132.166 32.7004 132.166 33.339C132.166 33.9777 132.671 34.4955 133.294 34.4955Z"
                  stroke="#dc2626"
                  stroke-width="2"
                  stroke-miterlimit="2.613"
                ></path>
                <path
                  fill-rule="evenodd"
                  clip-rule="evenodd"
                  d="M80.8492 45.4794C81.5966 45.478 82.3131 45.1731 82.8417 44.6313C83.3702 44.0895 83.6677 43.355 83.669 42.5888C83.6677 41.8226 83.3702 41.0882 82.8417 40.5464C82.3131 40.0046 81.5966 39.6996 80.8492 39.6982C80.102 39.6996 79.3858 40.0043 78.8574 40.5456C78.3289 41.087 78.0311 41.8209 78.0293 42.5868C78.0301 43.3534 78.3274 44.0883 78.856 44.6306C79.3846 45.1728 80.1013 45.478 80.8492 45.4794V45.4794Z"
                  stroke="#dc2626"
                  stroke-width="2"
                  stroke-miterlimit="2.613"
                ></path>
              </svg>