<svg width="717" height="70" viewBox="0 0 717 70" fill="none" xmlns="http://www.w3.org/2000/svg">
<path d="M675.014 42.9288C658.082 60.2413 634.888 70 610.672 70H1C0.447693 70 0 69.5523 0 69V0H700.362C706.561 0 709.701 7.46275 705.367 11.8945L675.014 42.9288Z" fill="#171717"/>
<path d="M586.862 38.0625C569.761 58.3153 544.603 70 518.096 70H1C0.447693 70 0 69.5523 0 69V0H616.847C617.698 0 618.16 0.995018 617.611 1.64514L586.862 38.0625Z" fill="#D10C16"/>
<path d="M152.151 35.114C152.486 35.114 152.743 35.2073 152.921 35.394C153.103 35.5806 153.194 35.814 153.194 36.094C153.194 36.374 153.103 36.6052 152.921 36.7876C152.743 36.97 152.486 37.0612 152.151 37.0612C151.841 37.0612 151.593 36.9721 151.406 36.794C151.219 36.6115 151.126 36.3782 151.126 36.094C151.126 35.814 151.215 35.5806 151.393 35.394C151.576 35.2073 151.828 35.114 152.151 35.114ZM160.121 31.353C160.549 31.353 160.927 31.4337 161.254 31.5949C161.58 31.7518 161.854 31.9661 162.075 32.2376C162.299 32.5091 162.469 32.8252 162.584 33.1858C162.698 33.5464 162.755 33.9261 162.755 34.3249C162.755 34.38 162.755 34.4352 162.755 34.4903C162.755 34.5412 162.753 34.59 162.749 34.6367C162.758 34.8106 162.804 34.9527 162.889 35.063C162.974 35.1733 163.071 35.2603 163.182 35.324C163.292 35.3876 163.402 35.4321 163.513 35.4576C163.623 35.483 163.708 35.4958 163.767 35.4958H163.945V37.0803H163.767C163.381 37.0803 163.055 37.04 162.787 36.9594C162.524 36.8746 162.304 36.7367 162.125 36.5458C162.002 36.69 161.871 36.8046 161.731 36.8894C161.595 36.9743 161.457 37.0379 161.317 37.0803C161.181 37.127 161.052 37.1567 160.929 37.1694C160.806 37.1864 160.698 37.1949 160.605 37.1949C160.426 37.1949 160.223 37.1609 159.994 37.093C159.769 37.0252 159.527 36.9361 159.268 36.8258C159.014 36.7155 158.744 36.5882 158.46 36.444C158.18 36.2997 157.898 36.1533 157.614 36.0049C157.508 35.9497 157.408 35.8988 157.315 35.8521C157.225 35.8055 157.136 35.7609 157.047 35.7185C156.962 35.6718 156.875 35.6273 156.786 35.5849C156.697 35.5382 156.602 35.4915 156.5 35.4449C156.5 36.4037 156.502 37.3603 156.506 38.3149C156.511 39.2737 156.513 40.2303 156.513 41.1849H154.979L154.973 34.5921L156.462 33.6885L157.493 34.204C157.565 33.8349 157.66 33.4785 157.779 33.1349C157.898 32.787 158.057 32.4794 158.256 32.2121C158.456 31.9449 158.706 31.7327 159.007 31.5758C159.291 31.4273 159.639 31.353 160.051 31.353H160.121ZM160.605 35.6167C160.643 35.6167 160.7 35.6146 160.776 35.6103C160.857 35.6018 160.938 35.5594 161.018 35.483C161.103 35.4067 161.175 35.2794 161.235 35.1012C161.298 34.923 161.33 34.6643 161.33 34.3249C161.33 34.2867 161.324 34.2252 161.311 34.1403C161.302 34.0555 161.281 33.9621 161.247 33.8603C161.218 33.7543 161.175 33.6482 161.12 33.5421C161.065 33.4318 160.993 33.3321 160.904 33.243C160.815 33.154 160.708 33.0818 160.585 33.0267C160.462 32.9673 160.316 32.9376 160.146 32.9376C160.07 32.9376 159.991 32.9418 159.911 32.9503C159.83 32.9588 159.748 32.9843 159.663 33.0267C159.582 33.0649 159.501 33.1264 159.421 33.2112C159.34 33.2918 159.262 33.4043 159.185 33.5485C159.113 33.6927 159.043 33.8752 158.975 34.0958C158.912 34.3164 158.855 34.5858 158.804 34.904C158.969 34.993 159.139 35.08 159.313 35.1649C159.487 35.2497 159.652 35.3261 159.809 35.394C159.97 35.4618 160.119 35.517 160.255 35.5594C160.395 35.5976 160.511 35.6167 160.605 35.6167ZM166.47 35.4958C166.554 35.4958 166.618 35.5191 166.66 35.5658C166.707 35.6082 166.73 35.6655 166.73 35.7376V36.8258C166.73 36.9191 166.707 36.9849 166.66 37.023C166.618 37.0612 166.554 37.0803 166.47 37.0803H163.81C163.716 37.0803 163.65 37.0612 163.612 37.023C163.574 36.9849 163.555 36.9191 163.555 36.8258V35.7376C163.555 35.6655 163.574 35.6082 163.612 35.5658C163.65 35.5191 163.716 35.4958 163.81 35.4958H166.47ZM169.108 35.4958C169.193 35.4958 169.257 35.5191 169.299 35.5658C169.346 35.6082 169.369 35.6655 169.369 35.7376V36.8258C169.369 36.9191 169.346 36.9849 169.299 37.023C169.257 37.0612 169.193 37.0803 169.108 37.0803H166.448C166.355 37.0803 166.289 37.0612 166.251 37.023C166.213 36.9849 166.194 36.9191 166.194 36.8258V35.7376C166.194 35.6655 166.213 35.6082 166.251 35.5658C166.289 35.5191 166.355 35.4958 166.448 35.4958H169.108ZM171.747 35.4958C171.832 35.4958 171.895 35.5191 171.938 35.5658C171.984 35.6082 172.008 35.6655 172.008 35.7376V36.8258C172.008 36.9191 171.984 36.9849 171.938 37.023C171.895 37.0612 171.832 37.0803 171.747 37.0803H169.087C168.994 37.0803 168.928 37.0612 168.89 37.023C168.851 36.9849 168.832 36.9191 168.832 36.8258V35.7376C168.832 35.6655 168.851 35.6082 168.89 35.5658C168.928 35.5191 168.994 35.4958 169.087 35.4958H171.747ZM178.446 35.4958V37.0803H177.504C177.143 37.0803 176.814 37.0315 176.517 36.934C176.22 36.8364 175.97 36.6921 175.766 36.5012C175.529 36.7006 175.247 36.847 174.92 36.9403C174.598 37.0337 174.229 37.0803 173.813 37.0803H171.611V35.4958H173.813C174.072 35.4958 174.277 35.4724 174.43 35.4258C174.587 35.3749 174.704 35.3133 174.78 35.2412C174.861 35.1691 174.912 35.0885 174.933 34.9994C174.958 34.9103 174.971 34.8233 174.971 34.7385V32.6767H176.549V34.694C176.549 34.8849 176.592 35.0355 176.676 35.1458C176.761 35.2518 176.857 35.3324 176.963 35.3876C177.073 35.4385 177.181 35.4703 177.287 35.483C177.393 35.4915 177.466 35.4958 177.504 35.4958H178.446ZM175.9 40.5803L174.831 39.4985L175.887 38.404L176.982 39.4985L175.9 40.5803ZM173.234 40.5867L172.165 39.5049L173.215 38.4103L174.309 39.5049L173.234 40.5867ZM185.022 35.4958V37.0803H184.08C183.719 37.0803 183.391 37.0315 183.094 36.934C182.797 36.8364 182.546 36.6921 182.343 36.5012C182.105 36.7006 181.823 36.847 181.496 36.9403C181.174 37.0337 180.805 37.0803 180.389 37.0803H178.187V35.4958H180.389C180.648 35.4958 180.854 35.4724 181.006 35.4258C181.163 35.3749 181.28 35.3133 181.356 35.2412C181.437 35.1691 181.488 35.0885 181.509 34.9994C181.534 34.9103 181.547 34.8233 181.547 34.7385V32.6767H183.125V34.694C183.125 34.8849 183.168 35.0355 183.253 35.1458C183.337 35.2518 183.433 35.3324 183.539 35.3876C183.649 35.4385 183.757 35.4703 183.864 35.483C183.97 35.4915 184.042 35.4958 184.08 35.4958H185.022ZM182.864 31.0349L181.795 29.953L182.852 28.8585L183.946 29.953L182.864 31.0349ZM180.198 31.0412L179.129 29.9594L180.179 28.8649L181.274 29.9594L180.198 31.0412ZM184.763 35.4958H185.584C185.835 35.4958 186.036 35.4746 186.189 35.4321C186.346 35.3897 186.467 35.3282 186.552 35.2476C186.641 35.1627 186.7 35.0609 186.73 34.9421C186.759 34.8233 186.774 34.6876 186.774 34.5349V32.683H188.359V34.503C188.359 34.8467 188.442 35.097 188.607 35.254C188.772 35.4109 189.033 35.4915 189.39 35.4958C189.453 35.4915 189.53 35.4788 189.619 35.4576C189.712 35.4364 189.801 35.394 189.886 35.3303C189.975 35.2624 190.049 35.167 190.109 35.044C190.172 34.9167 190.204 34.747 190.204 34.5349V32.683H191.782V34.503C191.782 34.8509 191.865 35.1033 192.031 35.2603C192.196 35.4173 192.465 35.4958 192.839 35.4958C192.941 35.4958 193.04 35.4809 193.138 35.4512C193.24 35.4173 193.331 35.3643 193.412 35.2921C193.492 35.2158 193.558 35.1182 193.609 34.9994C193.66 34.8806 193.689 34.7343 193.698 34.5603V32.683H195.282V34.5667C195.291 34.8933 195.391 35.1309 195.582 35.2794C195.772 35.4237 196.065 35.4958 196.46 35.4958H197.083V37.0803H196.46C196.023 37.0803 195.643 37.0337 195.321 36.9403C194.998 36.8427 194.72 36.6858 194.487 36.4694C194.271 36.6688 194.016 36.8215 193.723 36.9276C193.435 37.0294 193.14 37.0803 192.839 37.0803C192.44 37.0803 192.09 37.0315 191.789 36.934C191.492 36.8364 191.227 36.6794 190.993 36.463C190.773 36.6582 190.525 36.8088 190.249 36.9149C189.977 37.0209 189.702 37.0761 189.422 37.0803H189.377C188.995 37.0803 188.656 37.0294 188.359 36.9276C188.062 36.8215 187.803 36.6752 187.582 36.4885C187.086 36.883 186.42 37.0803 185.584 37.0803H184.763V35.4958ZM199.61 35.4958C199.695 35.4958 199.759 35.5191 199.801 35.5658C199.848 35.6082 199.871 35.6655 199.871 35.7376V36.8258C199.871 36.9191 199.848 36.9849 199.801 37.023C199.759 37.0612 199.695 37.0803 199.61 37.0803H196.95C196.857 37.0803 196.791 37.0612 196.753 37.023C196.715 36.9849 196.696 36.9191 196.696 36.8258V35.7376C196.696 35.6655 196.715 35.6082 196.753 35.5658C196.791 35.5191 196.857 35.4958 196.95 35.4958H199.61ZM205.653 30.1249C205.929 30.4897 206.209 30.8588 206.493 31.2321C206.612 31.3933 206.737 31.5609 206.869 31.7349C207.005 31.9088 207.14 32.087 207.276 32.2694C207.416 32.4476 207.552 32.6258 207.683 32.804C207.815 32.9821 207.942 33.1518 208.065 33.313C208.328 33.6652 208.5 34.0491 208.581 34.4649C208.606 34.6133 208.619 34.7618 208.619 34.9103C208.619 35.1776 208.574 35.4449 208.485 35.7121C208.4 35.9667 208.275 36.2 208.11 36.4121C207.949 36.6243 207.751 36.8067 207.518 36.9594C207.285 37.1121 207.017 37.2309 206.716 37.3158C206.415 37.4006 206.084 37.443 205.723 37.443C205.418 37.443 205.102 37.4112 204.775 37.3476C204.449 37.2882 204.116 37.1737 203.776 37.004C203.7 36.97 203.626 36.9361 203.553 36.9021C203.49 36.8724 203.424 36.8427 203.356 36.813C203.288 36.7791 203.231 36.7494 203.184 36.724C202.777 36.847 202.325 36.9361 201.829 36.9912C201.337 37.0506 200.792 37.0803 200.193 37.0803H199.474V35.4958H200.193C200.312 35.4958 200.416 35.4979 200.505 35.5021C200.599 35.5021 200.688 35.5021 200.772 35.5021C200.853 35.5021 200.934 35.5 201.014 35.4958C201.099 35.4915 201.192 35.483 201.294 35.4703C201.184 35.343 201.084 35.22 200.995 35.1012C200.91 34.9782 200.836 34.8509 200.772 34.7194C200.713 34.5837 200.666 34.4415 200.632 34.293C200.603 34.1403 200.588 33.9727 200.588 33.7903C200.588 33.4424 200.654 33.1221 200.785 32.8294C200.921 32.5367 201.106 32.2864 201.339 32.0785C201.576 31.8706 201.852 31.7094 202.166 31.5949C202.484 31.4761 202.826 31.4167 203.191 31.4167C203.602 31.4167 203.967 31.4994 204.285 31.6649C204.608 31.8261 204.877 32.0318 205.093 32.2821C205.314 32.5282 205.479 32.7955 205.59 33.084C205.704 33.3724 205.762 33.6418 205.762 33.8921C205.762 34.0958 205.74 34.2824 205.698 34.4521C205.66 34.6218 205.605 34.783 205.532 34.9358C205.46 35.0843 205.371 35.2264 205.265 35.3621C205.159 35.4979 205.04 35.6315 204.909 35.763C205.04 35.8055 205.176 35.8458 205.316 35.884C205.456 35.9179 205.592 35.9349 205.723 35.9349C205.855 35.9349 205.993 35.9264 206.137 35.9094C206.281 35.8882 206.417 35.85 206.544 35.7949C206.676 35.7355 206.79 35.6549 206.888 35.553C206.99 35.4512 207.066 35.3176 207.117 35.1521C207.134 35.0927 207.142 35.0312 207.142 34.9676C207.142 34.853 207.109 34.7067 207.041 34.5285C206.973 34.3503 206.848 34.1233 206.665 33.8476C206.487 33.5718 206.264 33.2685 205.997 32.9376C205.73 32.6024 205.437 32.2376 205.119 31.843L204.457 31.0221L205.653 30.1249ZM202.09 33.7903C202.09 33.9473 202.113 34.0873 202.16 34.2103C202.211 34.3291 202.285 34.4394 202.382 34.5412C202.484 34.643 202.607 34.7427 202.752 34.8403C202.9 34.9337 203.072 35.0333 203.267 35.1394C203.399 35.0758 203.526 35.0037 203.649 34.923C203.772 34.8424 203.878 34.7533 203.967 34.6558C204.06 34.554 204.135 34.4415 204.19 34.3185C204.245 34.1955 204.272 34.0597 204.272 33.9112C204.272 33.733 204.234 33.5761 204.158 33.4403C204.082 33.3046 203.988 33.1921 203.878 33.103C203.768 33.014 203.649 32.9482 203.522 32.9058C203.399 32.8633 203.288 32.8421 203.191 32.8421C203.046 32.8421 202.906 32.8676 202.771 32.9185C202.639 32.9694 202.522 33.0394 202.421 33.1285C202.319 33.2133 202.238 33.313 202.179 33.4276C202.119 33.5421 202.09 33.663 202.09 33.7903ZM217.817 37.0803C217.35 37.0803 216.949 37.0506 216.614 36.9912C216.279 36.9361 215.997 36.8533 215.768 36.743C215.539 36.6285 215.354 36.4843 215.214 36.3103C215.078 36.1364 214.974 35.9327 214.902 35.6994C214.83 35.4661 214.781 35.203 214.756 34.9103C214.735 34.6133 214.724 34.2867 214.724 33.9303V27.904H216.309V33.9303C216.309 34.2697 216.319 34.5412 216.341 34.7449C216.366 34.9485 216.427 35.1076 216.525 35.2221C216.627 35.3324 216.777 35.4067 216.977 35.4449C217.181 35.4788 217.461 35.4958 217.817 35.4958V37.0803ZM220.337 35.4958C220.422 35.4958 220.485 35.5191 220.528 35.5658C220.574 35.6082 220.598 35.6655 220.598 35.7376V36.8258C220.598 36.9191 220.574 36.9849 220.528 37.023C220.485 37.0612 220.422 37.0803 220.337 37.0803H217.677C217.583 37.0803 217.518 37.0612 217.479 37.023C217.441 36.9849 217.422 36.9191 217.422 36.8258V35.7376C217.422 35.6655 217.441 35.6082 217.479 35.5658C217.518 35.5191 217.583 35.4958 217.677 35.4958H220.337ZM222.975 35.4958C223.06 35.4958 223.124 35.5191 223.166 35.5658C223.213 35.6082 223.236 35.6655 223.236 35.7376V36.8258C223.236 36.9191 223.213 36.9849 223.166 37.023C223.124 37.0612 223.06 37.0803 222.975 37.0803H220.315C220.222 37.0803 220.156 37.0612 220.118 37.023C220.08 36.9849 220.061 36.9191 220.061 36.8258V35.7376C220.061 35.6655 220.08 35.6082 220.118 35.5658C220.156 35.5191 220.222 35.4958 220.315 35.4958H222.975ZM227.574 35.8776C227.612 35.8776 227.672 35.8712 227.752 35.8585C227.837 35.8415 227.922 35.7949 228.007 35.7185C228.092 35.6421 228.166 35.5255 228.23 35.3685C228.297 35.2073 228.331 34.9824 228.331 34.694C228.331 34.5837 228.31 34.4437 228.268 34.274C228.23 34.1 228.16 33.9324 228.058 33.7712C227.96 33.6058 227.826 33.4658 227.657 33.3512C227.491 33.2324 227.281 33.173 227.027 33.173C226.806 33.173 226.626 33.2388 226.486 33.3703C226.346 33.5018 226.227 33.6652 226.13 33.8603C226.036 34.0555 225.956 34.2676 225.888 34.4967C225.824 34.7215 225.754 34.9273 225.678 35.114C225.835 35.203 226 35.2943 226.174 35.3876C226.352 35.4767 226.526 35.5573 226.696 35.6294C226.866 35.7015 227.025 35.7609 227.173 35.8076C227.326 35.8543 227.46 35.8776 227.574 35.8776ZM227.027 31.5949C227.464 31.5949 227.843 31.6733 228.166 31.8303C228.493 31.9873 228.766 32.1994 228.987 32.4667C229.207 32.734 229.373 33.0437 229.483 33.3958C229.598 33.7479 229.659 34.117 229.668 34.503C229.668 34.7406 229.714 34.9273 229.808 35.063C229.901 35.1946 230.007 35.2921 230.126 35.3558C230.245 35.4194 230.361 35.4597 230.476 35.4767C230.59 35.4894 230.669 35.4958 230.711 35.4958H230.89V37.0803H230.711C230.41 37.0803 230.132 37.0379 229.878 36.953C229.627 36.864 229.398 36.7515 229.19 36.6158C229.063 36.794 228.923 36.934 228.77 37.0358C228.618 37.1418 228.465 37.2203 228.312 37.2712C228.16 37.3221 228.013 37.354 227.873 37.3667C227.733 37.3794 227.612 37.3858 227.51 37.3858C227.298 37.3858 227.097 37.3646 226.906 37.3221C226.715 37.284 226.52 37.2267 226.32 37.1503C226.125 37.0782 225.922 36.9891 225.71 36.883C225.497 36.7727 225.266 36.6497 225.016 36.514C224.825 36.7176 224.619 36.864 224.399 36.953C224.182 37.0379 223.928 37.0803 223.635 37.0803H222.852L222.84 35.4958H223.635C223.728 35.4958 223.809 35.4682 223.877 35.413C223.949 35.3579 224.013 35.2815 224.068 35.184C224.127 35.0821 224.18 34.9612 224.227 34.8212C224.278 34.677 224.329 34.5179 224.38 34.344C224.464 34.0385 224.566 33.7246 224.685 33.4021C224.804 33.0755 224.961 32.7785 225.156 32.5112C225.355 32.244 225.606 32.0255 225.907 31.8558C226.208 31.6818 226.581 31.5949 227.027 31.5949ZM235.564 37.0676C234.788 37.0676 234.173 36.8661 233.719 36.463C233.486 36.6794 233.227 36.8364 232.942 36.934C232.658 37.0315 232.366 37.0803 232.064 37.0803H230.632V35.4958H232.064C232.115 35.4958 232.187 35.4873 232.281 35.4703C232.378 35.4533 232.474 35.413 232.567 35.3494C232.665 35.2815 232.749 35.184 232.822 35.0567C232.894 34.9252 232.93 34.7449 232.93 34.5158V32.683H234.514V34.4903C234.514 34.8382 234.595 35.0927 234.756 35.254C234.922 35.4109 235.191 35.4894 235.564 35.4894C235.615 35.4894 235.687 35.4809 235.781 35.464C235.878 35.4427 235.974 35.3982 236.067 35.3303C236.165 35.2624 236.249 35.1627 236.322 35.0312C236.394 34.8955 236.43 34.7152 236.43 34.4903V32.683H238.008V34.4903C238.008 34.8382 238.091 35.0949 238.256 35.2603C238.426 35.4215 238.699 35.5021 239.077 35.5021C239.132 35.5021 239.206 35.4915 239.3 35.4703C239.397 35.4449 239.493 35.3982 239.586 35.3303C239.679 35.2582 239.76 35.1564 239.828 35.0249C239.896 34.8933 239.93 34.7152 239.93 34.4903C239.93 34.397 239.921 34.2846 239.904 34.153C239.892 34.0215 239.872 33.8837 239.847 33.7394C239.826 33.5909 239.8 33.4424 239.771 33.294C239.741 33.1412 239.711 32.997 239.682 32.8612C239.652 32.7255 239.622 32.6024 239.592 32.4921C239.567 32.3818 239.546 32.2949 239.529 32.2312L241.024 31.7412C241.033 31.7709 241.05 31.8388 241.075 31.9449C241.101 32.0509 241.13 32.1824 241.164 32.3394C241.202 32.4964 241.241 32.6703 241.279 32.8612C241.317 33.0521 241.351 33.2452 241.381 33.4403C241.415 33.6312 241.442 33.82 241.463 34.0067C241.485 34.1891 241.495 34.3503 241.495 34.4903C241.495 34.923 241.423 35.3027 241.279 35.6294C241.139 35.9518 240.954 36.2212 240.725 36.4376C240.496 36.6497 240.237 36.8088 239.949 36.9149C239.66 37.0209 239.37 37.0761 239.077 37.0803C238.288 37.0803 237.664 36.8724 237.206 36.4567C236.973 36.673 236.714 36.83 236.43 36.9276C236.15 37.0209 235.861 37.0676 235.564 37.0676ZM237.002 29.8703L235.921 30.9649L234.839 29.883L235.921 28.7885L237.002 29.8703ZM239.732 29.8449L238.663 30.9267L237.55 29.8576L238.644 28.763L239.732 29.8449ZM238.326 28.0503L237.308 29.0685L236.302 28.063L237.321 27.0449L238.326 28.0503ZM252.546 38.9958C252.932 38.9958 253.265 38.9703 253.545 38.9194C253.83 38.8727 254.063 38.7879 254.245 38.6649C254.428 38.5461 254.564 38.3849 254.653 38.1812C254.746 37.9776 254.795 37.7209 254.799 37.4112C254.74 37.3943 254.644 37.3688 254.513 37.3349C254.385 37.3009 254.233 37.2606 254.054 37.214C253.881 37.1673 253.69 37.1164 253.482 37.0612C253.278 37.0061 253.07 36.9509 252.858 36.8958C252.646 36.8364 252.436 36.7812 252.228 36.7303C252.024 36.6752 251.836 36.6264 251.662 36.584C251.551 36.304 251.469 36.0324 251.414 35.7694C251.363 35.5021 251.337 35.2412 251.337 34.9867C251.337 34.503 251.426 34.047 251.604 33.6185C251.783 33.1858 252.037 32.8103 252.368 32.4921C252.699 32.1697 253.102 31.9152 253.577 31.7285C254.057 31.5418 254.595 31.4485 255.194 31.4485C255.406 31.4485 255.616 31.4655 255.824 31.4994C256.036 31.5333 256.275 31.5864 256.543 31.6585L256.142 33.1858C255.942 33.1264 255.768 33.084 255.62 33.0585C255.471 33.0288 255.319 33.014 255.162 33.014C254.844 33.014 254.547 33.0606 254.271 33.154C253.999 33.243 253.762 33.3746 253.558 33.5485C253.359 33.7224 253.2 33.9346 253.081 34.1849C252.966 34.4352 252.909 34.7194 252.909 35.0376C252.909 35.063 252.909 35.0906 252.909 35.1203C252.909 35.1458 252.911 35.1712 252.915 35.1967L255.149 35.7694C255.556 35.8712 255.851 36.0452 256.034 36.2912C256.216 36.533 256.307 36.8343 256.307 37.1949C256.307 37.7846 256.239 38.2915 256.104 38.7158C255.968 39.1443 255.749 39.4964 255.448 39.7721C255.151 40.0521 254.763 40.2579 254.284 40.3894C253.808 40.5252 253.229 40.593 252.546 40.593H251.204C250.856 40.593 250.523 40.5527 250.204 40.4721C249.886 40.3915 249.587 40.2749 249.307 40.1221C249.027 39.9737 248.771 39.7912 248.537 39.5749C248.304 39.3627 248.098 39.1209 247.92 38.8494C247.5 38.1706 247.29 37.3752 247.29 36.463C247.29 36.183 247.309 35.9052 247.347 35.6294C247.385 35.3537 247.445 35.0715 247.525 34.783C247.61 34.4903 247.716 34.1849 247.844 33.8667C247.971 33.5485 248.124 33.2049 248.302 32.8358L249.714 33.5167C249.566 33.8306 249.439 34.1191 249.333 34.3821C249.231 34.6409 249.144 34.887 249.072 35.1203C249.004 35.3494 248.953 35.5721 248.919 35.7885C248.889 36.0006 248.874 36.2149 248.874 36.4312C248.874 37.0464 249.01 37.5682 249.282 37.9967C249.477 38.3191 249.742 38.5652 250.077 38.7349C250.417 38.9088 250.792 38.9958 251.204 38.9958H252.546ZM261.471 37.0803C261.005 37.0803 260.604 37.0506 260.268 36.9912C259.933 36.9361 259.651 36.8533 259.422 36.743C259.193 36.6285 259.008 36.4843 258.868 36.3103C258.733 36.1364 258.629 35.9327 258.557 35.6994C258.485 35.4661 258.436 35.203 258.41 34.9103C258.389 34.6133 258.378 34.2867 258.378 33.9303V27.904H259.963V33.9303C259.963 34.2697 259.974 34.5412 259.995 34.7449C260.02 34.9485 260.082 35.1076 260.179 35.2221C260.281 35.3324 260.432 35.4067 260.631 35.4449C260.835 35.4788 261.115 35.4958 261.471 35.4958V37.0803ZM263.991 35.4958C264.076 35.4958 264.14 35.5191 264.182 35.5658C264.229 35.6082 264.252 35.6655 264.252 35.7376V36.8258C264.252 36.9191 264.229 36.9849 264.182 37.023C264.14 37.0612 264.076 37.0803 263.991 37.0803H261.331C261.238 37.0803 261.172 37.0612 261.134 37.023C261.096 36.9849 261.076 36.9191 261.076 36.8258V35.7376C261.076 35.6655 261.096 35.6082 261.134 35.5658C261.172 35.5191 261.238 35.4958 261.331 35.4958H263.991ZM266.63 35.4958C266.715 35.4958 266.778 35.5191 266.821 35.5658C266.867 35.6082 266.891 35.6655 266.891 35.7376V36.8258C266.891 36.9191 266.867 36.9849 266.821 37.023C266.778 37.0612 266.715 37.0803 266.63 37.0803H263.97C263.876 37.0803 263.811 37.0612 263.772 37.023C263.734 36.9849 263.715 36.9191 263.715 36.8258V35.7376C263.715 35.6655 263.734 35.6082 263.772 35.5658C263.811 35.5191 263.876 35.4958 263.97 35.4958H266.63ZM272.673 30.1249C272.949 30.4897 273.229 30.8588 273.513 31.2321C273.632 31.3933 273.757 31.5609 273.888 31.7349C274.024 31.9088 274.16 32.087 274.296 32.2694C274.436 32.4476 274.571 32.6258 274.703 32.804C274.834 32.9821 274.962 33.1518 275.085 33.313C275.348 33.6652 275.52 34.0491 275.6 34.4649C275.626 34.6133 275.638 34.7618 275.638 34.9103C275.638 35.1776 275.594 35.4449 275.505 35.7121C275.42 35.9667 275.295 36.2 275.129 36.4121C274.968 36.6243 274.771 36.8067 274.537 36.9594C274.304 37.1121 274.037 37.2309 273.736 37.3158C273.434 37.4006 273.104 37.443 272.743 37.443C272.437 37.443 272.121 37.4112 271.795 37.3476C271.468 37.2882 271.135 37.1737 270.796 37.004C270.719 36.97 270.645 36.9361 270.573 36.9021C270.509 36.8724 270.444 36.8427 270.376 36.813C270.308 36.7791 270.25 36.7494 270.204 36.724C269.797 36.847 269.345 36.9361 268.848 36.9912C268.356 37.0506 267.811 37.0803 267.213 37.0803H266.494V35.4958H267.213C267.332 35.4958 267.436 35.4979 267.525 35.5021C267.618 35.5021 267.707 35.5021 267.792 35.5021C267.873 35.5021 267.953 35.5 268.034 35.4958C268.119 35.4915 268.212 35.483 268.314 35.4703C268.204 35.343 268.104 35.22 268.015 35.1012C267.93 34.9782 267.856 34.8509 267.792 34.7194C267.733 34.5837 267.686 34.4415 267.652 34.293C267.622 34.1403 267.607 33.9727 267.607 33.7903C267.607 33.4424 267.673 33.1221 267.805 32.8294C267.94 32.5367 268.125 32.2864 268.358 32.0785C268.596 31.8706 268.872 31.7094 269.186 31.5949C269.504 31.4761 269.845 31.4167 270.21 31.4167C270.622 31.4167 270.987 31.4994 271.305 31.6649C271.627 31.8261 271.897 32.0318 272.113 32.2821C272.334 32.5282 272.499 32.7955 272.609 33.084C272.724 33.3724 272.781 33.6418 272.781 33.8921C272.781 34.0958 272.76 34.2824 272.717 34.4521C272.679 34.6218 272.624 34.783 272.552 34.9358C272.48 35.0843 272.391 35.2264 272.285 35.3621C272.179 35.4979 272.06 35.6315 271.928 35.763C272.06 35.8055 272.196 35.8458 272.336 35.884C272.476 35.9179 272.611 35.9349 272.743 35.9349C272.874 35.9349 273.012 35.9264 273.157 35.9094C273.301 35.8882 273.437 35.85 273.564 35.7949C273.695 35.7355 273.81 35.6549 273.907 35.553C274.009 35.4512 274.086 35.3176 274.137 35.1521C274.154 35.0927 274.162 35.0312 274.162 34.9676C274.162 34.853 274.128 34.7067 274.06 34.5285C273.992 34.3503 273.867 34.1233 273.685 33.8476C273.507 33.5718 273.284 33.2685 273.017 32.9376C272.749 32.6024 272.457 32.2376 272.138 31.843L271.477 31.0221L272.673 30.1249ZM269.109 33.7903C269.109 33.9473 269.133 34.0873 269.179 34.2103C269.23 34.3291 269.304 34.4394 269.402 34.5412C269.504 34.643 269.627 34.7427 269.771 34.8403C269.92 34.9337 270.091 35.0333 270.287 35.1394C270.418 35.0758 270.545 35.0037 270.668 34.923C270.791 34.8424 270.897 34.7533 270.987 34.6558C271.08 34.554 271.154 34.4415 271.209 34.3185C271.264 34.1955 271.292 34.0597 271.292 33.9112C271.292 33.733 271.254 33.5761 271.177 33.4403C271.101 33.3046 271.008 33.1921 270.897 33.103C270.787 33.014 270.668 32.9482 270.541 32.9058C270.418 32.8633 270.308 32.8421 270.21 32.8421C270.066 32.8421 269.926 32.8676 269.79 32.9185C269.659 32.9694 269.542 33.0394 269.44 33.1285C269.338 33.2133 269.258 33.313 269.198 33.4276C269.139 33.5421 269.109 33.663 269.109 33.7903ZM289.125 32.683V34.5476C289.125 34.6961 289.146 34.8233 289.189 34.9294C289.235 35.0312 289.292 35.1182 289.36 35.1903C289.432 35.2582 289.511 35.3133 289.596 35.3558C289.681 35.394 289.763 35.4237 289.844 35.4449C289.925 35.4661 289.995 35.4809 290.054 35.4894C290.118 35.4937 290.164 35.4958 290.194 35.4958H290.589V37.0803H290.194C290.05 37.0803 289.895 37.0697 289.729 37.0485C289.568 37.0315 289.405 37.0018 289.239 36.9594C289.078 36.9127 288.921 36.8512 288.769 36.7749C288.616 36.6985 288.48 36.6052 288.361 36.4949C287.899 36.8809 287.271 37.0761 286.478 37.0803H279.134C278.82 37.0803 278.523 37.0273 278.243 36.9212C277.963 36.8152 277.715 36.6603 277.499 36.4567C277.414 36.3761 277.325 36.2785 277.231 36.164C277.142 36.0494 277.062 35.9137 276.989 35.7567C276.917 35.5997 276.858 35.4237 276.811 35.2285C276.765 35.0291 276.741 34.8064 276.741 34.5603C276.741 34.3482 276.762 34.1191 276.805 33.873C276.847 33.6227 276.894 33.3873 276.945 33.1667C277 32.9461 277.051 32.7552 277.098 32.594C277.144 32.4327 277.174 32.333 277.187 32.2949L277.944 32.5367L278.695 32.7721C278.657 32.8867 278.616 33.0246 278.574 33.1858C278.532 33.3427 278.491 33.5061 278.453 33.6758C278.415 33.8455 278.383 34.0088 278.358 34.1658C278.332 34.3227 278.319 34.4585 278.319 34.573C278.319 34.7767 278.347 34.9421 278.402 35.0694C278.462 35.1924 278.532 35.2879 278.612 35.3558C278.697 35.4194 278.788 35.4618 278.886 35.483C278.983 35.5043 279.07 35.5149 279.147 35.5149H286.433C286.666 35.5149 286.866 35.4937 287.031 35.4512C287.197 35.4046 287.32 35.3388 287.4 35.254C287.498 35.1437 287.547 34.9846 287.547 34.7767V32.683H289.125ZM284.212 32.1485L283.143 31.0667L284.199 29.9721L285.294 31.0667L284.212 32.1485ZM281.546 32.1549L280.477 31.073L281.527 29.9785L282.621 31.073L281.546 32.1549ZM293.098 35.4958C293.183 35.4958 293.247 35.5191 293.289 35.5658C293.336 35.6082 293.359 35.6655 293.359 35.7376V36.8258C293.359 36.9191 293.336 36.9849 293.289 37.023C293.247 37.0612 293.183 37.0803 293.098 37.0803H290.438C290.345 37.0803 290.279 37.0612 290.241 37.023C290.203 36.9849 290.184 36.9191 290.184 36.8258V35.7376C290.184 35.6655 290.203 35.6082 290.241 35.5658C290.279 35.5191 290.345 35.4958 290.438 35.4958H293.098ZM301.165 37.0803H300.974C300.601 37.0803 300.277 37.0464 300.001 36.9785C299.725 36.9064 299.477 36.8088 299.256 36.6858C299.036 36.5585 298.832 36.4079 298.645 36.234C298.463 36.0558 298.276 35.8585 298.085 35.6421C297.983 35.9094 297.82 36.1364 297.595 36.323C297.375 36.5097 297.12 36.6603 296.832 36.7749C296.547 36.8894 296.242 36.97 295.915 37.0167C295.635 37.0591 295.357 37.0803 295.082 37.0803H292.963V35.4958H295.037C295.317 35.4958 295.576 35.4809 295.813 35.4512C296.051 35.4173 296.257 35.3643 296.431 35.2921C296.605 35.2158 296.743 35.1161 296.844 34.993C296.946 34.87 297.003 34.7194 297.016 34.5412C297.016 34.3588 296.938 34.1276 296.781 33.8476C296.628 33.5676 296.427 33.2558 296.176 32.9121C295.93 32.5685 295.65 32.2058 295.336 31.824C295.027 31.4379 294.713 31.0476 294.394 30.653L294.662 29.3612L300.185 26.6821L300.834 28.133L296.004 30.3667C296.403 30.9012 296.8 31.4337 297.194 31.964C297.593 32.49 297.992 33.0203 298.391 33.5549C298.624 33.8646 298.838 34.1403 299.033 34.3821C299.229 34.6197 299.424 34.8212 299.619 34.9867C299.818 35.1521 300.026 35.2794 300.243 35.3685C300.459 35.4533 300.703 35.4958 300.974 35.4958H301.165V37.0803ZM303.68 35.4958C303.765 35.4958 303.829 35.5191 303.871 35.5658C303.918 35.6082 303.941 35.6655 303.941 35.7376V36.8258C303.941 36.9191 303.918 36.9849 303.871 37.023C303.829 37.0612 303.765 37.0803 303.68 37.0803H301.02C300.927 37.0803 300.861 37.0612 300.823 37.023C300.785 36.9849 300.766 36.9191 300.766 36.8258V35.7376C300.766 35.6655 300.785 35.6082 300.823 35.5658C300.861 35.5191 300.927 35.4958 301.02 35.4958H303.68ZM310.379 35.4958V37.0803H309.437C309.077 37.0803 308.748 37.0315 308.451 36.934C308.154 36.8364 307.904 36.6921 307.7 36.5012C307.462 36.7006 307.18 36.847 306.854 36.9403C306.531 37.0337 306.162 37.0803 305.746 37.0803H303.545V35.4958H305.746C306.005 35.4958 306.211 35.4724 306.364 35.4258C306.521 35.3749 306.637 35.3133 306.714 35.2412C306.794 35.1691 306.845 35.0885 306.866 34.9994C306.892 34.9103 306.905 34.8233 306.905 34.7385V32.6767H308.483V34.694C308.483 34.8849 308.525 35.0355 308.61 35.1458C308.695 35.2518 308.79 35.3324 308.896 35.3876C309.007 35.4385 309.115 35.4703 309.221 35.483C309.327 35.4915 309.399 35.4958 309.437 35.4958H310.379ZM307.834 40.5803L306.765 39.4985L307.821 38.404L308.916 39.4985L307.834 40.5803ZM305.167 40.5867L304.098 39.5049L305.148 38.4103L306.243 39.5049L305.167 40.5867ZM314.849 31.7349C314.857 31.7646 314.874 31.8346 314.9 31.9449C314.93 32.0552 314.961 32.1909 314.995 32.3521C315.029 32.5091 315.063 32.6852 315.097 32.8803C315.135 33.0755 315.169 33.2727 315.199 33.4721C315.233 33.6673 315.258 33.8582 315.275 34.0449C315.297 34.2315 315.307 34.3949 315.307 34.5349C315.307 34.9718 315.235 35.3515 315.091 35.674C314.947 35.9921 314.758 36.2552 314.524 36.463C314.291 36.6709 314.028 36.8258 313.735 36.9276C313.447 37.0294 313.156 37.0803 312.864 37.0803H310.121V35.4958H312.908C312.959 35.4958 313.031 35.4894 313.124 35.4767C313.222 35.4597 313.317 35.4194 313.411 35.3558C313.508 35.2921 313.593 35.1967 313.665 35.0694C313.737 34.9379 313.774 34.7597 313.774 34.5349C313.774 34.4415 313.765 34.3291 313.748 34.1976C313.735 34.0618 313.716 33.9176 313.691 33.7649C313.665 33.6121 313.636 33.4573 313.602 33.3003C313.572 33.1391 313.542 32.9885 313.513 32.8485C313.483 32.7043 313.453 32.5749 313.424 32.4603C313.394 32.3415 313.37 32.2503 313.354 32.1867L314.849 31.7349ZM314.251 30.494L313.182 29.4121L314.238 28.3176L315.333 29.4121L314.251 30.494ZM311.584 30.5003L310.515 29.4185L311.565 28.324L312.66 29.4185L311.584 30.5003ZM326.183 38.9958C326.569 38.9958 326.902 38.9703 327.182 38.9194C327.466 38.8727 327.7 38.7879 327.882 38.6649C328.065 38.5461 328.2 38.3849 328.289 38.1812C328.383 37.9776 328.431 37.7209 328.436 37.4112C328.376 37.3943 328.281 37.3688 328.149 37.3349C328.022 37.3009 327.869 37.2606 327.691 37.214C327.517 37.1673 327.326 37.1164 327.118 37.0612C326.915 37.0061 326.707 36.9509 326.495 36.8958C326.283 36.8364 326.073 36.7812 325.865 36.7303C325.661 36.6752 325.472 36.6264 325.298 36.584C325.188 36.304 325.105 36.0324 325.05 35.7694C324.999 35.5021 324.974 35.2412 324.974 34.9867C324.974 34.503 325.063 34.047 325.241 33.6185C325.419 33.1858 325.674 32.8103 326.005 32.4921C326.336 32.1697 326.739 31.9152 327.214 31.7285C327.693 31.5418 328.232 31.4485 328.83 31.4485C329.042 31.4485 329.252 31.4655 329.46 31.4994C329.672 31.5333 329.912 31.5864 330.179 31.6585L329.778 33.1858C329.579 33.1264 329.405 33.084 329.257 33.0585C329.108 33.0288 328.955 33.014 328.798 33.014C328.48 33.014 328.183 33.0606 327.908 33.154C327.636 33.243 327.398 33.3746 327.195 33.5485C326.995 33.7224 326.836 33.9346 326.718 34.1849C326.603 34.4352 326.546 34.7194 326.546 35.0376C326.546 35.063 326.546 35.0906 326.546 35.1203C326.546 35.1458 326.548 35.1712 326.552 35.1967L328.786 35.7694C329.193 35.8712 329.488 36.0452 329.67 36.2912C329.853 36.533 329.944 36.8343 329.944 37.1949C329.944 37.7846 329.876 38.2915 329.74 38.7158C329.605 39.1443 329.386 39.4964 329.085 39.7721C328.788 40.0521 328.4 40.2579 327.92 40.3894C327.445 40.5252 326.866 40.593 326.183 40.593H324.84C324.492 40.593 324.159 40.5527 323.841 40.4721C323.523 40.3915 323.224 40.2749 322.944 40.1221C322.664 39.9737 322.407 39.7912 322.174 39.5749C321.941 39.3627 321.735 39.1209 321.557 38.8494C321.137 38.1706 320.927 37.3752 320.927 36.463C320.927 36.183 320.946 35.9052 320.984 35.6294C321.022 35.3537 321.081 35.0715 321.162 34.783C321.247 34.4903 321.353 34.1849 321.48 33.8667C321.608 33.5485 321.76 33.2049 321.938 32.8358L323.351 33.5167C323.203 33.8306 323.075 34.1191 322.969 34.3821C322.868 34.6409 322.781 34.887 322.708 35.1203C322.641 35.3494 322.59 35.5721 322.556 35.7885C322.526 36.0006 322.511 36.2149 322.511 36.4312C322.511 37.0464 322.647 37.5682 322.918 37.9967C323.114 38.3191 323.379 38.5652 323.714 38.7349C324.053 38.9088 324.429 38.9958 324.84 38.9958H326.183ZM332.238 38.913C332.577 38.913 332.878 38.9003 333.142 38.8749C333.409 38.8537 333.644 38.8197 333.848 38.773C334.056 38.7306 334.236 38.6733 334.389 38.6012C334.546 38.5333 334.682 38.4506 334.796 38.353C334.974 38.2088 335.108 38.0412 335.197 37.8503C335.29 37.6594 335.345 37.4027 335.362 37.0803H334.382C334.17 37.0803 333.954 37.0633 333.733 37.0294C333.513 36.9955 333.301 36.9382 333.097 36.8576C332.893 36.7727 332.7 36.6646 332.518 36.533C332.34 36.4015 332.183 36.2403 332.047 36.0494C331.915 35.8543 331.809 35.6252 331.729 35.3621C331.652 35.0991 331.614 34.7979 331.614 34.4585C331.614 34.1658 331.64 33.907 331.691 33.6821C331.742 33.453 331.805 33.2515 331.882 33.0776C331.962 32.9037 332.051 32.753 332.149 32.6258C332.246 32.4943 332.34 32.3797 332.429 32.2821C332.683 32.0276 332.972 31.8324 333.294 31.6967C333.617 31.5567 333.965 31.4867 334.338 31.4867C334.8 31.4867 335.195 31.5673 335.522 31.7285C335.852 31.8855 336.122 32.104 336.33 32.384C336.542 32.664 336.697 32.997 336.794 33.383C336.892 33.7649 336.941 34.1806 336.941 34.6303V35.4958H338.022V37.0803H336.934C336.917 37.6615 336.813 38.1515 336.622 38.5503C336.436 38.9491 336.156 39.297 335.782 39.594C335.587 39.7467 335.375 39.8782 335.146 39.9885C334.917 40.103 334.66 40.1985 334.376 40.2749C334.092 40.3512 333.774 40.4064 333.422 40.4403C333.074 40.4785 332.679 40.4976 332.238 40.4976V38.913ZM334.338 33.0712C333.977 33.0712 333.691 33.1837 333.479 33.4085C333.267 33.6333 333.161 33.9833 333.161 34.4585C333.161 34.6452 333.197 34.8043 333.269 34.9358C333.345 35.0673 333.441 35.1755 333.555 35.2603C333.674 35.3409 333.805 35.4003 333.95 35.4385C334.094 35.4767 334.238 35.4958 334.382 35.4958H335.362V34.6303C335.362 34.3885 335.343 34.1827 335.305 34.013C335.267 33.8391 335.216 33.6949 335.152 33.5803C335.093 33.4658 335.023 33.3746 334.942 33.3067C334.866 33.2388 334.79 33.1879 334.713 33.154C334.641 33.12 334.571 33.0988 334.503 33.0903C334.435 33.0776 334.38 33.0712 334.338 33.0712ZM340.485 35.4958C340.57 35.4958 340.634 35.5191 340.676 35.5658C340.723 35.6082 340.746 35.6655 340.746 35.7376V36.8258C340.746 36.9191 340.723 36.9849 340.676 37.023C340.634 37.0612 340.57 37.0803 340.485 37.0803H337.825C337.732 37.0803 337.666 37.0612 337.628 37.023C337.59 36.9849 337.571 36.9191 337.571 36.8258V35.7376C337.571 35.6655 337.59 35.6082 337.628 35.5658C337.666 35.5191 337.732 35.4958 337.825 35.4958H340.485ZM343.124 35.4958C343.209 35.4958 343.272 35.5191 343.315 35.5658C343.361 35.6082 343.385 35.6655 343.385 35.7376V36.8258C343.385 36.9191 343.361 36.9849 343.315 37.023C343.272 37.0612 343.209 37.0803 343.124 37.0803H340.464C340.371 37.0803 340.305 37.0612 340.267 37.023C340.228 36.9849 340.209 36.9191 340.209 36.8258V35.7376C340.209 35.6655 340.228 35.6082 340.267 35.5658C340.305 35.5191 340.371 35.4958 340.464 35.4958H343.124ZM351.191 37.0803H351C350.626 37.0803 350.302 37.0464 350.026 36.9785C349.75 36.9064 349.502 36.8088 349.282 36.6858C349.061 36.5585 348.857 36.4079 348.671 36.234C348.488 36.0558 348.302 35.8585 348.111 35.6421C348.009 35.9094 347.846 36.1364 347.621 36.323C347.4 36.5097 347.146 36.6603 346.857 36.7749C346.573 36.8894 346.267 36.97 345.941 37.0167C345.661 37.0591 345.383 37.0803 345.107 37.0803H342.988V35.4958H345.063C345.343 35.4958 345.601 35.4809 345.839 35.4512C346.076 35.4173 346.282 35.3643 346.456 35.2921C346.63 35.2158 346.768 35.1161 346.87 34.993C346.972 34.87 347.029 34.7194 347.042 34.5412C347.042 34.3588 346.963 34.1276 346.806 33.8476C346.653 33.5676 346.452 33.2558 346.202 32.9121C345.956 32.5685 345.676 32.2058 345.362 31.824C345.052 31.4379 344.738 31.0476 344.42 30.653L344.687 29.3612L350.211 26.6821L350.86 28.133L346.03 30.3667C346.429 30.9012 346.825 31.4337 347.22 31.964C347.619 32.49 348.017 33.0203 348.416 33.5549C348.649 33.8646 348.864 34.1403 349.059 34.3821C349.254 34.6197 349.449 34.8212 349.644 34.9867C349.844 35.1521 350.052 35.2794 350.268 35.3685C350.484 35.4533 350.728 35.4958 351 35.4958H351.191V37.0803ZM344.776 27.4458L349.625 25.3394L349.956 26.0521L344.693 28.3494L344.776 27.4458ZM353.706 35.4958C353.791 35.4958 353.854 35.5191 353.897 35.5658C353.943 35.6082 353.967 35.6655 353.967 35.7376V36.8258C353.967 36.9191 353.943 36.9849 353.897 37.023C353.854 37.0612 353.791 37.0803 353.706 37.0803H351.046C350.953 37.0803 350.887 37.0612 350.849 37.023C350.81 36.9849 350.791 36.9191 350.791 36.8258V35.7376C350.791 35.6655 350.81 35.6082 350.849 35.5658C350.887 35.5191 350.953 35.4958 351.046 35.4958H353.706ZM362.314 34.5476C362.292 34.5603 362.225 34.607 362.11 34.6876C361.995 34.764 361.841 34.8637 361.645 34.9867C361.688 35.114 361.754 35.2137 361.843 35.2858C361.932 35.3537 362.023 35.4046 362.116 35.4385C362.21 35.4682 362.297 35.4852 362.377 35.4894C362.462 35.4937 362.522 35.4958 362.555 35.4958H363.72V37.0803H362.555C362.051 37.0761 361.597 36.9658 361.194 36.7494C360.795 36.5288 360.483 36.2 360.258 35.763C359.932 35.9243 359.579 36.0855 359.202 36.2467C358.824 36.4037 358.43 36.5437 358.018 36.6667C357.607 36.7897 357.185 36.8894 356.752 36.9658C356.319 37.0421 355.886 37.0803 355.454 37.0803H353.557V35.4958H355.454C355.869 35.4958 356.313 35.4533 356.784 35.3685C357.255 35.2837 357.719 35.1755 358.177 35.044C358.635 34.9082 359.07 34.7576 359.482 34.5921C359.898 34.4267 360.258 34.2633 360.564 34.1021C360.373 34.0427 360.163 33.9791 359.934 33.9112C359.705 33.8391 359.471 33.7691 359.234 33.7012C358.996 33.6291 358.761 33.5612 358.527 33.4976C358.294 33.4297 358.075 33.3703 357.872 33.3194C357.668 33.2685 357.486 33.2282 357.325 33.1985C357.163 33.1688 357.036 33.154 356.943 33.154C356.845 33.154 356.758 33.1667 356.682 33.1921C356.61 33.2133 356.544 33.2515 356.485 33.3067C356.425 33.3576 356.37 33.4255 356.319 33.5103C356.268 33.5952 356.215 33.697 356.16 33.8158L354.703 33.3767C354.783 33.1221 354.881 32.8846 354.995 32.664C355.114 32.4391 355.256 32.244 355.422 32.0785C355.592 31.913 355.787 31.7837 356.007 31.6903C356.228 31.5927 356.48 31.544 356.765 31.544C356.875 31.544 357.032 31.5673 357.235 31.614C357.439 31.6606 357.67 31.7221 357.929 31.7985C358.188 31.8749 358.464 31.9618 358.756 32.0594C359.053 32.157 359.35 32.2588 359.647 32.3649C359.944 32.4709 360.233 32.5749 360.513 32.6767C360.793 32.7785 361.045 32.8718 361.27 32.9567C361.495 33.0373 361.684 33.1052 361.836 33.1603C361.989 33.2155 362.087 33.2494 362.129 33.2621L362.314 34.5476ZM355.358 28.9603L356.504 27.8021L357.675 28.973L356.516 30.1312L355.358 28.9603ZM368.387 37.0676C367.61 37.0676 366.995 36.8661 366.541 36.463C366.308 36.6794 366.049 36.8364 365.765 36.934C365.481 37.0315 365.188 37.0803 364.887 37.0803H363.455V35.4958H364.887C364.937 35.4958 365.01 35.4873 365.103 35.4703C365.201 35.4533 365.296 35.413 365.389 35.3494C365.487 35.2815 365.572 35.184 365.644 35.0567C365.716 34.9252 365.752 34.7449 365.752 34.5158V32.683H367.337V34.4903C367.337 34.8382 367.417 35.0927 367.578 35.254C367.744 35.4109 368.013 35.4894 368.387 35.4894C368.437 35.4894 368.51 35.4809 368.603 35.464C368.701 35.4427 368.796 35.3982 368.889 35.3303C368.987 35.2624 369.072 35.1627 369.144 35.0312C369.216 34.8955 369.252 34.7152 369.252 34.4903V32.683H370.83V34.4903C370.83 34.8382 370.913 35.0949 371.078 35.2603C371.248 35.4215 371.522 35.5021 371.899 35.5021C371.954 35.5021 372.029 35.4915 372.122 35.4703C372.22 35.4449 372.315 35.3982 372.408 35.3303C372.502 35.2582 372.582 35.1564 372.65 35.0249C372.718 34.8933 372.752 34.7152 372.752 34.4903C372.752 34.397 372.744 34.2846 372.727 34.153C372.714 34.0215 372.695 33.8837 372.669 33.7394C372.648 33.5909 372.623 33.4424 372.593 33.294C372.563 33.1412 372.534 32.997 372.504 32.8612C372.474 32.7255 372.444 32.6024 372.415 32.4921C372.389 32.3818 372.368 32.2949 372.351 32.2312L373.847 31.7412C373.855 31.7709 373.872 31.8388 373.897 31.9449C373.923 32.0509 373.953 32.1824 373.987 32.3394C374.025 32.4964 374.063 32.6703 374.101 32.8612C374.139 33.0521 374.173 33.2452 374.203 33.4403C374.237 33.6312 374.264 33.82 374.286 34.0067C374.307 34.1891 374.317 34.3503 374.317 34.4903C374.317 34.923 374.245 35.3027 374.101 35.6294C373.961 35.9518 373.777 36.2212 373.547 36.4376C373.318 36.6497 373.06 36.8088 372.771 36.9149C372.483 37.0209 372.192 37.0761 371.899 37.0803C371.11 37.0803 370.487 36.8724 370.028 36.4567C369.795 36.673 369.536 36.83 369.252 36.9276C368.972 37.0209 368.684 37.0676 368.387 37.0676ZM379.227 37.0803C378.76 37.0803 378.359 37.0506 378.024 36.9912C377.689 36.9361 377.407 36.8533 377.178 36.743C376.949 36.6285 376.764 36.4843 376.624 36.3103C376.489 36.1364 376.385 35.9327 376.312 35.6994C376.24 35.4661 376.192 35.203 376.166 34.9103C376.145 34.6133 376.134 34.2867 376.134 33.9303V27.904H377.719V33.9303C377.719 34.2697 377.729 34.5412 377.751 34.7449C377.776 34.9485 377.838 35.1076 377.935 35.2221C378.037 35.3324 378.188 35.4067 378.387 35.4449C378.591 35.4788 378.871 35.4958 379.227 35.4958V37.0803ZM381.747 35.4958C381.832 35.4958 381.895 35.5191 381.938 35.5658C381.984 35.6082 382.008 35.6655 382.008 35.7376V36.8258C382.008 36.9191 381.984 36.9849 381.938 37.023C381.895 37.0612 381.832 37.0803 381.747 37.0803H379.087C378.994 37.0803 378.928 37.0612 378.89 37.023C378.851 36.9849 378.832 36.9191 378.832 36.8258V35.7376C378.832 35.6655 378.851 35.6082 378.89 35.5658C378.928 35.5191 378.994 35.4958 379.087 35.4958H381.747ZM384.386 35.4958C384.47 35.4958 384.534 35.5191 384.576 35.5658C384.623 35.6082 384.646 35.6655 384.646 35.7376V36.8258C384.646 36.9191 384.623 36.9849 384.576 37.023C384.534 37.0612 384.47 37.0803 384.386 37.0803H381.726C381.632 37.0803 381.566 37.0612 381.528 37.023C381.49 36.9849 381.471 36.9191 381.471 36.8258V35.7376C381.471 35.6655 381.49 35.6082 381.528 35.5658C381.566 35.5191 381.632 35.4958 381.726 35.4958H384.386ZM388.978 31.7349C388.986 31.7646 389.003 31.8346 389.029 31.9449C389.058 32.0552 389.09 32.1909 389.124 32.3521C389.158 32.5091 389.192 32.6852 389.226 32.8803C389.264 33.0755 389.298 33.2727 389.328 33.4721C389.362 33.6673 389.387 33.8582 389.404 34.0449C389.425 34.2315 389.436 34.3949 389.436 34.5349C389.436 34.9718 389.364 35.3515 389.22 35.674C389.075 35.9921 388.887 36.2552 388.653 36.463C388.42 36.6709 388.157 36.8258 387.864 36.9276C387.576 37.0294 387.285 37.0803 386.992 37.0803H384.25V35.4958H387.037C387.088 35.4958 387.16 35.4894 387.253 35.4767C387.351 35.4597 387.446 35.4194 387.54 35.3558C387.637 35.2921 387.722 35.1967 387.794 35.0694C387.866 34.9379 387.902 34.7597 387.902 34.5349C387.902 34.4415 387.894 34.3291 387.877 34.1976C387.864 34.0618 387.845 33.9176 387.82 33.7649C387.794 33.6121 387.765 33.4573 387.731 33.3003C387.701 33.1391 387.671 32.9885 387.641 32.8485C387.612 32.7043 387.582 32.5749 387.552 32.4603C387.523 32.3415 387.499 32.2503 387.482 32.1867L388.978 31.7349ZM384.574 39.174L385.656 38.0921L386.738 39.1867L385.656 40.2685L384.574 39.174ZM387.228 39.1867L388.322 38.1049L389.404 39.1994L388.322 40.2812L387.228 39.1867ZM385.961 40.9685L386.967 39.963L387.985 40.9812L386.98 41.9867L385.961 40.9685ZM402.463 37.0803H402.285C401.954 37.0803 401.636 37.0485 401.33 36.9849C401.025 36.9255 400.743 36.8343 400.484 36.7112C400.225 36.584 399.994 36.4227 399.79 36.2276C399.591 36.0324 399.427 35.8012 399.3 35.534C399.198 35.6909 399.067 35.8309 398.906 35.954C398.749 36.0727 398.577 36.1724 398.39 36.253C398.203 36.3337 398.01 36.3952 397.811 36.4376C397.612 36.4758 397.421 36.4949 397.238 36.4949C396.899 36.4949 396.576 36.4355 396.271 36.3167C395.97 36.1979 395.705 36.0303 395.476 35.814C395.246 35.5933 395.064 35.3261 394.928 35.0121C394.797 34.6982 394.731 34.344 394.731 33.9494C394.731 33.4912 394.818 33.0882 394.992 32.7403C395.166 32.3924 395.397 32.0891 395.686 31.8303C395.974 31.5673 396.305 31.3446 396.678 31.1621C397.056 30.9755 397.446 30.8143 397.849 30.6785L397.696 30.0676L399.249 29.7049L400.407 34.2103C400.475 34.4861 400.586 34.7088 400.738 34.8785C400.891 35.044 401.056 35.1733 401.235 35.2667C401.417 35.3558 401.602 35.4173 401.788 35.4512C401.979 35.4809 402.145 35.4958 402.285 35.4958H402.463V37.0803ZM398.543 33.9176C398.564 33.8285 398.575 33.7373 398.575 33.644C398.575 33.6143 398.57 33.5633 398.562 33.4912C398.558 33.4149 398.541 33.3088 398.511 33.173C398.481 33.0373 398.441 32.8909 398.39 32.734C398.343 32.577 398.293 32.4009 398.237 32.2058C397.559 32.4221 397.043 32.6682 396.691 32.944C396.343 33.2155 396.169 33.5527 396.169 33.9558C396.169 34.1127 396.203 34.2527 396.271 34.3758C396.343 34.4988 396.434 34.6006 396.545 34.6812C396.659 34.7618 396.786 34.8191 396.926 34.853C397.016 34.8785 397.105 34.8912 397.194 34.8912C397.24 34.8912 397.289 34.887 397.34 34.8785C397.658 34.8318 397.923 34.7385 398.136 34.5985C398.348 34.4543 398.483 34.2273 398.543 33.9176ZM404.989 35.4958C405.074 35.4958 405.138 35.5191 405.18 35.5658C405.227 35.6082 405.25 35.6655 405.25 35.7376V36.8258C405.25 36.9191 405.227 36.9849 405.18 37.023C405.138 37.0612 405.074 37.0803 404.989 37.0803H402.329C402.236 37.0803 402.17 37.0612 402.132 37.023C402.094 36.9849 402.075 36.9191 402.075 36.8258V35.7376C402.075 35.6655 402.094 35.6082 402.132 35.5658C402.17 35.5191 402.236 35.4958 402.329 35.4958H404.989ZM411.688 35.4958V37.0803H410.746C410.385 37.0803 410.057 37.0315 409.76 36.934C409.463 36.8364 409.212 36.6921 409.009 36.5012C408.771 36.7006 408.489 36.847 408.162 36.9403C407.84 37.0337 407.471 37.0803 407.055 37.0803H404.853V35.4958H407.055C407.314 35.4958 407.52 35.4724 407.672 35.4258C407.829 35.3749 407.946 35.3133 408.022 35.2412C408.103 35.1691 408.154 35.0885 408.175 34.9994C408.2 34.9103 408.213 34.8233 408.213 34.7385V32.6767H409.791V34.694C409.791 34.8849 409.834 35.0355 409.919 35.1458C410.003 35.2518 410.099 35.3324 410.205 35.3876C410.315 35.4385 410.423 35.4703 410.53 35.483C410.636 35.4915 410.708 35.4958 410.746 35.4958H411.688ZM409.53 31.0349L408.461 29.953L409.518 28.8585L410.612 29.953L409.53 31.0349ZM406.864 31.0412L405.795 29.9594L406.845 28.8649L407.94 29.9594L406.864 31.0412ZM414.204 35.4958C414.289 35.4958 414.352 35.5191 414.395 35.5658C414.441 35.6082 414.465 35.6655 414.465 35.7376V36.8258C414.465 36.9191 414.441 36.9849 414.395 37.023C414.352 37.0612 414.289 37.0803 414.204 37.0803H411.544C411.451 37.0803 411.385 37.0612 411.347 37.023C411.308 36.9849 411.289 36.9191 411.289 36.8258V35.7376C411.289 35.6655 411.308 35.6082 411.347 35.5658C411.385 35.5191 411.451 35.4958 411.544 35.4958H414.204ZM414.068 37.0803V35.4958H415.875C415.769 35.3473 415.687 35.2009 415.627 35.0567C415.568 34.9124 415.523 34.7767 415.493 34.6494C415.464 34.5179 415.445 34.3949 415.436 34.2803C415.432 34.1615 415.43 34.0576 415.43 33.9685C415.43 33.5909 415.502 33.2409 415.646 32.9185C415.79 32.5961 415.986 32.3161 416.232 32.0785C416.482 31.8409 416.77 31.6543 417.097 31.5185C417.428 31.3827 417.778 31.3149 418.147 31.3149C418.359 31.3149 418.554 31.334 418.733 31.3721C418.911 31.4061 419.091 31.4612 419.273 31.5376C419.46 31.6097 419.657 31.7052 419.865 31.824C420.077 31.9385 420.317 32.0743 420.584 32.2312L419.789 33.5867C419.679 33.5146 419.556 33.4382 419.42 33.3576C419.284 33.277 419.142 33.2027 418.993 33.1349C418.849 33.067 418.703 33.0118 418.554 32.9694C418.41 32.9227 418.274 32.8994 418.147 32.8994C418.007 32.8994 417.863 32.9227 417.714 32.9694C417.57 33.0161 417.439 33.084 417.32 33.173C417.201 33.2621 417.103 33.3746 417.027 33.5103C416.951 33.6418 416.913 33.7946 416.913 33.9685C416.913 34.0194 416.919 34.0788 416.932 34.1467C416.949 34.2146 416.976 34.2909 417.014 34.3758C417.053 34.4564 417.106 34.5412 417.173 34.6303C417.246 34.7194 417.337 34.8106 417.447 34.904H417.441C417.695 35.1118 418.037 35.2624 418.465 35.3558C418.898 35.4491 419.403 35.4958 419.98 35.4958H420.68V37.0803H414.068ZM426.04 37.0803C425.573 37.0803 425.172 37.0506 424.837 36.9912C424.502 36.9361 424.22 36.8533 423.99 36.743C423.761 36.6285 423.577 36.4843 423.437 36.3103C423.301 36.1364 423.197 35.9327 423.125 35.6994C423.053 35.4661 423.004 35.203 422.979 34.9103C422.957 34.6133 422.947 34.2867 422.947 33.9303V27.904H424.531V33.9303C424.531 34.2697 424.542 34.5412 424.563 34.7449C424.589 34.9485 424.65 35.1076 424.748 35.2221C424.85 35.3324 425 35.4067 425.2 35.4449C425.403 35.4788 425.683 35.4958 426.04 35.4958V37.0803ZM428.559 35.4958C428.644 35.4958 428.708 35.5191 428.75 35.5658C428.797 35.6082 428.82 35.6655 428.82 35.7376V36.8258C428.82 36.9191 428.797 36.9849 428.75 37.023C428.708 37.0612 428.644 37.0803 428.559 37.0803H425.899C425.806 37.0803 425.74 37.0612 425.702 37.023C425.664 36.9849 425.645 36.9191 425.645 36.8258V35.7376C425.645 35.6655 425.664 35.6082 425.702 35.5658C425.74 35.5191 425.806 35.4958 425.899 35.4958H428.559ZM433.355 37.0676C432.579 37.0676 431.964 36.8661 431.51 36.463C431.277 36.6794 431.018 36.8364 430.734 36.934C430.449 37.0315 430.157 37.0803 429.855 37.0803H428.424V35.4958H429.855C429.906 35.4958 429.978 35.4873 430.072 35.4703C430.169 35.4533 430.265 35.413 430.358 35.3494C430.456 35.2815 430.54 35.184 430.613 35.0567C430.685 34.9252 430.721 34.7449 430.721 34.5158V32.683H432.305V34.4903C432.305 34.8382 432.386 35.0927 432.547 35.254C432.713 35.4109 432.982 35.4894 433.355 35.4894C433.406 35.4894 433.478 35.4809 433.572 35.464C433.669 35.4427 433.765 35.3982 433.858 35.3303C433.956 35.2624 434.04 35.1627 434.113 35.0312C434.185 34.8955 434.221 34.7152 434.221 34.4903V32.683H435.799V34.4903C435.799 34.8382 435.882 35.0949 436.047 35.2603C436.217 35.4215 436.49 35.5021 436.868 35.5021C436.923 35.5021 436.997 35.4915 437.091 35.4703C437.188 35.4449 437.284 35.3982 437.377 35.3303C437.47 35.2582 437.551 35.1564 437.619 35.0249C437.687 34.8933 437.721 34.7152 437.721 34.4903C437.721 34.397 437.712 34.2846 437.695 34.153C437.683 34.0215 437.664 33.8837 437.638 33.7394C437.617 33.5909 437.591 33.4424 437.562 33.294C437.532 33.1412 437.502 32.997 437.473 32.8612C437.443 32.7255 437.413 32.6024 437.384 32.4921C437.358 32.3818 437.337 32.2949 437.32 32.2312L438.815 31.7412C438.824 31.7709 438.841 31.8388 438.866 31.9449C438.892 32.0509 438.921 32.1824 438.955 32.3394C438.994 32.4964 439.032 32.6703 439.07 32.8612C439.108 33.0521 439.142 33.2452 439.172 33.4403C439.206 33.6312 439.233 33.82 439.254 34.0067C439.276 34.1891 439.286 34.3503 439.286 34.4903C439.286 34.923 439.214 35.3027 439.07 35.6294C438.93 35.9518 438.745 36.2212 438.516 36.4376C438.287 36.6497 438.028 36.8088 437.74 36.9149C437.451 37.0209 437.161 37.0761 436.868 37.0803C436.079 37.0803 435.455 36.8724 434.997 36.4567C434.764 36.673 434.505 36.83 434.221 36.9276C433.941 37.0209 433.652 37.0676 433.355 37.0676ZM450.789 27.6621C450.802 27.7003 450.829 27.7915 450.872 27.9358C450.914 28.08 450.957 28.254 450.999 28.4576C451.042 28.657 451.08 28.8733 451.114 29.1067C451.148 29.3358 451.165 29.5564 451.165 29.7685C451.165 30.2055 451.092 30.5852 450.948 30.9076C450.804 31.23 450.617 31.4973 450.388 31.7094C450.159 31.9173 449.898 32.0721 449.605 32.174C449.317 32.2758 449.026 32.3267 448.734 32.3267C448.445 32.3267 448.18 32.2927 447.938 32.2249C447.701 32.1527 447.478 32.0573 447.27 31.9385C447.308 32.3076 447.338 32.6746 447.359 33.0394C447.38 33.4043 447.395 33.7903 447.404 34.1976C447.412 34.6006 447.416 35.0376 447.416 35.5085C447.421 35.9794 447.421 36.5055 447.416 37.0867H445.851V35.5467C445.851 35.0461 445.842 34.5179 445.825 33.9621C445.813 33.4021 445.775 32.8146 445.711 32.1994C445.647 31.5843 445.55 30.9394 445.418 30.2649C445.287 29.5903 445.104 28.8861 444.871 28.1521L446.379 27.6685L446.64 28.4449C446.661 28.5085 446.695 28.6103 446.742 28.7503C446.793 28.8861 446.858 29.0409 446.939 29.2149C447.02 29.3846 447.115 29.5606 447.225 29.743C447.34 29.9212 447.472 30.0867 447.62 30.2394C447.768 30.3879 447.934 30.5109 448.116 30.6085C448.303 30.7018 448.509 30.7485 448.734 30.7485C448.785 30.7485 448.857 30.74 448.95 30.723C449.048 30.7061 449.143 30.6658 449.236 30.6021C449.334 30.5343 449.419 30.4346 449.491 30.303C449.563 30.1715 449.599 29.9933 449.599 29.7685C449.599 29.637 449.588 29.4949 449.567 29.3421C449.546 29.1852 449.518 29.0346 449.485 28.8903C449.455 28.7418 449.421 28.604 449.383 28.4767C449.349 28.3452 449.317 28.2349 449.287 28.1458L450.789 27.6621ZM457.964 31.0985C458.082 31.0985 458.199 31.0985 458.314 31.0985C458.428 31.0943 458.543 31.0879 458.657 31.0794C458.772 31.0709 458.891 31.0603 459.014 31.0476C459.141 31.0306 459.277 31.0094 459.421 30.984L459.777 32.4158C459.557 32.4794 459.344 32.5346 459.141 32.5812C458.937 32.6237 458.727 32.6597 458.511 32.6894C458.294 32.7149 458.063 32.7361 457.817 32.753C457.575 32.7658 457.302 32.7721 456.996 32.7721C456.555 32.7721 456.105 32.7382 455.647 32.6703C455.193 32.6024 454.761 32.4794 454.349 32.3012C454.374 32.6449 454.396 32.9588 454.413 33.243C454.434 33.5273 454.449 33.7967 454.457 34.0512C454.466 34.3058 454.472 34.554 454.476 34.7958C454.481 35.0376 454.483 35.2879 454.483 35.5467C454.483 35.7249 454.481 35.9073 454.476 36.094C454.476 36.2764 454.476 36.4758 454.476 36.6921V37.0867H452.898V36.6858C452.898 36.0621 452.894 35.4788 452.885 34.9358C452.881 34.3927 452.866 33.8794 452.841 33.3958C452.82 32.9121 452.788 32.4497 452.745 32.0085C452.703 31.5673 452.646 31.1346 452.574 30.7103C452.501 30.2861 452.412 29.864 452.306 29.444C452.2 29.024 452.073 28.5933 451.924 28.1521L453.452 27.6685C453.52 27.8891 453.581 28.1076 453.636 28.324C453.696 28.5403 453.753 28.7609 453.808 28.9858C453.842 29.1088 453.872 29.2361 453.897 29.3676C453.927 29.4949 453.959 29.6221 453.993 29.7494C454.069 30.0506 454.188 30.2967 454.349 30.4876C454.514 30.6743 454.693 30.8121 454.884 30.9012C454.858 30.8376 454.831 30.7697 454.801 30.6976C454.771 30.6255 454.744 30.5449 454.718 30.4558C454.697 30.3624 454.678 30.2606 454.661 30.1503C454.648 30.04 454.642 29.917 454.642 29.7812C454.642 29.3952 454.716 29.0515 454.864 28.7503C455.017 28.4449 455.214 28.1882 455.456 27.9803C455.702 27.7682 455.978 27.6091 456.284 27.503C456.593 27.3927 456.903 27.3376 457.213 27.3376C457.459 27.3376 457.686 27.3673 457.894 27.4267C458.106 27.4818 458.303 27.554 458.485 27.643C458.668 27.7321 458.84 27.8318 459.001 27.9421C459.166 28.0482 459.327 28.1521 459.484 28.254L458.734 29.5967C458.585 29.4906 458.445 29.3973 458.314 29.3167C458.182 29.2318 458.055 29.1618 457.932 29.1067C457.809 29.0515 457.688 29.0091 457.569 28.9794C457.454 28.9455 457.336 28.9264 457.213 28.9221H457.174C457.064 28.9221 456.945 28.9412 456.818 28.9794C456.691 29.0176 456.572 29.077 456.462 29.1576C456.351 29.2382 456.258 29.3379 456.182 29.4567C456.11 29.5712 456.074 29.7027 456.074 29.8512C456.074 30.093 456.131 30.2946 456.245 30.4558C456.36 30.617 456.506 30.7464 456.684 30.844C456.867 30.9373 457.071 31.003 457.295 31.0412C457.52 31.0794 457.743 31.0985 457.964 31.0985ZM466.195 38.913C466.534 38.913 466.836 38.9003 467.099 38.8749C467.366 38.8537 467.601 38.8197 467.805 38.773C468.013 38.7306 468.193 38.6733 468.346 38.6012C468.503 38.5333 468.639 38.4506 468.753 38.353C468.931 38.2088 469.065 38.0412 469.154 37.8503C469.247 37.6594 469.302 37.4027 469.319 37.0803H468.339C468.127 37.0803 467.911 37.0633 467.69 37.0294C467.47 36.9955 467.258 36.9382 467.054 36.8576C466.85 36.7727 466.657 36.6646 466.475 36.533C466.297 36.4015 466.14 36.2403 466.004 36.0494C465.872 35.8543 465.766 35.6252 465.686 35.3621C465.609 35.0991 465.571 34.7979 465.571 34.4585C465.571 34.1658 465.597 33.907 465.648 33.6821C465.699 33.453 465.762 33.2515 465.839 33.0776C465.919 32.9037 466.008 32.753 466.106 32.6258C466.203 32.4943 466.297 32.3797 466.386 32.2821C466.64 32.0276 466.929 31.8324 467.251 31.6967C467.574 31.5567 467.922 31.4867 468.295 31.4867C468.757 31.4867 469.152 31.5673 469.479 31.7285C469.809 31.8855 470.079 32.104 470.287 32.384C470.499 32.664 470.654 32.997 470.751 33.383C470.849 33.7649 470.898 34.1806 470.898 34.6303V36.8894C470.898 37.5215 470.802 38.0518 470.611 38.4803C470.42 38.913 470.13 39.2843 469.739 39.594C469.544 39.7467 469.332 39.8782 469.103 39.9885C468.874 40.103 468.617 40.1985 468.333 40.2749C468.049 40.3512 467.731 40.4064 467.379 40.4403C467.031 40.4785 466.636 40.4976 466.195 40.4976V38.913ZM468.295 33.0712C467.934 33.0712 467.648 33.1837 467.436 33.4085C467.224 33.6333 467.118 33.9833 467.118 34.4585C467.118 34.6452 467.154 34.8043 467.226 34.9358C467.302 35.0673 467.398 35.1755 467.512 35.2603C467.631 35.3409 467.762 35.4003 467.907 35.4385C468.051 35.4767 468.195 35.4958 468.339 35.4958H469.319V34.6303C469.319 34.3885 469.3 34.1827 469.262 34.013C469.224 33.8391 469.173 33.6949 469.109 33.5803C469.05 33.4658 468.98 33.3746 468.899 33.3067C468.823 33.2388 468.747 33.1879 468.67 33.154C468.598 33.12 468.528 33.0988 468.46 33.0903C468.392 33.0776 468.337 33.0712 468.295 33.0712ZM484.139 37.0803H483.96C483.629 37.0803 483.311 37.0485 483.006 36.9849C482.7 36.9255 482.418 36.8343 482.159 36.7112C481.901 36.584 481.669 36.4227 481.466 36.2276C481.266 36.0324 481.103 35.8012 480.976 35.534C480.874 35.6909 480.743 35.8309 480.581 35.954C480.424 36.0727 480.253 36.1724 480.066 36.253C479.879 36.3337 479.686 36.3952 479.487 36.4376C479.287 36.4758 479.096 36.4949 478.914 36.4949C478.575 36.4949 478.252 36.4355 477.947 36.3167C477.646 36.1979 477.38 36.0303 477.151 35.814C476.922 35.5933 476.74 35.3261 476.604 35.0121C476.473 34.6982 476.407 34.344 476.407 33.9494C476.407 33.4912 476.494 33.0882 476.668 32.7403C476.842 32.3924 477.073 32.0891 477.361 31.8303C477.65 31.5673 477.981 31.3446 478.354 31.1621C478.732 30.9755 479.122 30.8143 479.525 30.6785L479.372 30.0676L480.925 29.7049L482.083 34.2103C482.151 34.4861 482.261 34.7088 482.414 34.8785C482.567 35.044 482.732 35.1733 482.91 35.2667C483.093 35.3558 483.277 35.4173 483.464 35.4512C483.655 35.4809 483.82 35.4958 483.96 35.4958H484.139V37.0803ZM480.219 33.9176C480.24 33.8285 480.25 33.7373 480.25 33.644C480.25 33.6143 480.246 33.5633 480.238 33.4912C480.233 33.4149 480.216 33.3088 480.187 33.173C480.157 33.0373 480.117 32.8909 480.066 32.734C480.019 32.577 479.968 32.4009 479.913 32.2058C479.234 32.4221 478.719 32.6682 478.367 32.944C478.019 33.2155 477.845 33.5527 477.845 33.9558C477.845 34.1127 477.879 34.2527 477.947 34.3758C478.019 34.4988 478.11 34.6006 478.22 34.6812C478.335 34.7618 478.462 34.8191 478.602 34.853C478.691 34.8785 478.78 34.8912 478.869 34.8912C478.916 34.8912 478.965 34.887 479.016 34.8785C479.334 34.8318 479.599 34.7385 479.811 34.5985C480.023 34.4543 480.159 34.2273 480.219 33.9176ZM486.665 35.4958C486.75 35.4958 486.813 35.5191 486.856 35.5658C486.902 35.6082 486.926 35.6655 486.926 35.7376V36.8258C486.926 36.9191 486.902 36.9849 486.856 37.023C486.813 37.0612 486.75 37.0803 486.665 37.0803H484.005C483.912 37.0803 483.846 37.0612 483.808 37.023C483.769 36.9849 483.75 36.9191 483.75 36.8258V35.7376C483.75 35.6655 483.769 35.6082 483.808 35.5658C483.846 35.5191 483.912 35.4958 484.005 35.4958H486.665ZM493.364 35.4958V37.0803H492.422C492.061 37.0803 491.732 37.0315 491.435 36.934C491.138 36.8364 490.888 36.6921 490.684 36.5012C490.447 36.7006 490.165 36.847 489.838 36.9403C489.516 37.0337 489.147 37.0803 488.731 37.0803H486.529V35.4958H488.731C488.99 35.4958 489.195 35.4724 489.348 35.4258C489.505 35.3749 489.622 35.3133 489.698 35.2412C489.779 35.1691 489.83 35.0885 489.851 34.9994C489.876 34.9103 489.889 34.8233 489.889 34.7385V32.6767H491.467V34.694C491.467 34.8849 491.51 35.0355 491.594 35.1458C491.679 35.2518 491.775 35.3324 491.881 35.3876C491.991 35.4385 492.099 35.4703 492.205 35.483C492.311 35.4915 492.384 35.4958 492.422 35.4958H493.364ZM491.206 31.0349L490.137 29.953L491.194 28.8585L492.288 29.953L491.206 31.0349ZM488.54 31.0412L487.471 29.9594L488.521 28.8649L489.615 29.9594L488.54 31.0412ZM496.758 31.4676C497.152 31.4676 497.505 31.5397 497.814 31.684C498.128 31.8282 498.393 32.0191 498.61 32.2567C498.826 32.49 498.992 32.7573 499.106 33.0585C499.221 33.3597 499.278 33.6694 499.278 33.9876C499.278 34.1658 499.267 34.3227 499.246 34.4585C499.225 34.59 499.191 34.713 499.144 34.8276C499.102 34.9379 499.049 35.0461 498.985 35.1521C498.922 35.254 498.847 35.3643 498.762 35.483C498.839 35.4873 498.922 35.4915 499.011 35.4958C499.104 35.4958 499.195 35.4958 499.284 35.4958C499.378 35.4958 499.467 35.4958 499.552 35.4958C499.636 35.4958 499.711 35.4958 499.774 35.4958H500.232V37.0803H499.774C499.503 37.0803 499.225 37.0718 498.941 37.0549C498.661 37.0379 498.385 37.0146 498.113 36.9849C497.846 36.9509 497.592 36.9127 497.35 36.8703C497.108 36.8237 496.892 36.7727 496.701 36.7176C496.315 36.8279 495.882 36.917 495.402 36.9849C494.923 37.0485 494.376 37.0803 493.761 37.0803H493.092V35.4958H493.761C493.875 35.4958 493.966 35.4979 494.034 35.5021C494.102 35.5021 494.164 35.5021 494.219 35.5021C494.274 35.5021 494.331 35.5021 494.391 35.5021C494.45 35.4979 494.524 35.4915 494.613 35.483C494.435 35.2455 494.299 35.01 494.206 34.7767C494.113 34.5433 494.066 34.2803 494.066 33.9876C494.066 33.6524 494.136 33.3321 494.276 33.0267C494.416 32.7212 494.607 32.454 494.849 32.2249C495.095 31.9915 495.381 31.807 495.708 31.6712C496.035 31.5355 496.385 31.4676 496.758 31.4676ZM495.568 34.0003C495.568 34.3015 495.674 34.5582 495.886 34.7703C496.098 34.9824 496.374 35.1543 496.713 35.2858C496.875 35.2221 497.023 35.15 497.159 35.0694C497.295 34.9888 497.411 34.8976 497.509 34.7958C497.611 34.6897 497.689 34.5709 497.744 34.4394C497.804 34.3037 497.833 34.153 497.833 33.9876C497.833 33.8858 497.808 33.7797 497.757 33.6694C497.706 33.5591 497.634 33.4594 497.541 33.3703C497.447 33.277 497.335 33.2006 497.203 33.1412C497.072 33.0818 496.923 33.0521 496.758 33.0521C496.571 33.0521 496.404 33.0797 496.255 33.1349C496.107 33.1858 495.982 33.2558 495.88 33.3449C495.778 33.4297 495.699 33.5294 495.644 33.644C495.593 33.7585 495.568 33.8773 495.568 34.0003ZM495.549 28.7758L496.694 27.6176L497.865 28.7885L496.707 29.9467L495.549 28.7758ZM506.148 30.1249C506.423 30.4897 506.703 30.8588 506.988 31.2321C507.106 31.3933 507.231 31.5609 507.363 31.7349C507.499 31.9088 507.634 32.087 507.77 32.2694C507.91 32.4476 508.046 32.6258 508.178 32.804C508.309 32.9821 508.436 33.1518 508.559 33.313C508.822 33.6652 508.994 34.0491 509.075 34.4649C509.1 34.6133 509.113 34.7618 509.113 34.9103C509.113 35.1776 509.068 35.4449 508.979 35.7121C508.894 35.9667 508.769 36.2 508.604 36.4121C508.443 36.6243 508.245 36.8067 508.012 36.9594C507.779 37.1121 507.511 37.2309 507.21 37.3158C506.909 37.4006 506.578 37.443 506.218 37.443C505.912 37.443 505.596 37.4112 505.269 37.3476C504.943 37.2882 504.61 37.1737 504.27 37.004C504.194 36.97 504.12 36.9361 504.048 36.9021C503.984 36.8724 503.918 36.8427 503.85 36.813C503.782 36.7791 503.725 36.7494 503.678 36.724C503.271 36.847 502.819 36.9361 502.323 36.9912C501.831 37.0506 501.286 37.0803 500.688 37.0803H499.968V35.4958H500.688C500.806 35.4958 500.91 35.4979 500.999 35.5021C501.093 35.5021 501.182 35.5021 501.267 35.5021C501.347 35.5021 501.428 35.5 501.508 35.4958C501.593 35.4915 501.687 35.483 501.788 35.4703C501.678 35.343 501.578 35.22 501.489 35.1012C501.404 34.9782 501.33 34.8509 501.267 34.7194C501.207 34.5837 501.161 34.4415 501.127 34.293C501.097 34.1403 501.082 33.9727 501.082 33.7903C501.082 33.4424 501.148 33.1221 501.279 32.8294C501.415 32.5367 501.6 32.2864 501.833 32.0785C502.071 31.8706 502.346 31.7094 502.66 31.5949C502.978 31.4761 503.32 31.4167 503.685 31.4167C504.096 31.4167 504.461 31.4994 504.779 31.6649C505.102 31.8261 505.371 32.0318 505.588 32.2821C505.808 32.5282 505.974 32.7955 506.084 33.084C506.198 33.3724 506.256 33.6418 506.256 33.8921C506.256 34.0958 506.234 34.2824 506.192 34.4521C506.154 34.6218 506.099 34.783 506.027 34.9358C505.954 35.0843 505.865 35.2264 505.759 35.3621C505.653 35.4979 505.534 35.6315 505.403 35.763C505.534 35.8055 505.67 35.8458 505.81 35.884C505.95 35.9179 506.086 35.9349 506.218 35.9349C506.349 35.9349 506.487 35.9264 506.631 35.9094C506.775 35.8882 506.911 35.85 507.038 35.7949C507.17 35.7355 507.284 35.6549 507.382 35.553C507.484 35.4512 507.56 35.3176 507.611 35.1521C507.628 35.0927 507.637 35.0312 507.637 34.9676C507.637 34.853 507.603 34.7067 507.535 34.5285C507.467 34.3503 507.342 34.1233 507.159 33.8476C506.981 33.5718 506.758 33.2685 506.491 32.9376C506.224 32.6024 505.931 32.2376 505.613 31.843L504.951 31.0221L506.148 30.1249ZM502.584 33.7903C502.584 33.9473 502.607 34.0873 502.654 34.2103C502.705 34.3291 502.779 34.4394 502.877 34.5412C502.978 34.643 503.101 34.7427 503.246 34.8403C503.394 34.9337 503.566 35.0333 503.761 35.1394C503.893 35.0758 504.02 35.0037 504.143 34.923C504.266 34.8424 504.372 34.7533 504.461 34.6558C504.554 34.554 504.629 34.4415 504.684 34.3185C504.739 34.1955 504.767 34.0597 504.767 33.9112C504.767 33.733 504.728 33.5761 504.652 33.4403C504.576 33.3046 504.482 33.1921 504.372 33.103C504.262 33.014 504.143 32.9482 504.016 32.9058C503.893 32.8633 503.782 32.8421 503.685 32.8421C503.541 32.8421 503.401 32.8676 503.265 32.9185C503.133 32.9694 503.017 33.0394 502.915 33.1285C502.813 33.2133 502.732 33.313 502.673 33.4276C502.614 33.5421 502.584 33.663 502.584 33.7903ZM518.769 36.6921C518.744 37.2776 518.636 37.8037 518.445 38.2703C518.254 38.7412 517.991 39.14 517.656 39.4667C517.32 39.7976 516.915 40.0521 516.44 40.2303C515.965 40.4085 515.428 40.4976 514.83 40.4976H514.041V38.913H514.83C515.237 38.913 515.59 38.8706 515.886 38.7858C516.183 38.7009 516.427 38.5652 516.618 38.3785C516.809 38.1918 516.951 37.9479 517.045 37.6467C517.138 37.3497 517.185 36.987 517.185 36.5585V32.683H518.769V36.6921ZM516.758 29.9276L517.904 28.7694L519.075 29.9403L517.916 31.0985L516.758 29.9276ZM520.91 38.913C521.249 38.913 521.55 38.9003 521.813 38.8749C522.081 38.8537 522.316 38.8197 522.52 38.773C522.728 38.7306 522.908 38.6733 523.061 38.6012C523.218 38.5333 523.353 38.4506 523.468 38.353C523.646 38.2088 523.78 38.0412 523.869 37.8503C523.962 37.6594 524.017 37.4027 524.034 37.0803H523.054C522.842 37.0803 522.626 37.0633 522.405 37.0294C522.185 36.9955 521.972 36.9382 521.769 36.8576C521.565 36.7727 521.372 36.6646 521.19 36.533C521.012 36.4015 520.855 36.2403 520.719 36.0494C520.587 35.8543 520.481 35.6252 520.401 35.3621C520.324 35.0991 520.286 34.7979 520.286 34.4585C520.286 34.1658 520.312 33.907 520.362 33.6821C520.413 33.453 520.477 33.2515 520.553 33.0776C520.634 32.9037 520.723 32.753 520.821 32.6258C520.918 32.4943 521.012 32.3797 521.101 32.2821C521.355 32.0276 521.644 31.8324 521.966 31.6967C522.289 31.5567 522.636 31.4867 523.01 31.4867C523.472 31.4867 523.867 31.5673 524.193 31.7285C524.524 31.8855 524.794 32.104 525.002 32.384C525.214 32.664 525.369 32.997 525.466 33.383C525.564 33.7649 525.612 34.1806 525.612 34.6303V36.8894C525.612 37.5215 525.517 38.0518 525.326 38.4803C525.135 38.913 524.845 39.2843 524.454 39.594C524.259 39.7467 524.047 39.8782 523.818 39.9885C523.589 40.103 523.332 40.1985 523.048 40.2749C522.764 40.3512 522.446 40.4064 522.093 40.4403C521.746 40.4785 521.351 40.4976 520.91 40.4976V38.913ZM523.01 33.0712C522.649 33.0712 522.363 33.1837 522.151 33.4085C521.939 33.6333 521.832 33.9833 521.832 34.4585C521.832 34.6452 521.869 34.8043 521.941 34.9358C522.017 35.0673 522.112 35.1755 522.227 35.2603C522.346 35.3409 522.477 35.4003 522.622 35.4385C522.766 35.4767 522.91 35.4958 523.054 35.4958H524.034V34.6303C524.034 34.3885 524.015 34.1827 523.977 34.013C523.939 33.8391 523.888 33.6949 523.824 33.5803C523.765 33.4658 523.695 33.3746 523.614 33.3067C523.538 33.2388 523.462 33.1879 523.385 33.154C523.313 33.12 523.243 33.0988 523.175 33.0903C523.107 33.0776 523.052 33.0712 523.01 33.0712ZM531.019 36.6921C530.994 37.2776 530.886 37.8037 530.695 38.2703C530.504 38.7412 530.241 39.14 529.906 39.4667C529.57 39.7976 529.165 40.0521 528.69 40.2303C528.215 40.4085 527.678 40.4976 527.08 40.4976H526.291V38.913H527.08C527.487 38.913 527.84 38.8706 528.136 38.7858C528.433 38.7009 528.677 38.5652 528.868 38.3785C529.059 38.1918 529.201 37.9479 529.295 37.6467C529.388 37.3497 529.435 36.987 529.435 36.5585V32.683H531.019V36.6921ZM544.084 28.4576C543.617 29.0091 543.202 29.6433 542.837 30.3603C542.476 31.073 542.135 31.894 541.812 32.823C541.677 33.2133 541.553 33.6079 541.443 34.0067C541.333 34.4012 541.237 34.7852 541.157 35.1585C541.08 35.5276 541.021 35.8797 540.979 36.2149C540.936 36.5458 540.915 36.8385 540.915 37.093H539.337C539.337 36.8427 539.313 36.5521 539.267 36.2212C539.224 35.8861 539.163 35.5318 539.082 35.1585C539.002 34.7809 538.906 34.3927 538.796 33.994C538.686 33.5952 538.567 33.2049 538.44 32.823C538.121 31.9279 537.773 31.1176 537.396 30.3921C537.018 29.6667 536.605 29.0303 536.155 28.483L537.383 27.4458C537.659 27.7767 537.924 28.1606 538.179 28.5976C538.433 29.0346 538.675 29.5033 538.904 30.004C539.133 30.5003 539.35 31.0158 539.553 31.5503C539.757 32.0849 539.948 32.6152 540.126 33.1412C540.3 32.6194 540.487 32.0933 540.686 31.563C540.89 31.0285 541.106 30.5109 541.335 30.0103C541.564 29.5097 541.806 29.0409 542.06 28.604C542.315 28.1627 542.584 27.7746 542.869 27.4394L544.084 28.4576Z" fill="white"/>
<path d="M624.667 37.6667H635.333M624.667 32.3333H630M643.288 33.9555C643.318 34.2997 643.333 34.6481 643.333 35C643.333 41.6274 637.961 47 631.333 47H622C619.054 47 616.667 44.6122 616.667 41.6667V35C616.667 28.3726 622.039 23 628.667 23H631.333C631.685 23 632.033 23.0151 632.378 23.0448M643.333 27C643.333 29.2091 641.542 31 639.333 31C637.124 31 635.333 29.2091 635.333 27C635.333 24.7909 637.124 23 639.333 23C641.542 23 643.333 24.7909 643.333 27Z" stroke="white" strokeWidth="2" strokeLinecap="round"/>
</svg>
