<?xml version="1.0" encoding="UTF-8"?>
<svg id="Pattern" xmlns="http://www.w3.org/2000/svg" xmlns:xlink="http://www.w3.org/1999/xlink" version="1.1" viewBox="0 0 800 800">
  <!-- Generator: Adobe Illustrator 29.0.1, SVG Export Plug-In . SVG Version: 2.1.0 Build 192)  -->
  <defs>
    <style>
      .st0 {
        fill: none;
      }

      .st1 {
        fill: url(#Nueva_muestra_de_motivo_2);
      }

      .st2 {
        fill: #000;
      }

      .st3 {
        fill: #000;
      }
    </style>
    <pattern id="Nueva_muestra_de_motivo_2" data-name="Nueva muestra de motivo 2" x="0" y="0" width="274.42" height="248.8" patternTransform="translate(-50 599.8)" patternUnits="userSpaceOnUse" viewBox="0 0 274.42 248.8">
      <g>
        <rect class="st0" x="0" y="0" width="274.42" height="248.8"/>
        <g>
          <path class="st3" d="M309.21,128.88c3.66,2.65,7.5,4.75,12.14,4.32,5.37-.5,9.12-5.12,11.84-9.28,2.11-3.23,3.96-6.4,7.72-7.82,2.85-1.08,6.13-.55,8.76.82,4.19,2.18,3.44,6.75,1.1,10.03-2.56,3.6-7.61,5.22-11.46,6.96-14.75,6.69-23.49,20.9-37.05,29.42-6.06,3.81-14.88,7.83-21.85,4.1-4.63-2.49-7.31-8.37-9.92-12.67-.57-.93-1.96,0-1.4.93,2.69,4.44,5.33,9.97,9.89,12.82,5.3,3.32,11.27,2.05,16.8-.05,8.7-3.3,15.93-9.63,22.54-15.99,3.79-3.65,7.3-7.61,11.35-10.96,4.13-3.41,9.11-5.52,13.94-7.71,5.23-2.37,11.29-6.33,10.83-12.84-.32-4.48-5.33-6.68-9.17-7.06-5.57-.55-9.35,2.81-12.22,7.16-2.74,4.14-5.16,7.96-9.92,9.95-4.55,1.9-9.24-.82-12.82-3.42-.87-.63-1.99.63-1.11,1.27Z"/>
          <path class="st3" d="M271.38,153.69c2.04,3.12,3.81,6.39,6.17,9.3.67.84,2.09-.08,1.4-.93-2.35-2.9-4.13-6.18-6.16-9.3-.59-.91-1.99.02-1.41.93Z"/>
          <path class="st3" d="M273.55,151.24c2.17,3.37,3.77,7.07,6.1,10.35.63.88,2.04-.05,1.4-.93-2.33-3.28-3.94-6.97-6.1-10.35-.59-.91-1.99.01-1.4.93Z"/>
        </g>
        <g>
          <path class="st2" d="M204.49,230.21c-4.16,3.47-11.66,2.64-16.61,4.06-3.37.97-8.79,5.09-12.46,3.7-3.4-1.29-3.29-5.05-3.7-8.15-.54-4.21-2.85-8.03-4.12-12.04-.54-1.71-1.39-3.79-1.02-5.64.25-1.25.74-2.43,1.77-3.24,1.75-1.38,6.78-2.35,6.68-5.18,0-.1.02-.18.04-.26-2.09-.83-3.77-2.52-4.62-4.93-2.16-6.11-4.4-12.38-6.24-18.59-1.67-5.64-2.54-13.21,5.43-16.15,8.73-2.18,10.6,7.77,12.32,13.82,1.31,4.58,3.26,8.9,4.79,13.41.68,1.99,1.86,4.53,1.13,6.7-.34,1.02-.85,1.9-1.48,2.66,4.12,1.36,10.56-2.04,13.19,2.42,1.1,1.88,1.44,3.87,1.89,5.98.79,3.71,2.03,7.23,3.34,10.78,1.31,3.57,3.11,7.77-.35,10.65ZM185.11,201.66c-.9.71-1.94,1.25-3.05,1.65,1.49,4.77,3.49,9.37,4.87,14.14,4.72-1.34,9.49-2.52,14.15-3.75-.54-1.82-1.02-3.65-1.4-5.54-.56-2.71-1.27-6.31-5.04-6.04-3.43.25-6.36,1.07-9.52-.47ZM180.24,202.15c4.7-1.22,7.03-4.39,5.41-9.16-1.69-4.97-4.05-9.79-5.29-14.9-1.14-4.67-2.93-14.71-10-12.64-7.74,2.27-5.89,10.46-4.12,15.22,1.62,4.37,3.33,8.78,4.59,13.27,1.31,4.66,3.6,9.73,9.43,8.21ZM168.46,214.83c.67,2.29,1.49,4.49,2.37,6.7.18.44.36.89.55,1.34,4.48-1.99,9.2-3.57,13.98-4.97-1.38-4.78-3.43-9.38-4.92-14.13-.19.04-.38.1-.57.13-1.1.19-2.16.19-3.15.02,0,2.29-1.16,3.61-3.37,4.38-3.11,1.08-6.02,2.6-4.88,6.52ZM204.42,223.45c-.7-2.17-1.56-4.29-2.32-6.44-.2-.56-.35-1.13-.53-1.69-4.67,1.23-9.47,2.41-14.22,3.75.36,1.4.66,2.81.86,4.25.07.04.13.11.2.17,1.72-.34,3.49.12,4.78,1.32.8.74-.36,1.96-1.15,1.22-.69-.64-1.59-.99-2.51-1,.75.97,1.67,1.88,2.75,2.22,1.03.32.63,1.96-.41,1.63-1.1-.34-2.06-1.06-2.89-1.93.1.67.19,1.35.26,2.03.11,1.08-1.57,1.1-1.69.03-.12-1.18-.3-2.34-.55-3.5-.73.94-.79,2.64-.61,3.63.19,1.06-1.42,1.54-1.61.47-.37-2.06-.01-4.69,1.81-5.91-.18-1.42-.47-2.81-.82-4.18-4.7,1.37-9.32,2.91-13.7,4.87-.03.01-.06.01-.09.02.59,1.5,1.12,3.03,1.32,4.56.23,1.8.12,3.91.87,5.58,1.9,4.31,8.44-.17,11.24-1.26,4.69-1.81,9.89-1.53,14.66-3.03,3.59-1.13,5.6-2.94,4.35-6.83Z"/>
          <path class="st2" d="M246.52,195.33c5.07-1.9,11.88,1.35,17.02,1.63,3.5.19,9.97-1.91,12.98.61,2.79,2.33,1.45,5.85.8,8.92-.87,4.16.05,8.53-.07,12.72-.05,1.8.07,4.04-.89,5.67-.65,1.1-1.5,2.05-2.74,2.48-2.1.73-7.18-.01-8.02,2.69-.03.1-.08.16-.13.24,1.7,1.48,2.73,3.62,2.74,6.18.03,6.48.08,13.13-.23,19.6-.28,5.88-1.95,13.31-10.45,13.46-8.97-.82-7.45-10.82-7.09-17.1.28-4.76-.14-9.48-.11-14.23.02-2.11-.26-4.88,1.14-6.7.66-.85,1.43-1.51,2.27-2.03-3.44-2.64-10.65-1.55-11.66-6.63-.42-2.14-.09-4.13.18-6.27.47-3.76.46-7.5.4-11.28-.07-3.81-.38-8.36,3.83-9.94ZM255.42,228.67c1.08-.38,2.24-.54,3.43-.55.17-4.99-.21-9.99.06-14.96-4.9-.29-9.79-.74-14.6-1.12-.09,1.89-.24,3.79-.5,5.69-.36,2.74-.88,6.38,2.78,7.36,3.32.89,6.36,1.08,8.83,3.58ZM260.17,229.82c-4.84-.4-8.08,1.83-8.12,6.87-.04,5.25.6,10.58.09,15.81-.46,4.78-2.07,14.86,5.29,15.23,8.05.41,9-7.94,8.91-13.01-.09-4.66-.25-9.38.04-14.04.3-4.83-.19-10.37-6.2-10.86ZM275.48,221.72c.12-2.38.07-4.73-.03-7.11-.02-.47-.05-.96-.08-1.45-4.88.4-9.86.34-14.83.09-.28,4.97.15,9.99-.01,14.96.2.02.39.03.58.06,1.1.18,2.1.53,2.98,1.02.76-2.17,2.28-3.03,4.63-3.03,3.29,0,6.54-.47,6.75-4.55ZM244.35,201.75c-.06,2.28.07,4.56.07,6.85,0,.6-.05,1.18-.06,1.77,4.82.38,9.74.84,14.66,1.14.12-1.44.3-2.87.59-4.3-.06-.06-.09-.15-.13-.23-1.73-.25-3.25-1.27-4.08-2.83-.51-.96.98-1.73,1.49-.77.44.83,1.17,1.46,2.04,1.77-.39-1.17-.96-2.33-1.87-3-.87-.64.04-2.06.92-1.41.93.69,1.59,1.68,2.09,2.77.13-.67.27-1.34.42-2,.25-1.06,1.84-.52,1.6.53-.27,1.15-.49,2.31-.63,3.48,1-.65,1.61-2.24,1.78-3.23.17-1.06,1.85-.99,1.68.08-.33,2.07-1.53,4.43-3.66,4.99-.3,1.4-.48,2.81-.61,4.22,4.88.25,9.76.32,14.54-.09.03,0,.06,0,.09.01-.06-1.61-.06-3.23.26-4.74.37-1.78,1.17-3.73,1.02-5.56-.38-4.69-8.03-2.61-11.03-2.51-5.03.17-9.84-1.81-14.84-1.97-3.76-.11-6.26.93-6.36,5.01Z"/>
          <path class="st2" d="M219.62,188.21c-.34.38-.88.24-1.29-.09-.26.09-.58.06-.96-.21-2.54-1.81-5.33-2.94-7.97-4.56-2.7-1.65-5.07-3.62-8.02-4.82-.72-.29-.97-.9-.86-1.34,0,0,0-.01,0-.02,1.1-7-.68-14.67,3.69-20.32,2.53-3.27,6.8-5.47,12.04-5.13,0-.05-.05-.11-.05-.16.31-7.42-1.19-16.2,5.77-20.36,4.69-2.8,11.85-1.3,17.72,2.06.26.15.41.33.52.51,6.35,3.99,10.62,10.07,9.52,15.83-.52,2.72-1.7,5.28-3.88,7.05-3.11,2.52-7.97,2.82-11.06,5.22,9.73,14.07-8.55,18.94-15.16,26.34ZM240.06,153.04c-2.52,2.33-5.58,4.17-8.1,6.48.41.24.81.48,1.21.74,4.44-3.41,11.48-3.13,13.68-8.87.86-2.23.92-4.55.26-6.81-2,3.06-4.31,5.93-7.05,8.46ZM229.11,157.85c.26.15.52.3.79.45,2.59-2.48,5.9-4.29,8.47-6.8,2.92-2.85,5.43-5.91,7.54-9.32.04-.06.09-.09.14-.13-.79-1.44-1.85-2.85-3.23-4.15-2.16,4.24-5.06,7.98-7.76,11.88-1.9,2.75-3.3,5.84-5.94,8.06ZM231.2,145.69c-1.7,3.53-4.05,6.66-5.84,10.14.59.31,1.18.64,1.78.96.01-.15.07-.3.21-.42,3.32-2.76,5.12-6.99,7.58-10.39,2.21-3.06,4.33-6.14,6.02-9.51.02-.04.05-.05.08-.08-.69-.52-1.41-1.03-2.21-1.51-.04.03-.06.07-.11.1-4.26,2.28-5.62,6.79-7.51,10.71ZM222.44,153.45c-.09.29-.33.43-.62.47.49.27.99.54,1.49.8,0,0,0,0,0,0,2.18-4.27,4.92-8.18,6.94-12.54,1.55-3.33,3.19-6.48,6.46-8.53-1.54-.69-3.13-1.22-4.7-1.55-.03.12-.1.22-.23.31-6.79,4.74-7.04,13.69-9.34,21.03ZM218.37,151.94c.62.38,1.26.72,1.9,1.09-.02-.11-.02-.23.01-.35,2.26-7.23,2.69-15.86,8.72-20.96-3.61-.14-6.79.95-8.44,3.71-2.83,4.7-2,10.83-2.18,16.51ZM232.59,161.9s0-.03-.02-.04c-4.72-3.04-9.82-5.34-14.63-8.22-.1.01-.2.03-.32.01-16.08-2.09-13.63,14.42-14.87,23.7,2.27,1.1,4.18,2.54,6.38,3.88,2.98,1.82,6.17,3.18,9.02,5.2,6.3-6.67,24.08-11.45,14.44-24.53Z"/>
          <g>
            <g>
              <path class="st2" d="M260.83,88.49c.52.94,2.07.29,1.55-.66-4.44-8.11-7.54-16.81-11.13-25.31-.42-1-1.97-.34-1.55.66,3.59,8.5,6.69,17.2,11.13,25.31Z"/>
              <path class="st2" d="M257.75,89.5c.53.94,2.08.28,1.55-.66-4.68-8.31-7.64-17.38-11.33-26.14-.42-1-1.97-.34-1.55.66,3.69,8.76,6.65,17.83,11.33,26.14Z"/>
              <path class="st2" d="M255.15,90.92c.52.94,2.07.29,1.55-.66-4.44-8.11-7.54-16.81-11.13-25.31-.42-1-1.97-.34-1.55.66,3.59,8.5,6.69,17.2,11.13,25.31Z"/>
              <path class="st2" d="M252.07,91.93c.53.94,2.08.28,1.55-.66-4.68-8.31-7.64-17.38-11.33-26.14-.42-1-1.97-.34-1.55.66,3.69,8.76,6.65,17.83,11.33,26.14Z"/>
              <path class="st2" d="M249.44,93.64c.53.94,2.08.28,1.55-.66-4.68-8.31-7.64-17.38-11.33-26.14-.42-1-1.97-.34-1.55.66,3.69,8.76,6.65,17.83,11.33,26.14Z"/>
              <path class="st2" d="M246.06,94.65c.53.93,2.08.28,1.55-.66-4.68-8.31-7.64-17.38-11.33-26.14-.42-1-1.97-.34-1.55.66,3.69,8.76,6.65,17.83,11.33,26.14Z"/>
              <path class="st2" d="M243.43,96.36c.53.94,2.08.29,1.55-.66-4.68-8.31-7.64-17.38-11.33-26.14-.42-1-1.97-.34-1.55.66,3.69,8.76,6.65,17.83,11.33,26.14Z"/>
              <path class="st2" d="M240.37,97.39c.53.94,2.08.28,1.55-.66-4.68-8.31-7.64-17.38-11.33-26.14-.42-1-1.97-.34-1.55.66,3.69,8.76,6.65,17.83,11.33,26.14Z"/>
              <path class="st2" d="M237.73,99.11c.53.94,2.08.28,1.55-.66-4.68-8.31-7.64-17.38-11.33-26.14-.42-1-1.97-.34-1.55.66,3.69,8.76,6.65,17.83,11.33,26.14Z"/>
              <path class="st2" d="M234.36,100.11c.53.94,2.08.28,1.55-.66-4.68-8.31-7.64-17.38-11.33-26.14-.42-1-1.97-.34-1.55.66,3.69,8.76,6.65,17.83,11.33,26.14Z"/>
              <path class="st2" d="M230.67,99.86c0,.16.04.32.15.48.22.3.4.62.6.93.1.18.19.37.3.55.04.08.11.14.17.2,2.05,3.65,2.96,7.88,5.77,11.11.12.13.25.2.39.24.12.18.3.31.58.34,2.03.2,4.03.59,6.03,1,.11.1.25.18.44.2,9.76,1.14,9.08,10.61,10.9,18.14,1.15,4.78,3.67,9.31,9.14,8.94,5.47-.37,9.69-6.68,9.23-11.76-.33-3.61-3.85-6.42-6.21-8.76-4.77-4.74-4.73-10.01-2.29-15.86.09-.07.16-.17.22-.28,1.09-2.17,2.24-4.31,3.49-6.39.22-.36.14-.74-.07-1,0-.04.01-.08,0-.13-.87-5.88-4.37-11.12-6.44-16.64-2.58-6.87-6.26-13.43-8.46-20.42-.32-1.04-1.87-.37-1.55.66,1.86,5.94,4.88,11.6,7.25,17.36,1.2,2.92,2.18,5.91,3.51,8.77,1.61,3.47,3.45,6.66,4.02,10.5.02.14.07.25.13.35-1.17,1.97-2.26,3.99-3.3,6.03-.11.08-.21.19-.28.34-2.59,6.07-2.9,11.55,1.54,16.8,3.13,3.7,8.13,6.63,6.39,12.3-1.39,4.56-7.82,8.88-11.89,4.87-3.98-3.92-3.63-11.84-4.94-16.92-1.34-5.18-4.72-7.83-9.86-8.53-.1-.08-.22-.15-.38-.18-2.09-.43-4.17-.84-6.29-1.06-2.93-3.37-3.81-7.88-6.1-11.64-4.45-8.11-7.36-16.9-10.94-25.41-.42-1-1.97-.34-1.55.66,3.4,8.07,6.2,16.41,10.28,24.17Z"/>
            </g>
            <path class="st2" d="M260.41,133.81c-1.06-2.41-.43-6.06,2.33-7.07,4.92-1.81,8.85,5.79,4.65,8.47-1.05.92-2.27,1.42-3.79,1.13-1.36-.26-2.63-1.27-3.19-2.53ZM263.56,134.57c.85.27,1.55.16,2.17-.2.08-.14.19-.27.38-.35.12-.05.22-.12.32-.19.15-.15.31-.3.45-.48.06-.07.13-.11.19-.15,1.29-1.94-.72-5.72-3.21-5.07-1.83.48-2.64,2.57-2.17,4.3.26.95.9,1.83,1.87,2.14Z"/>
          </g>
          <path class="st2" d="M113.13,183.2c-4.19,5.3-12.43,5.29-18.49,4.18-3.92-.72-7.77-1.87-10.9-4.41-3.33-2.7-4.06-7.18-4.44-11.19-2.29-.76-4.29-1.18-5.33,1.12.34.11.68.2,1.01.32.46.17.66.6.55,1.06-1,4.19-3.61,12.38-4.97,15.32,12.67,8.66,17.67,30.81,9.2,43.82-8.03,12.34-25.5,19.29-39.41,13.05-12.14-5.44-23.53-17.9-20.25-32.22,1.94-8.46,7.4-16.91,13.89-22.62,5.68-4.99,11.69-7.01,19.11-6.93,1.78-5.17,1.95-10.95,5.23-15.5.24-.33.58-.42.96-.34.64.13,1.28.28,1.92.42,1.35-4.55,2.46-9.14,7.57-10.59,1.35-.38,3.04.26,4.04,1.18,2.73,2.49,3.82,5.97,7.86,6.67,7.03-4.98,17.63-6.74,25.37-2.24,5.52,3.2,12.03,12.63,7.06,18.91ZM69.2,190.58c-2.24-.4-4.43-.99-6.61-1.64-2.23,7.87-4.27,16.49-7.6,24.31,7.59,2.4,14.87,5.87,22.77,7.22.67.12.89.84.69,1.3.06.12.1.26.07.44-2.33,16.47-19.85,27.2-35.29,20.49-12.76-5.54-25.36-24.45-14.85-37,.19-.23.43-.31.68-.31.18-.17.44-.25.75-.11,7.61,3.39,15.68,5.12,23.62,7.48,3.35-7.81,5.34-16.49,7.55-24.31-2.24-.71-4.46-1.46-6.69-2.19-.12.07-.26.12-.44.12-8.35-.26-15.02,2.33-20.77,8.5-4.99,5.37-10.04,12.51-11.36,19.88-2.36,13.22,7.32,25.29,19.15,30.11,12.89,5.26,30.39.1,37.49-12.36,7.28-12.77,3.7-33.23-8.89-41.63-.13-.08-.21-.19-.27-.3ZM37.25,232.18c7.41-4.05,12.1-10.51,15.48-17.86-7.81-2.25-15.73-4.05-23.2-7.34-9.39,11.87,3.04,29.88,15.23,34.55,14.18,5.43,29.97-4.38,32.09-19.38,0-.06.04-.1.06-.16-7.66-1.46-14.66-4.83-22.11-7.07-.16-.05-.32-.09-.47-.14-3.52,7.75-8.44,14.6-16.29,18.89-.96.52-1.73-.98-.78-1.5ZM61.82,171.12c-2.48-.51-2.91-.42-3.87,2.22-.48,1.32-.89,2.64-1.21,4.01-.58,2.46-1.08,4.93-1.86,7.33,4.67,1.53,9.3,3.26,14.15,4.17,1.76-4.69,3.46-9.4,4.69-14.26-3.92-1.33-8-2.05-11.9-3.47ZM79.44,170.06c.15-.67.28-1.34.4-2.02-3.37-.84-4.57-3.09-6.97-5.75-5.57-6.17-8.71,3.12-10.01,7.4,3.11,1.08,6.34,1.77,9.49,2.69,1.31-3.5,3.6-3.44,7.09-2.33ZM103.54,164.94c-7.22-2.7-15.54-1.59-21.81,2.91-.05.04-.11.05-.16.07-.18,1.1-.41,2.18-.65,3.28,0,.03.02.05.02.08.42,4.51,1.27,9.27,5.64,11.68,2.39,1.32,5.05,2.18,7.73,2.67,5,.92,12.8,1.61,16.69-2.5,5.68-6-1.24-15.85-7.47-18.17Z"/>
          <path class="st2" d="M39.82,22.91c.13.32.06.8-.26.99-.21.13-.41.27-.61.39,6.1,5.63,10.22,13.25,14.8,20.08,2.92,4.35,5.82,8.71,8.48,13.23,2.36,4,4.25,8.27,7.73,11.47.37.34.34.82.13,1.16,0,.22-.09.43-.31.61-.11.09-.22.18-.33.26,3.34,3.17,6.08,7.2,8.08,11.34.3.62-.22,1.11-.75,1.13-5.07,5.69-11.33,10.01-17.31,14.67-.38.29-.88.2-1.18-.14-3.06-3.5-6.3-6.82-9.25-10.42-.22.18-.44.36-.67.54-.3.24-.62.22-.88.07-.21,0-.42-.08-.6-.25-6.59-6.42-12.27-13.69-18.34-20.58-3.07-3.48-6.3-6.83-9.33-10.34-2.87-3.32-5.49-6.85-8.82-9.73-.09-.08-.15-.17-.2-.25-.58.42-1.16.83-1.75,1.23-.37.25-.9.25-1.18-.14-1.97-2.67-4.34-4.97-6.45-7.52-.04-.05-.06-.11-.09-.17-.29-.25-.41-.66-.06-1.02,9.5-9.93,21.81-16.27,32.23-25.12.22-.19.46-.22.67-.17.31-.13.69-.11.97.22,2.18,2.51,4.03,5.36,5.27,8.46ZM32.2,26.76c.6-.45,1.21-.88,1.83-1.32-.93-2.35-2.38-4.43-3.92-6.42-.04-.05-.05-.1-.08-.16-.78.6-1.56,1.2-2.35,1.78,1.9,1.74,3.03,4.05,4.52,6.12ZM23.71,23.5c1.87,1.84,3.41,3.93,4.87,6.11.75-.62,1.52-1.23,2.28-1.83-1.46-2.05-2.54-4.43-4.49-6.07-.02-.02-.03-.04-.05-.07-.86.62-1.73,1.25-2.6,1.86ZM19.74,26.29c2.1,1.82,3.61,4.13,5.27,6.33.66-.56,1.31-1.14,1.98-1.7.09-.08.19-.16.28-.23-1.41-2.11-2.88-4.21-4.72-5.98-.09-.08-.14-.17-.18-.26-.88.62-1.76,1.23-2.64,1.85ZM15.79,29.07c2.09,2.04,4.01,4.21,5.56,6.68.79-.69,1.59-1.36,2.38-2.04-1.61-2.13-3.05-4.43-5.11-6.18-.11-.09-.18-.19-.23-.3-.87.61-1.74,1.22-2.61,1.84ZM12.31,31.61c.08.04.16.08.23.15,2.09,2.07,3.94,4.34,5.76,6.64.59-.51,1.18-1.03,1.78-1.54-1.53-2.47-3.43-4.65-5.52-6.67-.05-.05-.07-.1-.11-.16-.72.52-1.43,1.04-2.14,1.58ZM14.6,41.54c.81-.67,1.61-1.36,2.41-2.04-1.83-2.32-3.7-4.61-5.8-6.7-.08-.07-.12-.15-.15-.23-.78.61-1.57,1.21-2.34,1.84,1.79,2.51,3.94,4.73,5.87,7.12ZM5.38,37.3c1.92,2.36,4.16,4.42,6.1,6.76.62-.48,1.21-.97,1.81-1.46-1.92-2.38-4.05-4.59-5.84-7.08-.69.59-1.4,1.17-2.07,1.78ZM10.13,45.08c-1.9-2.3-4.1-4.33-5.99-6.64-.56.53-1.11,1.07-1.65,1.63,1.85,2.19,3.85,4.23,5.61,6.49.69-.48,1.36-.98,2.04-1.48ZM56.39,93.48c1.79-1.01,3.31-2.37,4.8-3.77,0-.02-.02-.03-.02-.05-.36-2.29.14-5.43,2.24-6.82,2.03-1.35,4.03-.57,5.65.88,1.67-1.36,3.32-2.82,4.55-4.6.03-.04.07-.06.1-.09-1.54-2.46-3.35-4.81-5.41-6.73-.06-.05-.08-.11-.12-.16-5.98,4.78-11.85,9.71-17.82,14.49,1.93,2.36,3.98,4.6,6.04,6.85ZM74.62,80.56c-1.37,1.83-3.14,3.39-4.92,4.81-.11.08-.21.13-.32.16-.32.15-.72.15-1.03-.17-1.23-1.3-3.21-2.4-4.54-.58-.99,1.36-1.23,3.02-.98,4.65.02.1,0,.18-.01.27.12.31.1.68-.21.97-1.6,1.51-3.22,2.93-5.1,4.06.51.56,1.02,1.13,1.53,1.7,5.74-4.43,11.74-8.59,16.56-14.07-.31-.61-.66-1.2-1-1.8ZM37.5,25.23c-9.36,6.06-17.06,14.25-25.97,20.93,3.4,2.97,5.98,6.6,9.01,9.92,3.13,3.43,6.28,6.84,9.33,10.34,5.89,6.76,11.5,13.83,17.89,20.13,6.93-5.5,13.67-11.22,20.59-16.72-2.51-2.5-4.27-5.48-5.99-8.59-2.77-4.99-5.87-9.77-9.06-14.51-4.86-7.25-9.22-15.64-15.81-21.5ZM33.64,15.98c-.77.65-1.55,1.27-2.34,1.89.04.04.09.06.13.11,1.56,2.01,3.04,4.14,4.02,6.51.57-.37,1.13-.75,1.71-1.1,1.83-1.09-1.92-5.56-3.52-7.41Z"/>
          <g>
            <path class="st2" d="M108.78,50.09c-.83,4.03-5.38,7.83-9.62,7.13-8.05-1.34-9.36-14.64-.53-15.06.15-.17.37-.28.64-.28,2.77-.02,5.82-.39,7.84,1.95,1.56,1.81,2.15,3.92,1.66,6.27ZM104.36,43.87c-1.57-.51-3.2-.38-4.82-.34-.15.15-.36.25-.63.25-7.29-.05-5.61,11.87,1.01,11.8,3.3-.03,6.88-2.81,7.3-6.21.26-2.1-.61-4.77-2.86-5.5Z"/>
            <path class="st2" d="M145.03,52.74c-1.62,4.77-6.75,6.63-11.4,5.48-9.87-2.44-6.42-17.85,3.28-16.43.08-.02.16-.04.26-.03,5.31.53,9.72,5.46,7.85,10.97ZM137.1,43.46c-.1.02-.2.03-.32.01-7.31-1.12-10.77,10.59-3.36,12.93,3.33,1.05,8.06.4,9.64-3.22,2.04-4.68-1.09-9.18-5.96-9.73Z"/>
            <path class="st2" d="M143.31,59.61c-1.2.61-2.5,1.02-3.82,1.3,1.94,8.86-5.3,15.89-8.42,23.52-.1.24-.27.39-.46.46,1.48,2.12,2.81,4.36,3.94,6.75,3.06,6.48,5.03,13.33,6.46,20.34,1.62,7.93,2.37,16.18,5.32,23.76.22.57-.17,1.03-.63,1.14,0,.71-1.18,1.09-1.64.3-7.67-13.08-11.48-27.79-18.05-41.34-.21,3.27-.99,6.45-1.26,9.73-.3,3.62-.37,7.25-.65,10.87-.58,7.31-1.45,14.61-1.63,21.95-.02.94-1.23.87-1.6.25-8.84-14.43-3.11-34.47.21-49.69.07-.33.29-.53.55-.63-3.26-4.51-7.16-8.35-10.92-12.67-4.09-4.7-7.05-9.77-9.22-15.61-.1-.26-.07-.49.03-.69-4,.37-8.05-.95-10.25-4.25-2.97-4.46-2.12-9.72,1.45-13.68.05-.12.13-.24.27-.34.04-.02.07-.04.1-.06.21-.21.42-.43.64-.63.24-.22.5-.25.72-.17,5.85-3.04,13.66-1.71,16.37,4.4,1.84,4.14,1.16,9.61-2.95,12.53,1.66,3.19,3.2,6.57,5.36,9.45,2.48,3.31,5.61,5.78,8.68,8.5,1.84,1.64,3.56,3.37,5.15,5.19,3.5-5.3,6.85-12.44,5.48-18.87-.04-.21,0-.38.08-.52-2.64-.66-4.98-2.11-6.53-4.42-3.33-5-2.38-10.9,1.62-15.34.06-.14.14-.27.3-.38.04-.03.08-.05.12-.07.23-.24.47-.48.72-.7.27-.25.56-.28.81-.2,6.56-3.41,15.32-1.91,18.36,4.94,2.26,5.08,1.14,11.97-4.71,14.91ZM104.36,57.23c12.7-5.14,2.01-23.27-10.15-15.1-2.92,3.04-4.23,7.43-2.16,11.1,2.26,4.03,7.52,5.93,12.32,4ZM124.84,93.53c-.69-1.33-1.45-2.57-2.25-3.77-3.07,13.95-8.07,31.79-1.67,45.47.34-6.87,1.16-13.7,1.6-20.56.23-3.55.18-7.18.72-10.7.5-3.26,1.17-6.48,1.17-9.79,0-.35.19-.56.43-.65ZM125.93,81.37c-2.94-3.22-6.34-5.83-9.53-8.78-4.51-4.17-7.19-9.24-10-14.61-1.12.54-2.3.93-3.52,1.16.04.06.09.11.12.2,2.66,7.15,6.67,12.86,11.91,18.35,4.88,5.13,9.19,10.26,12.25,16.69,5.96,12.53,9.86,25.94,16.32,38.23-4.14-13.25-4.08-27.59-10.46-40.29-1.94-3.86-4.15-7.75-7.08-10.96ZM137.83,61.17c-1.22.13-2.44.16-3.62,0,1.48,7.03-2.19,14.74-6.02,20.45.5.62.98,1.25,1.46,1.89,3.06-7.21,10.01-14,8.19-22.34ZM129.41,41.92c-3.28,3.41-4.74,8.33-2.43,12.45,2.53,4.52,8.43,6.65,13.81,4.48,14.25-5.76,2.26-26.1-11.39-16.94Z"/>
            <path class="st2" d="M127.08,85.29c-.42-.1-.84-.08-1.23.03-.17-.01-.33-.02-.48,0-.35.03-.7.38-.71.74,0,.13,0,.29.02.44-.16.79.33,1.75,1.17,1.87.93.13,2.23-.55,1.99-1.64-.02-.11-.06-.2-.11-.29.19-.48-.1-1.01-.66-1.14Z"/>
          </g>
          <g>
            <path class="st3" d="M193.76,113.99s0,0,.02,0c.01,0,0,0-.02,0Z"/>
            <path class="st3" d="M193.04,122.64c-1.5,7.55-2.39,15.2-4.2,22.69-.07.29-.25.46-.46.56-.09.15-.24.27-.47.31-3.57.7-7.46-.42-10.93-1.26-3.7-.89-7.43-1.52-10.83-3.3-.18-.09-.28-.22-.35-.36-.15-.17-.23-.4-.18-.68,1.45-7.47,2.25-15.32,4.49-22.59-.03-.02-.06-.02-.09-.05-2.67-2.24-.28-6.58,2.04-8.12.17-.23.44-.38.79-.32.62.11,1.23.23,1.85.36,1.13-6.07,3.27-17.36,5.1-22.4.27-1.89,2.62-3.3,4.34-3.41.68-2.7,2.16-8.68,2.44-11.47.02-.2.11-.34.21-.45.18-.65.44-1.27.72-1.73,2-3.23,5.78-5.26,9.39-6.09.31-.07.57.03.76.19.19,0,.38.04.56.19.74.62.99,1.44.95,2.32.11.16.18.36.16.59-.51,5.03-3.18,13.06-3.77,18.06.1.03.2.07.3.15,1.61,1.24,2.3,3.07,1.69,4.65,0,.03,0,.06,0,.1-1.05,5-3.58,18.23-4.64,23.3,0,0,.79.11.86.11.03,0,.09.03.12.03.02,0,.04,0,.06,0,5.06.98,2.61,7.28-.93,8.61ZM188.93,74.32c2.28.24,4.52-1.21,6.01-2.83.76-.82,3.62-4.16,2.2-5.48-2.52.62-5.04,1.78-6.86,3.66-.41.42-3.53,4.42-1.35,4.65ZM185.29,86.37s.01.02.02.04c.77,3.75,5.95,3.07,8.11.94.11-.11.23-.17.35-.21.25-4.12,2.23-11.32,3.14-15.31-.1.12-.2.23-.29.33-2.04,2.21-5.26,4.63-8.45,3.68-.14-.04-.24-.12-.36-.18-.49,2.44-1.92,8.11-2.45,10.54-.01.06-.05.11-.07.16ZM184.46,91.66c1.33.68,2.85.97,4.35.92,1.75-.06,10.14-1.46,6.52-4.97-.09.23-.24.42-.45.5-.03.13-.09.25-.21.37-2.96,2.93-9.91,3.57-10.95-1.53-.04-.21,0-.39.07-.54-.08-.15-.12-.32-.07-.53,0-.02.01-.04.01-.05-3.6.6-1.45,4.73.73,5.84ZM176.37,110.22c4.96,1.1,9.92,2.57,14.9,3.41,0-.02,0-.04,0-.06.88-4.2,3.23-16.7,4.13-20.89-2.66,1.42-6.04,1.99-8.98,1.39-2.3-.47-4.49-1.78-5.73-3.76-1.15,4.37-3.3,14.61-4.31,19.92ZM187.27,144.61c1.72-7.24,2.62-14.63,4.05-21.93-6.93-.99-12.78-2.56-19.63-4.04-2.12,7.01-2.94,14.53-4.3,21.72,3.13,1.53,6.56,2.14,9.94,2.93,3.04.72,6.8,1.9,9.94,1.32ZM193.63,115.68c-.05-.01-.08-.04-.12-.05-.03,0-.05.01-.08,0-7.28-.66-13.22-3.08-20.44-4.38-1.4.94-3.54,4-1.82,5.44.04.04.06.08.09.12,7.44,1.58,13.57,3.29,21.12,4.31.05-.03.08-.07.14-.09,1.98-.74,4.35-4.74,1.12-5.37Z"/>
          </g>
          <g>
            <path class="st3" d="M137.46,231.53s0,0,.02,0c.01,0,0,0-.02,0Z"/>
            <path class="st3" d="M136.74,240.18c-1.5,7.54-2.39,15.2-4.2,22.69-.07.29-.25.46-.46.56-.09.15-.24.27-.47.31-3.57.71-7.45-.42-10.93-1.26-3.7-.89-7.43-1.52-10.83-3.3-.18-.09-.28-.22-.35-.36-.15-.17-.23-.4-.18-.68,1.45-7.46,2.25-15.32,4.49-22.59-.03-.02-.06-.02-.09-.05-2.67-2.24-.28-6.58,2.04-8.12.17-.23.44-.38.79-.32.62.11,1.23.23,1.85.36,1.13-6.07,3.27-17.36,5.1-22.4.27-1.89,2.62-3.3,4.34-3.41.68-2.7,2.16-8.68,2.44-11.47.02-.2.11-.34.21-.45.18-.65.44-1.27.72-1.73,2-3.23,5.78-5.26,9.39-6.09.31-.07.57.03.76.19.19,0,.38.04.56.19.74.62.99,1.44.95,2.32.11.16.18.36.16.59-.51,5.03-3.18,13.06-3.77,18.06.1.03.2.07.3.15,1.61,1.24,2.3,3.07,1.69,4.65,0,.03,0,.06,0,.1-1.05,5-3.58,18.23-4.64,23.3,0,0,.79.11.86.11.03,0,.09.03.12.03.02,0,.04,0,.06,0,5.06.98,2.61,7.28-.93,8.61ZM132.63,191.86c2.28.24,4.52-1.21,6.01-2.83.76-.82,3.62-4.17,2.2-5.48-2.52.62-5.04,1.78-6.86,3.66-.41.42-3.53,4.42-1.35,4.65ZM128.99,203.91s.01.02.02.04c.77,3.75,5.95,3.07,8.11.94.11-.11.23-.17.35-.21.25-4.12,2.23-11.32,3.14-15.31-.1.12-.2.23-.29.33-2.04,2.21-5.26,4.63-8.45,3.68-.14-.04-.24-.12-.36-.18-.49,2.44-1.92,8.11-2.45,10.54-.01.06-.05.11-.07.16ZM128.16,209.2c1.33.68,2.85.97,4.35.92,1.75-.06,10.14-1.46,6.52-4.97-.09.23-.24.42-.45.5-.03.13-.09.25-.21.37-2.96,2.93-9.91,3.57-10.95-1.53-.04-.21,0-.39.07-.54-.08-.15-.12-.32-.07-.53,0-.02.01-.04.01-.05-3.6.6-1.45,4.73.73,5.84ZM120.07,227.76c4.96,1.1,9.92,2.57,14.9,3.41,0-.02,0-.04,0-.06.88-4.2,3.23-16.7,4.13-20.89-2.66,1.42-6.04,1.99-8.98,1.39-2.3-.47-4.49-1.78-5.73-3.76-1.15,4.37-3.3,14.61-4.31,19.91ZM130.97,262.15c1.72-7.24,2.62-14.63,4.05-21.93-6.93-.99-12.78-2.56-19.63-4.04-2.12,7.01-2.94,14.53-4.3,21.72,3.13,1.53,6.56,2.14,9.94,2.93,3.04.72,6.8,1.9,9.94,1.32ZM137.33,233.22c-.05-.01-.08-.04-.12-.05-.03,0-.05.01-.08,0-7.28-.66-13.22-3.08-20.44-4.38-1.4.94-3.54,4-1.82,5.44.04.04.06.08.09.12,7.44,1.58,13.57,3.29,21.12,4.31.05-.03.08-.07.14-.09,1.98-.74,4.35-4.74,1.12-5.37Z"/>
          </g>
          <g>
            <path class="st3" d="M34.8,128.88c3.66,2.65,7.5,4.75,12.14,4.32,5.37-.5,9.12-5.12,11.84-9.28,2.11-3.23,3.96-6.4,7.72-7.82,2.85-1.08,6.13-.55,8.76.82,4.19,2.18,3.44,6.75,1.1,10.03-2.56,3.6-7.61,5.22-11.46,6.96-14.75,6.69-23.49,20.9-37.05,29.42-6.06,3.81-14.88,7.83-21.85,4.1-4.63-2.49-7.31-8.37-9.92-12.67-.57-.93-1.96,0-1.4.93,2.69,4.44,5.33,9.97,9.89,12.82,5.3,3.32,11.27,2.05,16.8-.05,8.7-3.3,15.93-9.63,22.54-15.99,3.79-3.65,7.3-7.61,11.35-10.96,4.13-3.41,9.11-5.52,13.94-7.71,5.23-2.37,11.29-6.33,10.83-12.84-.32-4.48-5.33-6.68-9.17-7.06-5.57-.55-9.35,2.81-12.22,7.16-2.73,4.14-5.16,7.96-9.92,9.95-4.55,1.9-9.24-.82-12.82-3.42-.87-.63-1.99.63-1.11,1.27Z"/>
            <path class="st3" d="M-3.04,153.69c2.03,3.12,3.81,6.39,6.17,9.3.67.84,2.09-.08,1.4-.93-2.35-2.9-4.13-6.18-6.16-9.3-.59-.91-2,.02-1.41.93Z"/>
            <path class="st3" d="M-.87,151.24c2.16,3.37,3.77,7.07,6.1,10.35.63.88,2.04-.05,1.4-.93-2.33-3.28-3.94-6.97-6.1-10.35-.59-.91-1.99.01-1.4.93Z"/>
            <path class="st3" d="M1.88,149.67c2.08,3.19,3.84,6.56,5.58,9.94.5.96,1.89.02,1.4-.93-1.74-3.39-3.5-6.75-5.58-9.94-.59-.91-2,.02-1.4.93Z"/>
            <path class="st3" d="M16.74,152.95c-2.03-3.12-3.81-6.39-6.16-9.3-.68-.84-2.09.08-1.41.93,2.35,2.91,4.13,6.18,6.16,9.3.6.91,2-.02,1.4-.93Z"/>
            <path class="st3" d="M14.57,155.4c-2.17-3.38-3.77-7.08-6.1-10.35-.62-.88-2.03.05-1.4.93,2.33,3.28,3.94,6.97,6.1,10.35.59.91,1.99-.02,1.4-.93Z"/>
            <path class="st3" d="M11.82,156.97c-2.08-3.19-3.84-6.56-5.58-9.94-.5-.96-1.89-.02-1.4.93,1.74,3.38,3.5,6.74,5.58,9.94.59.91,2-.02,1.4-.93Z"/>
            <path class="st3" d="M11.71,143.16c2.03,3.12,3.81,6.39,6.16,9.3.67.84,2.09-.08,1.4-.93-2.35-2.9-4.13-6.18-6.16-9.3-.59-.91-2,.02-1.4.93Z"/>
            <path class="st3" d="M13.87,140.71c2.17,3.38,3.77,7.08,6.1,10.35.63.88,2.04-.04,1.41-.93-2.33-3.28-3.94-6.97-6.11-10.35-.59-.91-1.99.02-1.4.93Z"/>
            <path class="st3" d="M16.62,139.14c2.08,3.19,3.84,6.55,5.58,9.94.49.97,1.89.02,1.4-.93-1.74-3.39-3.5-6.75-5.58-9.94-.59-.91-2,.02-1.4.93Z"/>
            <path class="st3" d="M31.48,142.43c-2.03-3.12-3.82-6.39-6.16-9.3-.68-.84-2.09.08-1.4.93,2.35,2.91,4.13,6.18,6.16,9.3.59.91,2-.02,1.4-.93Z"/>
            <path class="st3" d="M29.31,144.87c-2.16-3.38-3.77-7.08-6.1-10.35-.63-.88-2.04.04-1.41.93,2.33,3.28,3.94,6.97,6.1,10.35.59.92,1.99-.02,1.4-.93Z"/>
            <path class="st3" d="M26.57,146.44c-2.08-3.19-3.84-6.55-5.58-9.94-.49-.97-1.89-.02-1.4.93,1.74,3.38,3.5,6.75,5.58,9.94.59.91,2-.02,1.4-.93Z"/>
            <path class="st3" d="M38.68,137.66c-2.04-3.12-3.81-6.39-6.17-9.3-.67-.84-2.09.08-1.4.93,2.35,2.91,4.13,6.18,6.16,9.3.59.91,1.99-.02,1.4-.93Z"/>
            <path class="st3" d="M36.51,140.11c-2.16-3.38-3.77-7.08-6.1-10.35-.63-.88-2.04.04-1.4.93,2.33,3.28,3.94,6.97,6.1,10.35.58.91,1.99-.02,1.4-.93Z"/>
            <path class="st3" d="M34.1,141.48c-2.08-3.19-3.84-6.56-5.58-9.94-.5-.96-1.89-.03-1.4.93,1.74,3.39,3.5,6.75,5.58,9.95.59.91,1.99-.02,1.4-.93Z"/>
            <path class="st3" d="M73.99,121.77c2.96,5.35-6.42,10.48-9.5,5.1h0s0,0,0,0c-.04-.06-.08-.11-.11-.17,0-.02,0-.04-.02-.05-3.69-5.64,6.42-10.69,9.63-4.87ZM65.89,125.93c2.05,3.44,8.33.4,6.72-3.15-1.91-4.24-9.58-.82-6.72,3.15Z"/>
          </g>
          <g>
            <path class="st3" d="M213.62,35.99s-.06.08-.09.12c-.04.25-.18.48-.49.6-10.79,4.22-21.76,7.94-32.55,12.16-.14.06-.28.06-.4.05-.21.18-.5.28-.83.17-4.8-1.58-9.82-3.72-12.15-8.56-2.74-5.69-1.33-10.31.23-16.12.03-.1.08-.18.13-.26-2.85-2.54-6.8-6.68-2.54-9.92,4.68-3.56,11.29-4.95,16.69-7.13,4.21-1.7,8.69-2.84,12.81-4.72,1.98-.9,4.8-2.64,7.1-2.33,4.64.63,4.37,5.74,3.85,9.5,11.56,2.07,12.46,17.72,8.23,26.45ZM200.83,1.76c.78,2.71,1,5.49,1.37,8.27.5-.14.99-.3,1.5-.43.41-2.72,1.03-8.57-2.86-7.83ZM199.09,10.92c.49-.15.98-.28,1.47-.42-.37-2.74-.53-5.51-1.31-8.18-.01-.04,0-.08-.01-.13-.56.19-1.1.39-1.65.62.43,2.72,1.05,5.4,1.5,8.11ZM195.17,12.21c.76-.27,1.54-.51,2.31-.76-.43-2.66-1.03-5.29-1.47-7.94-.31.14-.63.29-.95.43-.68.3-1.38.57-2.08.85,1.07,2.37,1.73,4.87,2.19,7.42ZM191.49,13.54c.69-.26,1.38-.51,2.07-.76-.43-2.54-1.08-5.03-2.15-7.38-.84.31-1.68.62-2.53.91,1.31,2.25,1.89,4.75,2.61,7.23ZM187.58,15.07c.78-.31,1.56-.61,2.34-.91-.71-2.49-1.24-5.07-2.65-7.29-.73.25-1.46.5-2.19.76,1.37,2.27,1.81,4.9,2.5,7.44ZM183.26,16.83c.92-.38,1.84-.75,2.76-1.13-.68-2.5-1.04-5.21-2.48-7.4-.02-.03-.02-.05-.03-.08-.74.27-1.47.54-2.2.84.95,2.51,1.62,5.11,1.95,7.77ZM179.96,18.22c.56-.24,1.12-.47,1.68-.71-.29-2.69-.95-5.29-1.91-7.83-.85.34-1.71.66-2.57.96.96,2.51,1.84,5.06,2.8,7.57ZM173.22,12.04c1.04,2.58,2.21,5.1,3.39,7.61.6-.26,1.21-.51,1.81-.77-.97-2.55-1.86-5.13-2.84-7.68-.79.27-1.57.55-2.36.83ZM169.59,13.45c1.73,2.27,2.75,4.93,3.77,7.58.57-.24,1.13-.48,1.7-.72-1.19-2.53-2.37-5.07-3.42-7.67-.32.12-.64.24-.96.37-.31.13-.69.28-1.09.44ZM166.44,15.03c1.67,2.23,2.51,4.91,4.13,7.16.42-.17.83-.35,1.24-.52-1.02-2.64-2.01-5.3-3.8-7.53-.55.27-1.09.55-1.57.88ZM168.67,22.97c.11-.04.21-.09.32-.13-1.42-2.12-2.29-4.55-3.78-6.62-.14.21-.26.43-.34.67-.81,2.59,2.07,4.6,3.8,6.08ZM203.8,11.3c-8.28,2.19-16.15,5.49-24,8.84h0c-2.13.91-4.25,1.81-6.39,2.71-.11.08-.24.13-.38.16-1.34.56-2.68,1.11-4.02,1.65,0,0,0,0,0,0-1.26,4.68-3.14,9.41-.86,14.14,2.38,4.94,6.56,6.99,11.5,8.65.07-.05.13-.11.22-.14,10.68-4.18,21.54-7.86,32.22-12.03,3.71-7.72,3.87-23.25-8.3-23.96Z"/>
            <path class="st3" d="M207.84,28.12c.31.74-19.52,8.74-28.87,12.29-.47.18-.87-.07-1.09-.47-1.86-3.43-2.86-7.22-5.19-10.38-.13-.17-.16-.34-.15-.51-.28-.42-.25-1.01.36-1.17,10.48-2.69,19.49-9.27,30.22-11.21.38-.07.72.21.87.53,1.66,3.52,2.37,7.35,3.86,10.93ZM205.91,27.73c-1.03-2.84-1.59-5.88-2.88-8.61-.88-1.87-9.18,2.01-10.64,2.65-5.93,2.6-11.68,5.64-17.94,7.4,1.97,2.92,3.02,6.26,4.6,9.39,9.01-3.49,17.56-8.09,26.86-10.84Z"/>
          </g>
        </g>
        <path class="st2" d="M-27.89,195.33c5.07-1.9,11.88,1.35,17.02,1.63,3.5.19,9.97-1.91,12.98.61,2.79,2.33,1.45,5.85.8,8.92-.87,4.16.05,8.53-.07,12.72-.05,1.8.07,4.04-.89,5.67-.65,1.1-1.5,2.05-2.74,2.48-2.1.73-7.18-.01-8.02,2.69-.03.1-.08.16-.13.24,1.7,1.48,2.73,3.62,2.74,6.18.03,6.48.08,13.13-.23,19.6-.28,5.88-1.95,13.31-10.45,13.46-8.97-.82-7.45-10.82-7.09-17.1.28-4.76-.14-9.48-.11-14.23.02-2.11-.26-4.88,1.14-6.7.66-.85,1.43-1.51,2.27-2.03-3.44-2.64-10.65-1.55-11.66-6.63-.42-2.14-.09-4.13.18-6.27.47-3.76.46-7.5.4-11.28-.07-3.81-.38-8.36,3.83-9.94ZM-19,228.67c1.08-.38,2.24-.54,3.43-.55.17-4.99-.21-9.99.06-14.96-4.9-.29-9.79-.74-14.6-1.12-.09,1.89-.24,3.79-.5,5.69-.36,2.74-.88,6.38,2.78,7.36,3.32.89,6.36,1.08,8.83,3.58ZM-14.25,229.82c-4.84-.4-8.08,1.83-8.12,6.87-.04,5.25.6,10.58.09,15.81-.46,4.78-2.07,14.86,5.29,15.23,8.05.41,9-7.94,8.91-13.01-.09-4.66-.25-9.38.04-14.04.3-4.83-.19-10.37-6.2-10.86ZM1.06,221.72c.12-2.38.07-4.73-.03-7.11-.02-.47-.05-.96-.08-1.45-4.88.4-9.86.34-14.83.09-.28,4.97.15,9.99-.01,14.96.2.02.39.03.58.06,1.1.18,2.1.53,2.98,1.02.76-2.17,2.28-3.03,4.63-3.03,3.29,0,6.54-.47,6.75-4.55ZM-30.06,201.75c-.06,2.28.07,4.56.07,6.85,0,.6-.05,1.18-.06,1.77,4.82.38,9.74.84,14.66,1.14.12-1.44.3-2.87.59-4.3-.06-.06-.09-.15-.13-.23-1.73-.25-3.25-1.27-4.08-2.83-.51-.96.98-1.73,1.49-.77.44.83,1.17,1.46,2.04,1.77-.39-1.17-.96-2.33-1.87-3-.87-.64.04-2.06.92-1.41.93.69,1.59,1.68,2.09,2.77.13-.67.27-1.34.42-2,.25-1.06,1.84-.52,1.6.53-.27,1.15-.49,2.31-.63,3.48,1-.65,1.61-2.24,1.78-3.23.17-1.06,1.85-.99,1.68.08-.33,2.07-1.53,4.43-3.66,4.99-.3,1.4-.48,2.81-.61,4.22,4.88.25,9.76.32,14.54-.09.03,0,.06,0,.09.01-.06-1.61-.06-3.23.26-4.74.37-1.78,1.17-3.73,1.02-5.56-.38-4.69-8.03-2.61-11.03-2.51-5.03.17-9.84-1.81-14.84-1.97-3.76-.11-6.26.93-6.36,5.01Z"/>
        <g>
          <path class="st2" d="M246.52-53.47c5.07-1.9,11.88,1.35,17.02,1.63,3.5.19,9.97-1.91,12.98.61,2.79,2.33,1.45,5.85.8,8.92-.87,4.16.05,8.53-.07,12.72-.05,1.8.07,4.04-.89,5.67-.65,1.1-1.5,2.05-2.74,2.48-2.1.73-7.18-.01-8.02,2.69-.03.1-.08.16-.13.24,1.7,1.48,2.73,3.62,2.74,6.18.03,6.48.08,13.13-.23,19.6-.28,5.88-1.95,13.31-10.45,13.46-8.97-.82-7.45-10.82-7.09-17.1.28-4.76-.14-9.48-.11-14.23.02-2.11-.26-4.88,1.14-6.7.66-.85,1.43-1.51,2.27-2.03-3.44-2.64-10.65-1.55-11.66-6.63-.42-2.14-.09-4.13.18-6.27.47-3.76.46-7.5.4-11.28-.07-3.81-.38-8.36,3.83-9.94ZM255.42-20.13c1.08-.38,2.24-.54,3.43-.55.17-4.99-.21-9.99.06-14.96-4.9-.29-9.79-.74-14.6-1.12-.09,1.89-.24,3.79-.5,5.69-.36,2.74-.88,6.38,2.78,7.36,3.32.89,6.36,1.08,8.83,3.58ZM260.17-18.99c-4.84-.4-8.08,1.83-8.12,6.87-.04,5.25.6,10.58.09,15.81-.46,4.78-2.07,14.86,5.29,15.23,8.05.41,9-7.94,8.91-13.01-.09-4.66-.25-9.38.04-14.04.3-4.83-.19-10.37-6.2-10.86ZM275.48-27.09c.12-2.38.07-4.73-.03-7.11-.02-.47-.05-.96-.08-1.45-4.88.4-9.86.34-14.83.09-.28,4.97.15,9.99-.01,14.96.2.02.39.03.58.06,1.1.18,2.1.53,2.98,1.02.76-2.17,2.28-3.03,4.63-3.03,3.29,0,6.54-.47,6.75-4.55ZM244.35-47.06c-.06,2.28.07,4.56.07,6.85,0,.6-.05,1.18-.06,1.77,4.82.38,9.74.84,14.66,1.14.12-1.44.3-2.87.59-4.3-.06-.06-.09-.15-.13-.23-1.73-.25-3.25-1.27-4.08-2.83-.51-.96.98-1.73,1.49-.77.44.83,1.17,1.46,2.04,1.77-.39-1.17-.96-2.33-1.87-3-.87-.64.04-2.06.92-1.41.93.69,1.59,1.68,2.09,2.77.13-.67.27-1.34.42-2,.25-1.06,1.84-.52,1.6.53-.27,1.15-.49,2.31-.63,3.48,1-.65,1.61-2.24,1.78-3.23.17-1.06,1.85-.99,1.68.08-.33,2.07-1.53,4.43-3.66,4.99-.3,1.4-.48,2.81-.61,4.22,4.88.25,9.76.32,14.54-.09.03,0,.06,0,.09.01-.06-1.61-.06-3.23.26-4.74.37-1.78,1.17-3.73,1.02-5.56-.38-4.69-8.03-2.61-11.03-2.51-5.03.17-9.84-1.81-14.84-1.97-3.76-.11-6.26.93-6.36,5.01Z"/>
          <path class="st3" d="M136.74-8.62c-1.5,7.54-2.39,15.2-4.2,22.69-.07.29-.25.46-.46.56-.09.15-.24.27-.47.31-3.57.71-7.45-.42-10.93-1.26-3.7-.89-7.43-1.52-10.83-3.3-.18-.09-.28-.22-.35-.36-.15-.17-.23-.4-.18-.68,1.45-7.46,2.25-15.32,4.49-22.59-.03-.02-.06-.02-.09-.05-2.67-2.24-.28-6.58,2.04-8.12.17-.23.44-.38.79-.32.62.11,1.23.23,1.85.36,1.13-6.07,3.27-17.36,5.1-22.4.27-1.89,2.62-3.3,4.34-3.41.68-2.7,2.16-8.68,2.44-11.47.02-.2.11-.34.21-.45.18-.65.44-1.27.72-1.73,2-3.23,5.78-5.26,9.39-6.09.31-.07.57.03.76.19.19,0,.38.04.56.19.74.62.99,1.44.95,2.32.11.16.18.36.16.59-.51,5.03-3.18,13.06-3.77,18.06.1.03.2.07.3.15,1.61,1.24,2.3,3.07,1.69,4.65,0,.03,0,.06,0,.1-1.05,5-3.58,18.23-4.64,23.3,0,0,.79.11.86.11.03,0,.09.03.12.03.02,0,.04,0,.06,0,5.06.98,2.61,7.28-.93,8.61ZM132.63-56.94c2.28.24,4.52-1.21,6.01-2.83.76-.82,3.62-4.17,2.2-5.48-2.52.62-5.04,1.78-6.86,3.66-.41.42-3.53,4.42-1.35,4.65ZM128.99-44.89s.01.02.02.04c.77,3.75,5.95,3.07,8.11.94.11-.11.23-.17.35-.21.25-4.12,2.23-11.32,3.14-15.31-.1.12-.2.23-.29.33-2.04,2.2-5.26,4.63-8.45,3.68-.14-.04-.24-.12-.36-.18-.49,2.44-1.92,8.11-2.45,10.54-.01.06-.05.11-.07.16ZM128.16-39.61c1.33.68,2.85.97,4.35.92,1.75-.06,10.14-1.46,6.52-4.97-.09.23-.24.42-.45.5-.03.13-.09.25-.21.37-2.96,2.93-9.91,3.57-10.95-1.53-.04-.21,0-.39.07-.54-.08-.15-.12-.32-.07-.53,0-.02.01-.04.01-.05-3.6.6-1.45,4.73.73,5.84ZM120.07-21.04c4.96,1.1,9.92,2.57,14.9,3.41,0-.02,0-.04,0-.06.88-4.2,3.23-16.7,4.13-20.89-2.66,1.42-6.04,1.99-8.98,1.39-2.3-.47-4.49-1.78-5.73-3.76-1.15,4.37-3.3,14.61-4.31,19.92ZM130.97,13.35c1.72-7.24,2.62-14.63,4.05-21.93-6.93-.99-12.78-2.56-19.63-4.04-2.12,7.01-2.94,14.53-4.3,21.72,3.13,1.53,6.56,2.14,9.94,2.93,3.04.72,6.8,1.9,9.94,1.32ZM137.33-15.58c-.05-.01-.08-.04-.12-.05-.03,0-.05.01-.08,0-7.28-.66-13.22-3.08-20.44-4.38-1.4.94-3.54,4-1.82,5.44.04.04.06.08.09.12,7.44,1.58,13.57,3.29,21.12,4.31.05-.03.08-.07.14-.09,1.98-.74,4.35-4.74,1.12-5.37Z"/>
        </g>
        <path class="st2" d="M-27.89-53.47c5.07-1.9,11.88,1.35,17.02,1.63,3.5.19,9.97-1.91,12.98.61,2.79,2.33,1.45,5.85.8,8.92-.87,4.16.05,8.53-.07,12.72-.05,1.8.07,4.04-.89,5.67-.65,1.1-1.5,2.05-2.74,2.48-2.1.73-7.18-.01-8.02,2.69-.03.1-.08.16-.13.24,1.7,1.48,2.73,3.62,2.74,6.18.03,6.48.08,13.13-.23,19.6-.28,5.88-1.95,13.31-10.45,13.46-8.97-.82-7.45-10.82-7.09-17.1.28-4.76-.14-9.48-.11-14.23.02-2.11-.26-4.88,1.14-6.7.66-.85,1.43-1.51,2.27-2.03-3.44-2.64-10.65-1.55-11.66-6.63-.42-2.14-.09-4.13.18-6.27.47-3.76.46-7.5.4-11.28-.07-3.81-.38-8.36,3.83-9.94ZM-19-20.13c1.08-.38,2.24-.54,3.43-.55.17-4.99-.21-9.99.06-14.96-4.9-.29-9.79-.74-14.6-1.12-.09,1.89-.24,3.79-.5,5.69-.36,2.74-.88,6.38,2.78,7.36,3.32.89,6.36,1.08,8.83,3.58ZM-14.25-18.99c-4.84-.4-8.08,1.83-8.12,6.87-.04,5.25.6,10.58.09,15.81-.46,4.78-2.07,14.86,5.29,15.23,8.05.41,9-7.94,8.91-13.01-.09-4.66-.25-9.38.04-14.04.3-4.83-.19-10.37-6.2-10.86ZM1.06-27.09c.12-2.38.07-4.73-.03-7.11-.02-.47-.05-.96-.08-1.45-4.88.4-9.86.34-14.83.09-.28,4.97.15,9.99-.01,14.96.2.02.39.03.58.06,1.1.18,2.1.53,2.98,1.02.76-2.17,2.28-3.03,4.63-3.03,3.29,0,6.54-.47,6.75-4.55ZM-30.06-47.06c-.06,2.28.07,4.56.07,6.85,0,.6-.05,1.18-.06,1.77,4.82.38,9.74.84,14.66,1.14.12-1.44.3-2.87.59-4.3-.06-.06-.09-.15-.13-.23-1.73-.25-3.25-1.27-4.08-2.83-.51-.96.98-1.73,1.49-.77.44.83,1.17,1.46,2.04,1.77-.39-1.17-.96-2.33-1.87-3-.87-.64.04-2.06.92-1.41.93.69,1.59,1.68,2.09,2.77.13-.67.27-1.34.42-2,.25-1.06,1.84-.52,1.6.53-.27,1.15-.49,2.31-.63,3.48,1-.65,1.61-2.24,1.78-3.23.17-1.06,1.85-.99,1.68.08-.33,2.07-1.53,4.43-3.66,4.99-.3,1.4-.48,2.81-.61,4.22,4.88.25,9.76.32,14.54-.09.03,0,.06,0,.09.01-.06-1.61-.06-3.23.26-4.74.37-1.78,1.17-3.73,1.02-5.56-.38-4.69-8.03-2.61-11.03-2.51-5.03.17-9.84-1.81-14.84-1.97-3.76-.11-6.26.93-6.36,5.01Z"/>
      </g>
    </pattern>
  </defs>
  <rect class="st1" width="800" height="800"/>
</svg>