<?xml version="1.0" encoding="UTF-8"?>
<svg id="background" xmlns="http://www.w3.org/2000/svg" xmlns:xlink="http://www.w3.org/1999/xlink" version="1.1" viewBox="0 0 2200 1466">
  <!-- Generator: Adobe Illustrator 29.0.1, SVG Export Plug-In . SVG Version: 2.1.0 Build 192)  -->
  <defs>
    <style>
      .st0 {
        fill: none;
      }

      .st1 {
        fill: #fff;
      }

      .st2 {
        fill: #000;
      }

      .st3 {
        fill: #000;
      }

      .st4 {
        clip-path: url(#clippath);
      }
    </style>
    <clipPath id="clippath">
      <rect className="st0" y="0" width="2200" height="1466"/>
    </clipPath>
  </defs>
  <g className="st4">
    <path className="st2" d="M178.13-130.62c0,16.91-11.83,35.81-22.55,48.04-2.36,2.69-6.56,2.69-8.92,0-10.72-12.22-22.55-31.13-22.55-48.04,0-14.92,12.09-27.01,27.01-27.01s27.01,12.09,27.01,27.01Z"/>
    <circle className="st1" cx="151.12" cy="-130.62" r="17.43"/>
    <path className="st3" d="M151.12-111.17c-10.72,0-19.45-8.72-19.45-19.45s8.72-19.45,19.45-19.45,19.45,8.72,19.45,19.45-8.72,19.45-19.45,19.45ZM151.12-146.04c-8.5,0-15.42,6.92-15.42,15.42s6.92,15.42,15.42,15.42,15.42-6.92,15.42-15.42-6.92-15.42-15.42-15.42Z"/>
    <path className="st2" d="M367.91-130.62c0,16.91-11.83,35.81-22.55,48.04-2.36,2.69-6.56,2.69-8.92,0-10.72-12.22-22.55-31.13-22.55-48.04,0-14.92,12.09-27.01,27.01-27.01s27.01,12.09,27.01,27.01Z"/>
    <circle className="st1" cx="340.9" cy="-130.62" r="17.43"/>
    <path className="st3" d="M340.9-111.17c-10.72,0-19.45-8.72-19.45-19.45s8.72-19.45,19.45-19.45,19.45,8.72,19.45,19.45-8.72,19.45-19.45,19.45ZM340.9-146.04c-8.5,0-15.42,6.92-15.42,15.42s6.92,15.42,15.42,15.42,15.42-6.92,15.42-15.42-6.92-15.42-15.42-15.42Z"/>
    <path className="st2" d="M557.68-130.62c0,16.91-11.83,35.81-22.55,48.04-2.36,2.69-6.56,2.69-8.92,0-10.72-12.22-22.55-31.13-22.55-48.04,0-14.92,12.09-27.01,27.01-27.01s27.01,12.09,27.01,27.01Z"/>
    <circle className="st1" cx="530.67" cy="-130.62" r="17.43"/>
    <path className="st3" d="M530.67-111.17c-10.72,0-19.45-8.72-19.45-19.45s8.72-19.45,19.45-19.45,19.45,8.72,19.45,19.45-8.72,19.45-19.45,19.45ZM530.67-146.04c-8.5,0-15.42,6.92-15.42,15.42s6.92,15.42,15.42,15.42,15.42-6.92,15.42-15.42-6.92-15.42-15.42-15.42Z"/>
    <path className="st2" d="M747.46-130.62c0,16.91-11.83,35.81-22.55,48.04-2.36,2.69-6.56,2.69-8.92,0-10.72-12.22-22.55-31.13-22.55-48.04,0-14.92,12.09-27.01,27.01-27.01s27.01,12.09,27.01,27.01Z"/>
    <circle className="st1" cx="720.45" cy="-130.62" r="17.43"/>
    <path className="st3" d="M720.45-111.17c-10.72,0-19.45-8.72-19.45-19.45s8.72-19.45,19.45-19.45,19.45,8.72,19.45,19.45-8.72,19.45-19.45,19.45ZM720.45-146.04c-8.5,0-15.42,6.92-15.42,15.42s6.92,15.42,15.42,15.42,15.42-6.92,15.42-15.42-6.92-15.42-15.42-15.42Z"/>
    <path className="st2" d="M937.23-130.62c0,16.91-11.83,35.81-22.55,48.04-2.36,2.69-6.56,2.69-8.92,0-10.72-12.22-22.55-31.13-22.55-48.04,0-14.92,12.09-27.01,27.01-27.01s27.01,12.09,27.01,27.01Z"/>
    <circle className="st1" cx="910.22" cy="-130.62" r="17.43"/>
    <path className="st3" d="M910.22-111.17c-10.72,0-19.45-8.72-19.45-19.45s8.72-19.45,19.45-19.45,19.45,8.72,19.45,19.45-8.72,19.45-19.45,19.45ZM910.22-146.04c-8.5,0-15.42,6.92-15.42,15.42s6.92,15.42,15.42,15.42,15.42-6.92,15.42-15.42-6.92-15.42-15.42-15.42Z"/>
    <path className="st2" d="M1127.01-130.62c0,16.91-11.83,35.81-22.55,48.04-2.36,2.69-6.56,2.69-8.92,0-10.72-12.22-22.55-31.13-22.55-48.04,0-14.92,12.09-27.01,27.01-27.01s27.01,12.09,27.01,27.01Z"/>
    <circle className="st1" cx="1100" cy="-130.62" r="17.43"/>
    <path className="st3" d="M1100-111.17c-10.72,0-19.45-8.72-19.45-19.45s8.72-19.45,19.45-19.45,19.45,8.72,19.45,19.45-8.72,19.45-19.45,19.45ZM1100-146.04c-8.5,0-15.42,6.92-15.42,15.42s6.92,15.42,15.42,15.42,15.42-6.92,15.42-15.42-6.92-15.42-15.42-15.42Z"/>
    <path className="st2" d="M1316.78-130.62c0,16.91-11.83,35.81-22.55,48.04-2.36,2.69-6.56,2.69-8.92,0-10.72-12.22-22.55-31.13-22.55-48.04,0-14.92,12.09-27.01,27.01-27.01s27.01,12.09,27.01,27.01Z"/>
    <circle className="st1" cx="1289.78" cy="-130.62" r="17.43"/>
    <path className="st3" d="M1289.78-111.17c-10.72,0-19.45-8.72-19.45-19.45s8.72-19.45,19.45-19.45,19.45,8.72,19.45,19.45-8.72,19.45-19.45,19.45ZM1289.78-146.04c-8.5,0-15.42,6.92-15.42,15.42s6.92,15.42,15.42,15.42,15.42-6.92,15.42-15.42-6.92-15.42-15.42-15.42Z"/>
    <path className="st2" d="M1506.56-130.62c0,16.91-11.83,35.81-22.55,48.04-2.36,2.69-6.56,2.69-8.92,0-10.72-12.22-22.55-31.13-22.55-48.04,0-14.92,12.09-27.01,27.01-27.01s27.01,12.09,27.01,27.01Z"/>
    <circle className="st1" cx="1479.55" cy="-130.62" r="17.43"/>
    <path className="st3" d="M1479.55-111.17c-10.72,0-19.45-8.72-19.45-19.45s8.72-19.45,19.45-19.45,19.45,8.72,19.45,19.45-8.72,19.45-19.45,19.45ZM1479.55-146.04c-8.5,0-15.42,6.92-15.42,15.42s6.92,15.42,15.42,15.42,15.42-6.92,15.42-15.42-6.92-15.42-15.42-15.42Z"/>
    <path className="st2" d="M1696.33-130.62c0,16.91-11.83,35.81-22.55,48.04-2.36,2.69-6.56,2.69-8.92,0-10.72-12.22-22.55-31.13-22.55-48.04,0-14.92,12.09-27.01,27.01-27.01s27.01,12.09,27.01,27.01Z"/>
    <circle className="st1" cx="1669.33" cy="-130.62" r="17.43"/>
    <path className="st3" d="M1669.33-111.17c-10.72,0-19.45-8.72-19.45-19.45s8.72-19.45,19.45-19.45,19.45,8.72,19.45,19.45-8.72,19.45-19.45,19.45ZM1669.33-146.04c-8.5,0-15.42,6.92-15.42,15.42s6.92,15.42,15.42,15.42,15.42-6.92,15.42-15.42-6.92-15.42-15.42-15.42Z"/>
    <path className="st2" d="M1886.11-130.62c0,16.91-11.83,35.81-22.55,48.04-2.36,2.69-6.56,2.69-8.92,0-10.72-12.22-22.55-31.13-22.55-48.04,0-14.92,12.09-27.01,27.01-27.01s27.01,12.09,27.01,27.01Z"/>
    <circle className="st1" cx="1859.1" cy="-130.62" r="17.43"/>
    <path className="st3" d="M1859.1-111.17c-10.72,0-19.45-8.72-19.45-19.45s8.72-19.45,19.45-19.45,19.45,8.72,19.45,19.45-8.72,19.45-19.45,19.45ZM1859.1-146.04c-8.5,0-15.42,6.92-15.42,15.42s6.92,15.42,15.42,15.42,15.42-6.92,15.42-15.42-6.92-15.42-15.42-15.42Z"/>
    <path className="st2" d="M2075.88-130.62c0,16.91-11.83,35.81-22.55,48.04-2.36,2.69-6.56,2.69-8.92,0-10.72-12.22-22.55-31.13-22.55-48.04,0-14.92,12.09-27.01,27.01-27.01s27.01,12.09,27.01,27.01Z"/>
    <circle className="st1" cx="2048.88" cy="-130.62" r="17.43"/>
    <path className="st3" d="M2048.88-111.17c-10.72,0-19.45-8.72-19.45-19.45s8.72-19.45,19.45-19.45,19.45,8.72,19.45,19.45-8.72,19.45-19.45,19.45ZM2048.88-146.04c-8.5,0-15.42,6.92-15.42,15.42s6.92,15.42,15.42,15.42,15.42-6.92,15.42-15.42-6.92-15.42-15.42-15.42Z"/>
    <path className="st2" d="M83.24,36.68c0,16.91-11.83,35.81-22.55,48.04-2.36,2.69-6.56,2.69-8.92,0-10.72-12.22-22.55-31.13-22.55-48.04,0-14.92,12.09-27.01,27.01-27.01s27.01,12.09,27.01,27.01Z"/>
    <circle className="st1" cx="56.24" cy="36.68" r="17.43"/>
    <path className="st3" d="M56.24,56.13c-10.72,0-19.45-8.72-19.45-19.45s8.72-19.45,19.45-19.45,19.45,8.72,19.45,19.45-8.72,19.45-19.45,19.45ZM56.24,21.26c-8.5,0-15.42,6.92-15.42,15.42s6.92,15.42,15.42,15.42,15.42-6.92,15.42-15.42-6.92-15.42-15.42-15.42Z"/>
    <path className="st2" d="M273.02,36.68c0,16.91-11.83,35.81-22.55,48.04-2.36,2.69-6.56,2.69-8.92,0-10.72-12.22-22.55-31.13-22.55-48.04,0-14.92,12.09-27.01,27.01-27.01s27.01,12.09,27.01,27.01Z"/>
    <circle className="st1" cx="246.01" cy="36.68" r="17.43"/>
    <path className="st3" d="M246.01,56.13c-10.72,0-19.45-8.72-19.45-19.45s8.72-19.45,19.45-19.45,19.45,8.72,19.45,19.45-8.72,19.45-19.45,19.45ZM246.01,21.26c-8.5,0-15.42,6.92-15.42,15.42s6.92,15.42,15.42,15.42,15.42-6.92,15.42-15.42-6.92-15.42-15.42-15.42Z"/>
    <path className="st2" d="M462.79,36.68c0,16.91-11.83,35.81-22.55,48.04-2.36,2.69-6.56,2.69-8.92,0-10.72-12.22-22.55-31.13-22.55-48.04,0-14.92,12.09-27.01,27.01-27.01s27.01,12.09,27.01,27.01Z"/>
    <circle className="st1" cx="435.79" cy="36.68" r="17.43"/>
    <path className="st3" d="M435.79,56.13c-10.72,0-19.45-8.72-19.45-19.45s8.72-19.45,19.45-19.45,19.45,8.72,19.45,19.45-8.72,19.45-19.45,19.45ZM435.79,21.26c-8.5,0-15.42,6.92-15.42,15.42s6.92,15.42,15.42,15.42,15.42-6.92,15.42-15.42-6.92-15.42-15.42-15.42Z"/>
    <path className="st2" d="M652.57,36.68c0,16.91-11.83,35.81-22.55,48.04-2.36,2.69-6.56,2.69-8.92,0-10.72-12.22-22.55-31.13-22.55-48.04,0-14.92,12.09-27.01,27.01-27.01s27.01,12.09,27.01,27.01Z"/>
    <circle className="st1" cx="625.56" cy="36.68" r="17.43"/>
    <path className="st3" d="M625.56,56.13c-10.72,0-19.45-8.72-19.45-19.45s8.72-19.45,19.45-19.45,19.45,8.72,19.45,19.45-8.72,19.45-19.45,19.45ZM625.56,21.26c-8.5,0-15.42,6.92-15.42,15.42s6.92,15.42,15.42,15.42,15.42-6.92,15.42-15.42-6.92-15.42-15.42-15.42Z"/>
    <path className="st2" d="M842.34,36.68c0,16.91-11.83,35.81-22.55,48.04-2.36,2.69-6.56,2.69-8.92,0-10.72-12.22-22.55-31.13-22.55-48.04,0-14.92,12.09-27.01,27.01-27.01s27.01,12.09,27.01,27.01Z"/>
    <circle className="st1" cx="815.34" cy="36.68" r="17.43"/>
    <path className="st3" d="M815.34,56.13c-10.72,0-19.45-8.72-19.45-19.45s8.72-19.45,19.45-19.45,19.45,8.72,19.45,19.45-8.72,19.45-19.45,19.45ZM815.34,21.26c-8.5,0-15.42,6.92-15.42,15.42s6.92,15.42,15.42,15.42,15.42-6.92,15.42-15.42-6.92-15.42-15.42-15.42Z"/>
    <path className="st2" d="M1032.12,36.68c0,16.91-11.83,35.81-22.55,48.04-2.36,2.69-6.56,2.69-8.92,0-10.72-12.22-22.55-31.13-22.55-48.04,0-14.92,12.09-27.01,27.01-27.01s27.01,12.09,27.01,27.01Z"/>
    <circle className="st1" cx="1005.11" cy="36.68" r="17.43"/>
    <path className="st3" d="M1005.11,56.13c-10.72,0-19.45-8.72-19.45-19.45s8.72-19.45,19.45-19.45,19.45,8.72,19.45,19.45-8.72,19.45-19.45,19.45ZM1005.11,21.26c-8.5,0-15.42,6.92-15.42,15.42s6.92,15.42,15.42,15.42,15.42-6.92,15.42-15.42-6.92-15.42-15.42-15.42Z"/>
    <path className="st2" d="M1221.9,36.68c0,16.91-11.83,35.81-22.55,48.04-2.36,2.69-6.56,2.69-8.92,0-10.72-12.22-22.55-31.13-22.55-48.04,0-14.92,12.09-27.01,27.01-27.01s27.01,12.09,27.01,27.01Z"/>
    <circle className="st1" cx="1194.89" cy="36.68" r="17.43"/>
    <path className="st3" d="M1194.89,56.13c-10.72,0-19.45-8.72-19.45-19.45s8.72-19.45,19.45-19.45,19.45,8.72,19.45,19.45-8.72,19.45-19.45,19.45ZM1194.89,21.26c-8.5,0-15.42,6.92-15.42,15.42s6.92,15.42,15.42,15.42,15.42-6.92,15.42-15.42-6.92-15.42-15.42-15.42Z"/>
    <path className="st2" d="M1411.67,36.68c0,16.91-11.83,35.81-22.55,48.04-2.36,2.69-6.56,2.69-8.92,0-10.72-12.22-22.55-31.13-22.55-48.04,0-14.92,12.09-27.01,27.01-27.01s27.01,12.09,27.01,27.01Z"/>
    <circle className="st1" cx="1384.66" cy="36.68" r="17.43"/>
    <path className="st3" d="M1384.66,56.13c-10.72,0-19.45-8.72-19.45-19.45s8.72-19.45,19.45-19.45,19.45,8.72,19.45,19.45-8.72,19.45-19.45,19.45ZM1384.66,21.26c-8.5,0-15.42,6.92-15.42,15.42s6.92,15.42,15.42,15.42,15.42-6.92,15.42-15.42-6.92-15.42-15.42-15.42Z"/>
    <path className="st2" d="M1601.45,36.68c0,16.91-11.83,35.81-22.55,48.04-2.36,2.69-6.56,2.69-8.92,0-10.72-12.22-22.55-31.13-22.55-48.04,0-14.92,12.09-27.01,27.01-27.01s27.01,12.09,27.01,27.01Z"/>
    <circle className="st1" cx="1574.44" cy="36.68" r="17.43"/>
    <path className="st3" d="M1574.44,56.13c-10.72,0-19.45-8.72-19.45-19.45s8.72-19.45,19.45-19.45,19.45,8.72,19.45,19.45-8.72,19.45-19.45,19.45ZM1574.44,21.26c-8.5,0-15.42,6.92-15.42,15.42s6.92,15.42,15.42,15.42,15.42-6.92,15.42-15.42-6.92-15.42-15.42-15.42Z"/>
    <path className="st2" d="M1791.22,36.68c0,16.91-11.83,35.81-22.55,48.04-2.36,2.69-6.56,2.69-8.92,0-10.72-12.22-22.55-31.13-22.55-48.04,0-14.92,12.09-27.01,27.01-27.01s27.01,12.09,27.01,27.01Z"/>
    <circle className="st1" cx="1764.21" cy="36.68" r="17.43"/>
    <path className="st3" d="M1764.21,56.13c-10.72,0-19.45-8.72-19.45-19.45s8.72-19.45,19.45-19.45,19.45,8.72,19.45,19.45-8.72,19.45-19.45,19.45ZM1764.21,21.26c-8.5,0-15.42,6.92-15.42,15.42s6.92,15.42,15.42,15.42,15.42-6.92,15.42-15.42-6.92-15.42-15.42-15.42Z"/>
    <path className="st2" d="M1981,36.68c0,16.91-11.83,35.81-22.55,48.04-2.36,2.69-6.56,2.69-8.92,0-10.72-12.22-22.55-31.13-22.55-48.04,0-14.92,12.09-27.01,27.01-27.01s27.01,12.09,27.01,27.01Z"/>
    <circle className="st1" cx="1953.99" cy="36.68" r="17.43"/>
    <path className="st3" d="M1953.99,56.13c-10.72,0-19.45-8.72-19.45-19.45s8.72-19.45,19.45-19.45,19.45,8.72,19.45,19.45-8.72,19.45-19.45,19.45ZM1953.99,21.26c-8.5,0-15.42,6.92-15.42,15.42s6.92,15.42,15.42,15.42,15.42-6.92,15.42-15.42-6.92-15.42-15.42-15.42Z"/>
    <path className="st2" d="M2170.77,36.68c0,16.91-11.83,35.81-22.55,48.04-2.36,2.69-6.56,2.69-8.92,0-10.72-12.22-22.55-31.13-22.55-48.04,0-14.92,12.09-27.01,27.01-27.01s27.01,12.09,27.01,27.01Z"/>
    <circle className="st1" cx="2143.76" cy="36.68" r="17.43"/>
    <path className="st3" d="M2143.76,56.13c-10.72,0-19.45-8.72-19.45-19.45s8.72-19.45,19.45-19.45,19.45,8.72,19.45,19.45-8.72,19.45-19.45,19.45ZM2143.76,21.26c-8.5,0-15.42,6.92-15.42,15.42s6.92,15.42,15.42,15.42,15.42-6.92,15.42-15.42-6.92-15.42-15.42-15.42Z"/>
    <path className="st2" d="M178.13,203.98c0,16.91-11.83,35.81-22.55,48.04-2.36,2.69-6.56,2.69-8.92,0-10.72-12.22-22.55-31.13-22.55-48.04,0-14.92,12.09-27.01,27.01-27.01s27.01,12.09,27.01,27.01Z"/>
    <circle className="st1" cx="151.12" cy="203.98" r="17.43"/>
    <path className="st3" d="M151.12,223.43c-10.72,0-19.45-8.72-19.45-19.45s8.72-19.45,19.45-19.45,19.45,8.72,19.45,19.45-8.72,19.45-19.45,19.45ZM151.12,188.56c-8.5,0-15.42,6.92-15.42,15.42s6.92,15.42,15.42,15.42,15.42-6.92,15.42-15.42-6.92-15.42-15.42-15.42Z"/>
    <path className="st2" d="M367.91,203.98c0,16.91-11.83,35.81-22.55,48.04-2.36,2.69-6.56,2.69-8.92,0-10.72-12.22-22.55-31.13-22.55-48.04,0-14.92,12.09-27.01,27.01-27.01s27.01,12.09,27.01,27.01Z"/>
    <circle className="st1" cx="340.9" cy="203.98" r="17.43"/>
    <path className="st3" d="M340.9,223.43c-10.72,0-19.45-8.72-19.45-19.45s8.72-19.45,19.45-19.45,19.45,8.72,19.45,19.45-8.72,19.45-19.45,19.45ZM340.9,188.56c-8.5,0-15.42,6.92-15.42,15.42s6.92,15.42,15.42,15.42,15.42-6.92,15.42-15.42-6.92-15.42-15.42-15.42Z"/>
    <path className="st2" d="M557.68,203.98c0,16.91-11.83,35.81-22.55,48.04-2.36,2.69-6.56,2.69-8.92,0-10.72-12.22-22.55-31.13-22.55-48.04,0-14.92,12.09-27.01,27.01-27.01s27.01,12.09,27.01,27.01Z"/>
    <circle className="st1" cx="530.67" cy="203.98" r="17.43"/>
    <path className="st3" d="M530.67,223.43c-10.72,0-19.45-8.72-19.45-19.45s8.72-19.45,19.45-19.45,19.45,8.72,19.45,19.45-8.72,19.45-19.45,19.45ZM530.67,188.56c-8.5,0-15.42,6.92-15.42,15.42s6.92,15.42,15.42,15.42,15.42-6.92,15.42-15.42-6.92-15.42-15.42-15.42Z"/>
    <path className="st2" d="M747.46,203.98c0,16.91-11.83,35.81-22.55,48.04-2.36,2.69-6.56,2.69-8.92,0-10.72-12.22-22.55-31.13-22.55-48.04,0-14.92,12.09-27.01,27.01-27.01s27.01,12.09,27.01,27.01Z"/>
    <circle className="st1" cx="720.45" cy="203.98" r="17.43"/>
    <path className="st3" d="M720.45,223.43c-10.72,0-19.45-8.72-19.45-19.45s8.72-19.45,19.45-19.45,19.45,8.72,19.45,19.45-8.72,19.45-19.45,19.45ZM720.45,188.56c-8.5,0-15.42,6.92-15.42,15.42s6.92,15.42,15.42,15.42,15.42-6.92,15.42-15.42-6.92-15.42-15.42-15.42Z"/>
    <path className="st2" d="M937.23,203.98c0,16.91-11.83,35.81-22.55,48.04-2.36,2.69-6.56,2.69-8.92,0-10.72-12.22-22.55-31.13-22.55-48.04,0-14.92,12.09-27.01,27.01-27.01s27.01,12.09,27.01,27.01Z"/>
    <circle className="st1" cx="910.22" cy="203.98" r="17.43"/>
    <path className="st3" d="M910.22,223.43c-10.72,0-19.45-8.72-19.45-19.45s8.72-19.45,19.45-19.45,19.45,8.72,19.45,19.45-8.72,19.45-19.45,19.45ZM910.22,188.56c-8.5,0-15.42,6.92-15.42,15.42s6.92,15.42,15.42,15.42,15.42-6.92,15.42-15.42-6.92-15.42-15.42-15.42Z"/>
    <path className="st2" d="M1127.01,203.98c0,16.91-11.83,35.81-22.55,48.04-2.36,2.69-6.56,2.69-8.92,0-10.72-12.22-22.55-31.13-22.55-48.04,0-14.92,12.09-27.01,27.01-27.01s27.01,12.09,27.01,27.01Z"/>
    <circle className="st1" cx="1100" cy="203.98" r="17.43"/>
    <path className="st3" d="M1100,223.43c-10.72,0-19.45-8.72-19.45-19.45s8.72-19.45,19.45-19.45,19.45,8.72,19.45,19.45-8.72,19.45-19.45,19.45ZM1100,188.56c-8.5,0-15.42,6.92-15.42,15.42s6.92,15.42,15.42,15.42,15.42-6.92,15.42-15.42-6.92-15.42-15.42-15.42Z"/>
    <path className="st2" d="M1316.78,203.98c0,16.91-11.83,35.81-22.55,48.04-2.36,2.69-6.56,2.69-8.92,0-10.72-12.22-22.55-31.13-22.55-48.04,0-14.92,12.09-27.01,27.01-27.01s27.01,12.09,27.01,27.01Z"/>
    <circle className="st1" cx="1289.78" cy="203.98" r="17.43"/>
    <path className="st3" d="M1289.78,223.43c-10.72,0-19.45-8.72-19.45-19.45s8.72-19.45,19.45-19.45,19.45,8.72,19.45,19.45-8.72,19.45-19.45,19.45ZM1289.78,188.56c-8.5,0-15.42,6.92-15.42,15.42s6.92,15.42,15.42,15.42,15.42-6.92,15.42-15.42-6.92-15.42-15.42-15.42Z"/>
    <path className="st2" d="M1506.56,203.98c0,16.91-11.83,35.81-22.55,48.04-2.36,2.69-6.56,2.69-8.92,0-10.72-12.22-22.55-31.13-22.55-48.04,0-14.92,12.09-27.01,27.01-27.01s27.01,12.09,27.01,27.01Z"/>
    <circle className="st1" cx="1479.55" cy="203.98" r="17.43"/>
    <path className="st3" d="M1479.55,223.43c-10.72,0-19.45-8.72-19.45-19.45s8.72-19.45,19.45-19.45,19.45,8.72,19.45,19.45-8.72,19.45-19.45,19.45ZM1479.55,188.56c-8.5,0-15.42,6.92-15.42,15.42s6.92,15.42,15.42,15.42,15.42-6.92,15.42-15.42-6.92-15.42-15.42-15.42Z"/>
    <path className="st2" d="M1696.33,203.98c0,16.91-11.83,35.81-22.55,48.04-2.36,2.69-6.56,2.69-8.92,0-10.72-12.22-22.55-31.13-22.55-48.04,0-14.92,12.09-27.01,27.01-27.01s27.01,12.09,27.01,27.01Z"/>
    <circle className="st1" cx="1669.33" cy="203.98" r="17.43"/>
    <path className="st3" d="M1669.33,223.43c-10.72,0-19.45-8.72-19.45-19.45s8.72-19.45,19.45-19.45,19.45,8.72,19.45,19.45-8.72,19.45-19.45,19.45ZM1669.33,188.56c-8.5,0-15.42,6.92-15.42,15.42s6.92,15.42,15.42,15.42,15.42-6.92,15.42-15.42-6.92-15.42-15.42-15.42Z"/>
    <path className="st2" d="M1886.11,203.98c0,16.91-11.83,35.81-22.55,48.04-2.36,2.69-6.56,2.69-8.92,0-10.72-12.22-22.55-31.13-22.55-48.04,0-14.92,12.09-27.01,27.01-27.01s27.01,12.09,27.01,27.01Z"/>
    <circle className="st1" cx="1859.1" cy="203.98" r="17.43"/>
    <path className="st3" d="M1859.1,223.43c-10.72,0-19.45-8.72-19.45-19.45s8.72-19.45,19.45-19.45,19.45,8.72,19.45,19.45-8.72,19.45-19.45,19.45ZM1859.1,188.56c-8.5,0-15.42,6.92-15.42,15.42s6.92,15.42,15.42,15.42,15.42-6.92,15.42-15.42-6.92-15.42-15.42-15.42Z"/>
    <path className="st2" d="M2075.88,203.98c0,16.91-11.83,35.81-22.55,48.04-2.36,2.69-6.56,2.69-8.92,0-10.72-12.22-22.55-31.13-22.55-48.04,0-14.92,12.09-27.01,27.01-27.01s27.01,12.09,27.01,27.01Z"/>
    <circle className="st1" cx="2048.88" cy="203.98" r="17.43"/>
    <path className="st3" d="M2048.88,223.43c-10.72,0-19.45-8.72-19.45-19.45s8.72-19.45,19.45-19.45,19.45,8.72,19.45,19.45-8.72,19.45-19.45,19.45ZM2048.88,188.56c-8.5,0-15.42,6.92-15.42,15.42s6.92,15.42,15.42,15.42,15.42-6.92,15.42-15.42-6.92-15.42-15.42-15.42Z"/>
    <path className="st2" d="M83.24,371.28c0,16.91-11.83,35.81-22.55,48.04-2.36,2.69-6.56,2.69-8.92,0-10.72-12.22-22.55-31.13-22.55-48.04,0-14.92,12.09-27.01,27.01-27.01s27.01,12.09,27.01,27.01Z"/>
    <circle className="st1" cx="56.24" cy="371.28" r="17.43"/>
    <path className="st3" d="M56.24,390.73c-10.72,0-19.45-8.72-19.45-19.45s8.72-19.45,19.45-19.45,19.45,8.72,19.45,19.45-8.72,19.45-19.45,19.45ZM56.24,355.87c-8.5,0-15.42,6.92-15.42,15.42s6.92,15.42,15.42,15.42,15.42-6.92,15.42-15.42-6.92-15.42-15.42-15.42Z"/>
    <path className="st2" d="M273.02,371.28c0,16.91-11.83,35.81-22.55,48.04-2.36,2.69-6.56,2.69-8.92,0-10.72-12.22-22.55-31.13-22.55-48.04,0-14.92,12.09-27.01,27.01-27.01s27.01,12.09,27.01,27.01Z"/>
    <circle className="st1" cx="246.01" cy="371.28" r="17.43"/>
    <path className="st3" d="M246.01,390.73c-10.72,0-19.45-8.72-19.45-19.45s8.72-19.45,19.45-19.45,19.45,8.72,19.45,19.45-8.72,19.45-19.45,19.45ZM246.01,355.87c-8.5,0-15.42,6.92-15.42,15.42s6.92,15.42,15.42,15.42,15.42-6.92,15.42-15.42-6.92-15.42-15.42-15.42Z"/>
    <path className="st2" d="M462.79,371.28c0,16.91-11.83,35.81-22.55,48.04-2.36,2.69-6.56,2.69-8.92,0-10.72-12.22-22.55-31.13-22.55-48.04,0-14.92,12.09-27.01,27.01-27.01s27.01,12.09,27.01,27.01Z"/>
    <circle className="st1" cx="435.79" cy="371.28" r="17.43"/>
    <path className="st3" d="M435.79,390.73c-10.72,0-19.45-8.72-19.45-19.45s8.72-19.45,19.45-19.45,19.45,8.72,19.45,19.45-8.72,19.45-19.45,19.45ZM435.79,355.87c-8.5,0-15.42,6.92-15.42,15.42s6.92,15.42,15.42,15.42,15.42-6.92,15.42-15.42-6.92-15.42-15.42-15.42Z"/>
    <path className="st2" d="M652.57,371.28c0,16.91-11.83,35.81-22.55,48.04-2.36,2.69-6.56,2.69-8.92,0-10.72-12.22-22.55-31.13-22.55-48.04,0-14.92,12.09-27.01,27.01-27.01s27.01,12.09,27.01,27.01Z"/>
    <circle className="st1" cx="625.56" cy="371.28" r="17.43"/>
    <path className="st3" d="M625.56,390.73c-10.72,0-19.45-8.72-19.45-19.45s8.72-19.45,19.45-19.45,19.45,8.72,19.45,19.45-8.72,19.45-19.45,19.45ZM625.56,355.87c-8.5,0-15.42,6.92-15.42,15.42s6.92,15.42,15.42,15.42,15.42-6.92,15.42-15.42-6.92-15.42-15.42-15.42Z"/>
    <path className="st2" d="M842.34,371.28c0,16.91-11.83,35.81-22.55,48.04-2.36,2.69-6.56,2.69-8.92,0-10.72-12.22-22.55-31.13-22.55-48.04,0-14.92,12.09-27.01,27.01-27.01s27.01,12.09,27.01,27.01Z"/>
    <circle className="st1" cx="815.34" cy="371.28" r="17.43"/>
    <path className="st3" d="M815.34,390.73c-10.72,0-19.45-8.72-19.45-19.45s8.72-19.45,19.45-19.45,19.45,8.72,19.45,19.45-8.72,19.45-19.45,19.45ZM815.34,355.87c-8.5,0-15.42,6.92-15.42,15.42s6.92,15.42,15.42,15.42,15.42-6.92,15.42-15.42-6.92-15.42-15.42-15.42Z"/>
    <path className="st2" d="M1032.12,371.28c0,16.91-11.83,35.81-22.55,48.04-2.36,2.69-6.56,2.69-8.92,0-10.72-12.22-22.55-31.13-22.55-48.04,0-14.92,12.09-27.01,27.01-27.01s27.01,12.09,27.01,27.01Z"/>
    <circle className="st1" cx="1005.11" cy="371.28" r="17.43"/>
    <path className="st3" d="M1005.11,390.73c-10.72,0-19.45-8.72-19.45-19.45s8.72-19.45,19.45-19.45,19.45,8.72,19.45,19.45-8.72,19.45-19.45,19.45ZM1005.11,355.87c-8.5,0-15.42,6.92-15.42,15.42s6.92,15.42,15.42,15.42,15.42-6.92,15.42-15.42-6.92-15.42-15.42-15.42Z"/>
    <path className="st2" d="M1221.9,371.28c0,16.91-11.83,35.81-22.55,48.04-2.36,2.69-6.56,2.69-8.92,0-10.72-12.22-22.55-31.13-22.55-48.04,0-14.92,12.09-27.01,27.01-27.01s27.01,12.09,27.01,27.01Z"/>
    <circle className="st1" cx="1194.89" cy="371.28" r="17.43"/>
    <path className="st3" d="M1194.89,390.73c-10.72,0-19.45-8.72-19.45-19.45s8.72-19.45,19.45-19.45,19.45,8.72,19.45,19.45-8.72,19.45-19.45,19.45ZM1194.89,355.87c-8.5,0-15.42,6.92-15.42,15.42s6.92,15.42,15.42,15.42,15.42-6.92,15.42-15.42-6.92-15.42-15.42-15.42Z"/>
    <path className="st2" d="M1411.67,371.28c0,16.91-11.83,35.81-22.55,48.04-2.36,2.69-6.56,2.69-8.92,0-10.72-12.22-22.55-31.13-22.55-48.04,0-14.92,12.09-27.01,27.01-27.01s27.01,12.09,27.01,27.01Z"/>
    <circle className="st1" cx="1384.66" cy="371.28" r="17.43"/>
    <path className="st3" d="M1384.66,390.73c-10.72,0-19.45-8.72-19.45-19.45s8.72-19.45,19.45-19.45,19.45,8.72,19.45,19.45-8.72,19.45-19.45,19.45ZM1384.66,355.87c-8.5,0-15.42,6.92-15.42,15.42s6.92,15.42,15.42,15.42,15.42-6.92,15.42-15.42-6.92-15.42-15.42-15.42Z"/>
    <path className="st2" d="M1601.45,371.28c0,16.91-11.83,35.81-22.55,48.04-2.36,2.69-6.56,2.69-8.92,0-10.72-12.22-22.55-31.13-22.55-48.04,0-14.92,12.09-27.01,27.01-27.01s27.01,12.09,27.01,27.01Z"/>
    <circle className="st1" cx="1574.44" cy="371.28" r="17.43"/>
    <path className="st3" d="M1574.44,390.73c-10.72,0-19.45-8.72-19.45-19.45s8.72-19.45,19.45-19.45,19.45,8.72,19.45,19.45-8.72,19.45-19.45,19.45ZM1574.44,355.87c-8.5,0-15.42,6.92-15.42,15.42s6.92,15.42,15.42,15.42,15.42-6.92,15.42-15.42-6.92-15.42-15.42-15.42Z"/>
    <path className="st2" d="M1791.22,371.28c0,16.91-11.83,35.81-22.55,48.04-2.36,2.69-6.56,2.69-8.92,0-10.72-12.22-22.55-31.13-22.55-48.04,0-14.92,12.09-27.01,27.01-27.01s27.01,12.09,27.01,27.01Z"/>
    <circle className="st1" cx="1764.21" cy="371.28" r="17.43"/>
    <path className="st3" d="M1764.21,390.73c-10.72,0-19.45-8.72-19.45-19.45s8.72-19.45,19.45-19.45,19.45,8.72,19.45,19.45-8.72,19.45-19.45,19.45ZM1764.21,355.87c-8.5,0-15.42,6.92-15.42,15.42s6.92,15.42,15.42,15.42,15.42-6.92,15.42-15.42-6.92-15.42-15.42-15.42Z"/>
    <path className="st2" d="M1981,371.28c0,16.91-11.83,35.81-22.55,48.04-2.36,2.69-6.56,2.69-8.92,0-10.72-12.22-22.55-31.13-22.55-48.04,0-14.92,12.09-27.01,27.01-27.01s27.01,12.09,27.01,27.01Z"/>
    <circle className="st1" cx="1953.99" cy="371.28" r="17.43"/>
    <path className="st3" d="M1953.99,390.73c-10.72,0-19.45-8.72-19.45-19.45s8.72-19.45,19.45-19.45,19.45,8.72,19.45,19.45-8.72,19.45-19.45,19.45ZM1953.99,355.87c-8.5,0-15.42,6.92-15.42,15.42s6.92,15.42,15.42,15.42,15.42-6.92,15.42-15.42-6.92-15.42-15.42-15.42Z"/>
    <path className="st2" d="M2170.77,371.28c0,16.91-11.83,35.81-22.55,48.04-2.36,2.69-6.56,2.69-8.92,0-10.72-12.22-22.55-31.13-22.55-48.04,0-14.92,12.09-27.01,27.01-27.01s27.01,12.09,27.01,27.01Z"/>
    <circle className="st1" cx="2143.76" cy="371.28" r="17.43"/>
    <path className="st3" d="M2143.76,390.73c-10.72,0-19.45-8.72-19.45-19.45s8.72-19.45,19.45-19.45,19.45,8.72,19.45,19.45-8.72,19.45-19.45,19.45ZM2143.76,355.87c-8.5,0-15.42,6.92-15.42,15.42s6.92,15.42,15.42,15.42,15.42-6.92,15.42-15.42-6.92-15.42-15.42-15.42Z"/>
    <path className="st2" d="M178.13,538.59c0,16.91-11.83,35.81-22.55,48.04-2.36,2.69-6.56,2.69-8.92,0-10.72-12.22-22.55-31.13-22.55-48.04,0-14.92,12.09-27.01,27.01-27.01s27.01,12.09,27.01,27.01Z"/>
    <circle className="st1" cx="151.12" cy="538.59" r="17.43"/>
    <path className="st3" d="M151.12,558.03c-10.72,0-19.45-8.72-19.45-19.45s8.72-19.45,19.45-19.45,19.45,8.72,19.45,19.45-8.72,19.45-19.45,19.45ZM151.12,523.17c-8.5,0-15.42,6.92-15.42,15.42s6.92,15.42,15.42,15.42,15.42-6.92,15.42-15.42-6.92-15.42-15.42-15.42Z"/>
    <path className="st2" d="M367.91,538.59c0,16.91-11.83,35.81-22.55,48.04-2.36,2.69-6.56,2.69-8.92,0-10.72-12.22-22.55-31.13-22.55-48.04,0-14.92,12.09-27.01,27.01-27.01s27.01,12.09,27.01,27.01Z"/>
    <circle className="st1" cx="340.9" cy="538.59" r="17.43"/>
    <path className="st3" d="M340.9,558.03c-10.72,0-19.45-8.72-19.45-19.45s8.72-19.45,19.45-19.45,19.45,8.72,19.45,19.45-8.72,19.45-19.45,19.45ZM340.9,523.17c-8.5,0-15.42,6.92-15.42,15.42s6.92,15.42,15.42,15.42,15.42-6.92,15.42-15.42-6.92-15.42-15.42-15.42Z"/>
    <path className="st2" d="M557.68,538.59c0,16.91-11.83,35.81-22.55,48.04-2.36,2.69-6.56,2.69-8.92,0-10.72-12.22-22.55-31.13-22.55-48.04,0-14.92,12.09-27.01,27.01-27.01s27.01,12.09,27.01,27.01Z"/>
    <circle className="st1" cx="530.67" cy="538.59" r="17.43"/>
    <path className="st3" d="M530.67,558.03c-10.72,0-19.45-8.72-19.45-19.45s8.72-19.45,19.45-19.45,19.45,8.72,19.45,19.45-8.72,19.45-19.45,19.45ZM530.67,523.17c-8.5,0-15.42,6.92-15.42,15.42s6.92,15.42,15.42,15.42,15.42-6.92,15.42-15.42-6.92-15.42-15.42-15.42Z"/>
    <path className="st2" d="M747.46,538.59c0,16.91-11.83,35.81-22.55,48.04-2.36,2.69-6.56,2.69-8.92,0-10.72-12.22-22.55-31.13-22.55-48.04,0-14.92,12.09-27.01,27.01-27.01s27.01,12.09,27.01,27.01Z"/>
    <circle className="st1" cx="720.45" cy="538.59" r="17.43"/>
    <path className="st3" d="M720.45,558.03c-10.72,0-19.45-8.72-19.45-19.45s8.72-19.45,19.45-19.45,19.45,8.72,19.45,19.45-8.72,19.45-19.45,19.45ZM720.45,523.17c-8.5,0-15.42,6.92-15.42,15.42s6.92,15.42,15.42,15.42,15.42-6.92,15.42-15.42-6.92-15.42-15.42-15.42Z"/>
    <path className="st2" d="M937.23,538.59c0,16.91-11.83,35.81-22.55,48.04-2.36,2.69-6.56,2.69-8.92,0-10.72-12.22-22.55-31.13-22.55-48.04,0-14.92,12.09-27.01,27.01-27.01s27.01,12.09,27.01,27.01Z"/>
    <circle className="st1" cx="910.22" cy="538.59" r="17.43"/>
    <path className="st3" d="M910.22,558.03c-10.72,0-19.45-8.72-19.45-19.45s8.72-19.45,19.45-19.45,19.45,8.72,19.45,19.45-8.72,19.45-19.45,19.45ZM910.22,523.17c-8.5,0-15.42,6.92-15.42,15.42s6.92,15.42,15.42,15.42,15.42-6.92,15.42-15.42-6.92-15.42-15.42-15.42Z"/>
    <path className="st2" d="M1127.01,538.59c0,16.91-11.83,35.81-22.55,48.04-2.36,2.69-6.56,2.69-8.92,0-10.72-12.22-22.55-31.13-22.55-48.04,0-14.92,12.09-27.01,27.01-27.01s27.01,12.09,27.01,27.01Z"/>
    <circle className="st1" cx="1100" cy="538.59" r="17.43"/>
    <path className="st3" d="M1100,558.03c-10.72,0-19.45-8.72-19.45-19.45s8.72-19.45,19.45-19.45,19.45,8.72,19.45,19.45-8.72,19.45-19.45,19.45ZM1100,523.17c-8.5,0-15.42,6.92-15.42,15.42s6.92,15.42,15.42,15.42,15.42-6.92,15.42-15.42-6.92-15.42-15.42-15.42Z"/>
    <path className="st2" d="M1316.78,538.59c0,16.91-11.83,35.81-22.55,48.04-2.36,2.69-6.56,2.69-8.92,0-10.72-12.22-22.55-31.13-22.55-48.04,0-14.92,12.09-27.01,27.01-27.01s27.01,12.09,27.01,27.01Z"/>
    <circle className="st1" cx="1289.78" cy="538.59" r="17.43"/>
    <path className="st3" d="M1289.78,558.03c-10.72,0-19.45-8.72-19.45-19.45s8.72-19.45,19.45-19.45,19.45,8.72,19.45,19.45-8.72,19.45-19.45,19.45ZM1289.78,523.17c-8.5,0-15.42,6.92-15.42,15.42s6.92,15.42,15.42,15.42,15.42-6.92,15.42-15.42-6.92-15.42-15.42-15.42Z"/>
    <path className="st2" d="M1506.56,538.59c0,16.91-11.83,35.81-22.55,48.04-2.36,2.69-6.56,2.69-8.92,0-10.72-12.22-22.55-31.13-22.55-48.04,0-14.92,12.09-27.01,27.01-27.01s27.01,12.09,27.01,27.01Z"/>
    <circle className="st1" cx="1479.55" cy="538.59" r="17.43"/>
    <path className="st3" d="M1479.55,558.03c-10.72,0-19.45-8.72-19.45-19.45s8.72-19.45,19.45-19.45,19.45,8.72,19.45,19.45-8.72,19.45-19.45,19.45ZM1479.55,523.17c-8.5,0-15.42,6.92-15.42,15.42s6.92,15.42,15.42,15.42,15.42-6.92,15.42-15.42-6.92-15.42-15.42-15.42Z"/>
    <path className="st2" d="M1696.33,538.59c0,16.91-11.83,35.81-22.55,48.04-2.36,2.69-6.56,2.69-8.92,0-10.72-12.22-22.55-31.13-22.55-48.04,0-14.92,12.09-27.01,27.01-27.01s27.01,12.09,27.01,27.01Z"/>
    <circle className="st1" cx="1669.33" cy="538.59" r="17.43"/>
    <path className="st3" d="M1669.33,558.03c-10.72,0-19.45-8.72-19.45-19.45s8.72-19.45,19.45-19.45,19.45,8.72,19.45,19.45-8.72,19.45-19.45,19.45ZM1669.33,523.17c-8.5,0-15.42,6.92-15.42,15.42s6.92,15.42,15.42,15.42,15.42-6.92,15.42-15.42-6.92-15.42-15.42-15.42Z"/>
    <path className="st2" d="M1886.11,538.59c0,16.91-11.83,35.81-22.55,48.04-2.36,2.69-6.56,2.69-8.92,0-10.72-12.22-22.55-31.13-22.55-48.04,0-14.92,12.09-27.01,27.01-27.01s27.01,12.09,27.01,27.01Z"/>
    <circle className="st1" cx="1859.1" cy="538.59" r="17.43"/>
    <path className="st3" d="M1859.1,558.03c-10.72,0-19.45-8.72-19.45-19.45s8.72-19.45,19.45-19.45,19.45,8.72,19.45,19.45-8.72,19.45-19.45,19.45ZM1859.1,523.17c-8.5,0-15.42,6.92-15.42,15.42s6.92,15.42,15.42,15.42,15.42-6.92,15.42-15.42-6.92-15.42-15.42-15.42Z"/>
    <path className="st2" d="M2075.88,538.59c0,16.91-11.83,35.81-22.55,48.04-2.36,2.69-6.56,2.69-8.92,0-10.72-12.22-22.55-31.13-22.55-48.04,0-14.92,12.09-27.01,27.01-27.01s27.01,12.09,27.01,27.01Z"/>
    <circle className="st1" cx="2048.88" cy="538.59" r="17.43"/>
    <path className="st3" d="M2048.88,558.03c-10.72,0-19.45-8.72-19.45-19.45s8.72-19.45,19.45-19.45,19.45,8.72,19.45,19.45-8.72,19.45-19.45,19.45ZM2048.88,523.17c-8.5,0-15.42,6.92-15.42,15.42s6.92,15.42,15.42,15.42,15.42-6.92,15.42-15.42-6.92-15.42-15.42-15.42Z"/>
    <path className="st2" d="M83.24,705.89c0,16.91-11.83,35.81-22.55,48.04-2.36,2.69-6.56,2.69-8.92,0-10.72-12.22-22.55-31.13-22.55-48.04,0-14.92,12.09-27.01,27.01-27.01s27.01,12.09,27.01,27.01Z"/>
    <circle className="st1" cx="56.24" cy="705.89" r="17.43"/>
    <path className="st3" d="M56.24,725.34c-10.72,0-19.45-8.72-19.45-19.45s8.72-19.45,19.45-19.45,19.45,8.72,19.45,19.45-8.72,19.45-19.45,19.45ZM56.24,690.47c-8.5,0-15.42,6.92-15.42,15.42s6.92,15.42,15.42,15.42,15.42-6.92,15.42-15.42-6.92-15.42-15.42-15.42Z"/>
    <path className="st2" d="M273.02,705.89c0,16.91-11.83,35.81-22.55,48.04-2.36,2.69-6.56,2.69-8.92,0-10.72-12.22-22.55-31.13-22.55-48.04,0-14.92,12.09-27.01,27.01-27.01s27.01,12.09,27.01,27.01Z"/>
    <circle className="st1" cx="246.01" cy="705.89" r="17.43"/>
    <path className="st3" d="M246.01,725.34c-10.72,0-19.45-8.72-19.45-19.45s8.72-19.45,19.45-19.45,19.45,8.72,19.45,19.45-8.72,19.45-19.45,19.45ZM246.01,690.47c-8.5,0-15.42,6.92-15.42,15.42s6.92,15.42,15.42,15.42,15.42-6.92,15.42-15.42-6.92-15.42-15.42-15.42Z"/>
    <path className="st2" d="M462.79,705.89c0,16.91-11.83,35.81-22.55,48.04-2.36,2.69-6.56,2.69-8.92,0-10.72-12.22-22.55-31.13-22.55-48.04,0-14.92,12.09-27.01,27.01-27.01s27.01,12.09,27.01,27.01Z"/>
    <circle className="st1" cx="435.79" cy="705.89" r="17.43"/>
    <path className="st3" d="M435.79,725.34c-10.72,0-19.45-8.72-19.45-19.45s8.72-19.45,19.45-19.45,19.45,8.72,19.45,19.45-8.72,19.45-19.45,19.45ZM435.79,690.47c-8.5,0-15.42,6.92-15.42,15.42s6.92,15.42,15.42,15.42,15.42-6.92,15.42-15.42-6.92-15.42-15.42-15.42Z"/>
    <path className="st2" d="M652.57,705.89c0,16.91-11.83,35.81-22.55,48.04-2.36,2.69-6.56,2.69-8.92,0-10.72-12.22-22.55-31.13-22.55-48.04,0-14.92,12.09-27.01,27.01-27.01s27.01,12.09,27.01,27.01Z"/>
    <circle className="st1" cx="625.56" cy="705.89" r="17.43"/>
    <path className="st3" d="M625.56,725.34c-10.72,0-19.45-8.72-19.45-19.45s8.72-19.45,19.45-19.45,19.45,8.72,19.45,19.45-8.72,19.45-19.45,19.45ZM625.56,690.47c-8.5,0-15.42,6.92-15.42,15.42s6.92,15.42,15.42,15.42,15.42-6.92,15.42-15.42-6.92-15.42-15.42-15.42Z"/>
    <path className="st2" d="M842.34,705.89c0,16.91-11.83,35.81-22.55,48.04-2.36,2.69-6.56,2.69-8.92,0-10.72-12.22-22.55-31.13-22.55-48.04,0-14.92,12.09-27.01,27.01-27.01s27.01,12.09,27.01,27.01Z"/>
    <circle className="st1" cx="815.34" cy="705.89" r="17.43"/>
    <path className="st3" d="M815.34,725.34c-10.72,0-19.45-8.72-19.45-19.45s8.72-19.45,19.45-19.45,19.45,8.72,19.45,19.45-8.72,19.45-19.45,19.45ZM815.34,690.47c-8.5,0-15.42,6.92-15.42,15.42s6.92,15.42,15.42,15.42,15.42-6.92,15.42-15.42-6.92-15.42-15.42-15.42Z"/>
    <path className="st2" d="M1032.12,705.89c0,16.91-11.83,35.81-22.55,48.04-2.36,2.69-6.56,2.69-8.92,0-10.72-12.22-22.55-31.13-22.55-48.04,0-14.92,12.09-27.01,27.01-27.01s27.01,12.09,27.01,27.01Z"/>
    <circle className="st1" cx="1005.11" cy="705.89" r="17.43"/>
    <path className="st3" d="M1005.11,725.34c-10.72,0-19.45-8.72-19.45-19.45s8.72-19.45,19.45-19.45,19.45,8.72,19.45,19.45-8.72,19.45-19.45,19.45ZM1005.11,690.47c-8.5,0-15.42,6.92-15.42,15.42s6.92,15.42,15.42,15.42,15.42-6.92,15.42-15.42-6.92-15.42-15.42-15.42Z"/>
    <path className="st2" d="M1221.9,705.89c0,16.91-11.83,35.81-22.55,48.04-2.36,2.69-6.56,2.69-8.92,0-10.72-12.22-22.55-31.13-22.55-48.04,0-14.92,12.09-27.01,27.01-27.01s27.01,12.09,27.01,27.01Z"/>
    <circle className="st1" cx="1194.89" cy="705.89" r="17.43"/>
    <path className="st3" d="M1194.89,725.34c-10.72,0-19.45-8.72-19.45-19.45s8.72-19.45,19.45-19.45,19.45,8.72,19.45,19.45-8.72,19.45-19.45,19.45ZM1194.89,690.47c-8.5,0-15.42,6.92-15.42,15.42s6.92,15.42,15.42,15.42,15.42-6.92,15.42-15.42-6.92-15.42-15.42-15.42Z"/>
    <path className="st2" d="M1411.67,705.89c0,16.91-11.83,35.81-22.55,48.04-2.36,2.69-6.56,2.69-8.92,0-10.72-12.22-22.55-31.13-22.55-48.04,0-14.92,12.09-27.01,27.01-27.01s27.01,12.09,27.01,27.01Z"/>
    <circle className="st1" cx="1384.66" cy="705.89" r="17.43"/>
    <path className="st3" d="M1384.66,725.34c-10.72,0-19.45-8.72-19.45-19.45s8.72-19.45,19.45-19.45,19.45,8.72,19.45,19.45-8.72,19.45-19.45,19.45ZM1384.66,690.47c-8.5,0-15.42,6.92-15.42,15.42s6.92,15.42,15.42,15.42,15.42-6.92,15.42-15.42-6.92-15.42-15.42-15.42Z"/>
    <path className="st2" d="M1601.45,705.89c0,16.91-11.83,35.81-22.55,48.04-2.36,2.69-6.56,2.69-8.92,0-10.72-12.22-22.55-31.13-22.55-48.04,0-14.92,12.09-27.01,27.01-27.01s27.01,12.09,27.01,27.01Z"/>
    <circle className="st1" cx="1574.44" cy="705.89" r="17.43"/>
    <path className="st3" d="M1574.44,725.34c-10.72,0-19.45-8.72-19.45-19.45s8.72-19.45,19.45-19.45,19.45,8.72,19.45,19.45-8.72,19.45-19.45,19.45ZM1574.44,690.47c-8.5,0-15.42,6.92-15.42,15.42s6.92,15.42,15.42,15.42,15.42-6.92,15.42-15.42-6.92-15.42-15.42-15.42Z"/>
    <path className="st2" d="M1791.22,705.89c0,16.91-11.83,35.81-22.55,48.04-2.36,2.69-6.56,2.69-8.92,0-10.72-12.22-22.55-31.13-22.55-48.04,0-14.92,12.09-27.01,27.01-27.01s27.01,12.09,27.01,27.01Z"/>
    <circle className="st1" cx="1764.21" cy="705.89" r="17.43"/>
    <path className="st3" d="M1764.21,725.34c-10.72,0-19.45-8.72-19.45-19.45s8.72-19.45,19.45-19.45,19.45,8.72,19.45,19.45-8.72,19.45-19.45,19.45ZM1764.21,690.47c-8.5,0-15.42,6.92-15.42,15.42s6.92,15.42,15.42,15.42,15.42-6.92,15.42-15.42-6.92-15.42-15.42-15.42Z"/>
    <path className="st2" d="M1981,705.89c0,16.91-11.83,35.81-22.55,48.04-2.36,2.69-6.56,2.69-8.92,0-10.72-12.22-22.55-31.13-22.55-48.04,0-14.92,12.09-27.01,27.01-27.01s27.01,12.09,27.01,27.01Z"/>
    <circle className="st1" cx="1953.99" cy="705.89" r="17.43"/>
    <path className="st3" d="M1953.99,725.34c-10.72,0-19.45-8.72-19.45-19.45s8.72-19.45,19.45-19.45,19.45,8.72,19.45,19.45-8.72,19.45-19.45,19.45ZM1953.99,690.47c-8.5,0-15.42,6.92-15.42,15.42s6.92,15.42,15.42,15.42,15.42-6.92,15.42-15.42-6.92-15.42-15.42-15.42Z"/>
    <path className="st2" d="M2170.77,705.89c0,16.91-11.83,35.81-22.55,48.04-2.36,2.69-6.56,2.69-8.92,0-10.72-12.22-22.55-31.13-22.55-48.04,0-14.92,12.09-27.01,27.01-27.01s27.01,12.09,27.01,27.01Z"/>
    <circle className="st1" cx="2143.76" cy="705.89" r="17.43"/>
    <path className="st3" d="M2143.76,725.34c-10.72,0-19.45-8.72-19.45-19.45s8.72-19.45,19.45-19.45,19.45,8.72,19.45,19.45-8.72,19.45-19.45,19.45ZM2143.76,690.47c-8.5,0-15.42,6.92-15.42,15.42s6.92,15.42,15.42,15.42,15.42-6.92,15.42-15.42-6.92-15.42-15.42-15.42Z"/>
    <path className="st2" d="M178.13,873.19c0,16.91-11.83,35.81-22.55,48.04-2.36,2.69-6.56,2.69-8.92,0-10.72-12.22-22.55-31.13-22.55-48.04,0-14.92,12.09-27.01,27.01-27.01s27.01,12.09,27.01,27.01Z"/>
    <circle className="st1" cx="151.12" cy="873.19" r="17.43"/>
    <path className="st3" d="M151.12,892.64c-10.72,0-19.45-8.72-19.45-19.45s8.72-19.45,19.45-19.45,19.45,8.72,19.45,19.45-8.72,19.45-19.45,19.45ZM151.12,857.77c-8.5,0-15.42,6.92-15.42,15.42s6.92,15.42,15.42,15.42,15.42-6.92,15.42-15.42-6.92-15.42-15.42-15.42Z"/>
    <path className="st2" d="M367.91,873.19c0,16.91-11.83,35.81-22.55,48.04-2.36,2.69-6.56,2.69-8.92,0-10.72-12.22-22.55-31.13-22.55-48.04,0-14.92,12.09-27.01,27.01-27.01s27.01,12.09,27.01,27.01Z"/>
    <circle className="st1" cx="340.9" cy="873.19" r="17.43"/>
    <path className="st3" d="M340.9,892.64c-10.72,0-19.45-8.72-19.45-19.45s8.72-19.45,19.45-19.45,19.45,8.72,19.45,19.45-8.72,19.45-19.45,19.45ZM340.9,857.77c-8.5,0-15.42,6.92-15.42,15.42s6.92,15.42,15.42,15.42,15.42-6.92,15.42-15.42-6.92-15.42-15.42-15.42Z"/>
    <path className="st2" d="M557.68,873.19c0,16.91-11.83,35.81-22.55,48.04-2.36,2.69-6.56,2.69-8.92,0-10.72-12.22-22.55-31.13-22.55-48.04,0-14.92,12.09-27.01,27.01-27.01s27.01,12.09,27.01,27.01Z"/>
    <circle className="st1" cx="530.67" cy="873.19" r="17.43"/>
    <path className="st3" d="M530.67,892.64c-10.72,0-19.45-8.72-19.45-19.45s8.72-19.45,19.45-19.45,19.45,8.72,19.45,19.45-8.72,19.45-19.45,19.45ZM530.67,857.77c-8.5,0-15.42,6.92-15.42,15.42s6.92,15.42,15.42,15.42,15.42-6.92,15.42-15.42-6.92-15.42-15.42-15.42Z"/>
    <path className="st2" d="M747.46,873.19c0,16.91-11.83,35.81-22.55,48.04-2.36,2.69-6.56,2.69-8.92,0-10.72-12.22-22.55-31.13-22.55-48.04,0-14.92,12.09-27.01,27.01-27.01s27.01,12.09,27.01,27.01Z"/>
    <circle className="st1" cx="720.45" cy="873.19" r="17.43"/>
    <path className="st3" d="M720.45,892.64c-10.72,0-19.45-8.72-19.45-19.45s8.72-19.45,19.45-19.45,19.45,8.72,19.45,19.45-8.72,19.45-19.45,19.45ZM720.45,857.77c-8.5,0-15.42,6.92-15.42,15.42s6.92,15.42,15.42,15.42,15.42-6.92,15.42-15.42-6.92-15.42-15.42-15.42Z"/>
    <path className="st2" d="M937.23,873.19c0,16.91-11.83,35.81-22.55,48.04-2.36,2.69-6.56,2.69-8.92,0-10.72-12.22-22.55-31.13-22.55-48.04,0-14.92,12.09-27.01,27.01-27.01s27.01,12.09,27.01,27.01Z"/>
    <circle className="st1" cx="910.22" cy="873.19" r="17.43"/>
    <path className="st3" d="M910.22,892.64c-10.72,0-19.45-8.72-19.45-19.45s8.72-19.45,19.45-19.45,19.45,8.72,19.45,19.45-8.72,19.45-19.45,19.45ZM910.22,857.77c-8.5,0-15.42,6.92-15.42,15.42s6.92,15.42,15.42,15.42,15.42-6.92,15.42-15.42-6.92-15.42-15.42-15.42Z"/>
    <path className="st2" d="M1127.01,873.19c0,16.91-11.83,35.81-22.55,48.04-2.36,2.69-6.56,2.69-8.92,0-10.72-12.22-22.55-31.13-22.55-48.04,0-14.92,12.09-27.01,27.01-27.01s27.01,12.09,27.01,27.01Z"/>
    <circle className="st1" cx="1100" cy="873.19" r="17.43"/>
    <path className="st3" d="M1100,892.64c-10.72,0-19.45-8.72-19.45-19.45s8.72-19.45,19.45-19.45,19.45,8.72,19.45,19.45-8.72,19.45-19.45,19.45ZM1100,857.77c-8.5,0-15.42,6.92-15.42,15.42s6.92,15.42,15.42,15.42,15.42-6.92,15.42-15.42-6.92-15.42-15.42-15.42Z"/>
    <path className="st2" d="M1316.78,873.19c0,16.91-11.83,35.81-22.55,48.04-2.36,2.69-6.56,2.69-8.92,0-10.72-12.22-22.55-31.13-22.55-48.04,0-14.92,12.09-27.01,27.01-27.01s27.01,12.09,27.01,27.01Z"/>
    <circle className="st1" cx="1289.78" cy="873.19" r="17.43"/>
    <path className="st3" d="M1289.78,892.64c-10.72,0-19.45-8.72-19.45-19.45s8.72-19.45,19.45-19.45,19.45,8.72,19.45,19.45-8.72,19.45-19.45,19.45ZM1289.78,857.77c-8.5,0-15.42,6.92-15.42,15.42s6.92,15.42,15.42,15.42,15.42-6.92,15.42-15.42-6.92-15.42-15.42-15.42Z"/>
    <path className="st2" d="M1506.56,873.19c0,16.91-11.83,35.81-22.55,48.04-2.36,2.69-6.56,2.69-8.92,0-10.72-12.22-22.55-31.13-22.55-48.04,0-14.92,12.09-27.01,27.01-27.01s27.01,12.09,27.01,27.01Z"/>
    <circle className="st1" cx="1479.55" cy="873.19" r="17.43"/>
    <path className="st3" d="M1479.55,892.64c-10.72,0-19.45-8.72-19.45-19.45s8.72-19.45,19.45-19.45,19.45,8.72,19.45,19.45-8.72,19.45-19.45,19.45ZM1479.55,857.77c-8.5,0-15.42,6.92-15.42,15.42s6.92,15.42,15.42,15.42,15.42-6.92,15.42-15.42-6.92-15.42-15.42-15.42Z"/>
    <path className="st2" d="M1696.33,873.19c0,16.91-11.83,35.81-22.55,48.04-2.36,2.69-6.56,2.69-8.92,0-10.72-12.22-22.55-31.13-22.55-48.04,0-14.92,12.09-27.01,27.01-27.01s27.01,12.09,27.01,27.01Z"/>
    <circle className="st1" cx="1669.33" cy="873.19" r="17.43"/>
    <path className="st3" d="M1669.33,892.64c-10.72,0-19.45-8.72-19.45-19.45s8.72-19.45,19.45-19.45,19.45,8.72,19.45,19.45-8.72,19.45-19.45,19.45ZM1669.33,857.77c-8.5,0-15.42,6.92-15.42,15.42s6.92,15.42,15.42,15.42,15.42-6.92,15.42-15.42-6.92-15.42-15.42-15.42Z"/>
    <path className="st2" d="M1886.11,873.19c0,16.91-11.83,35.81-22.55,48.04-2.36,2.69-6.56,2.69-8.92,0-10.72-12.22-22.55-31.13-22.55-48.04,0-14.92,12.09-27.01,27.01-27.01s27.01,12.09,27.01,27.01Z"/>
    <circle className="st1" cx="1859.1" cy="873.19" r="17.43"/>
    <path className="st3" d="M1859.1,892.64c-10.72,0-19.45-8.72-19.45-19.45s8.72-19.45,19.45-19.45,19.45,8.72,19.45,19.45-8.72,19.45-19.45,19.45ZM1859.1,857.77c-8.5,0-15.42,6.92-15.42,15.42s6.92,15.42,15.42,15.42,15.42-6.92,15.42-15.42-6.92-15.42-15.42-15.42Z"/>
    <path className="st2" d="M2075.88,873.19c0,16.91-11.83,35.81-22.55,48.04-2.36,2.69-6.56,2.69-8.92,0-10.72-12.22-22.55-31.13-22.55-48.04,0-14.92,12.09-27.01,27.01-27.01s27.01,12.09,27.01,27.01Z"/>
    <circle className="st1" cx="2048.88" cy="873.19" r="17.43"/>
    <path className="st3" d="M2048.88,892.64c-10.72,0-19.45-8.72-19.45-19.45s8.72-19.45,19.45-19.45,19.45,8.72,19.45,19.45-8.72,19.45-19.45,19.45ZM2048.88,857.77c-8.5,0-15.42,6.92-15.42,15.42s6.92,15.42,15.42,15.42,15.42-6.92,15.42-15.42-6.92-15.42-15.42-15.42Z"/>
    <path className="st2" d="M83.24,1040.49c0,16.91-11.83,35.81-22.55,48.04-2.36,2.69-6.56,2.69-8.92,0-10.72-12.22-22.55-31.13-22.55-48.04,0-14.92,12.09-27.01,27.01-27.01s27.01,12.09,27.01,27.01Z"/>
    <circle className="st1" cx="56.24" cy="1040.49" r="17.43"/>
    <path className="st3" d="M56.24,1059.94c-10.72,0-19.45-8.72-19.45-19.45s8.72-19.45,19.45-19.45,19.45,8.72,19.45,19.45-8.72,19.45-19.45,19.45ZM56.24,1025.07c-8.5,0-15.42,6.92-15.42,15.42s6.92,15.42,15.42,15.42,15.42-6.92,15.42-15.42-6.92-15.42-15.42-15.42Z"/>
    <path className="st2" d="M273.02,1040.49c0,16.91-11.83,35.81-22.55,48.04-2.36,2.69-6.56,2.69-8.92,0-10.72-12.22-22.55-31.13-22.55-48.04,0-14.92,12.09-27.01,27.01-27.01s27.01,12.09,27.01,27.01Z"/>
    <circle className="st1" cx="246.01" cy="1040.49" r="17.43"/>
    <path className="st3" d="M246.01,1059.94c-10.72,0-19.45-8.72-19.45-19.45s8.72-19.45,19.45-19.45,19.45,8.72,19.45,19.45-8.72,19.45-19.45,19.45ZM246.01,1025.07c-8.5,0-15.42,6.92-15.42,15.42s6.92,15.42,15.42,15.42,15.42-6.92,15.42-15.42-6.92-15.42-15.42-15.42Z"/>
    <path className="st2" d="M462.79,1040.49c0,16.91-11.83,35.81-22.55,48.04-2.36,2.69-6.56,2.69-8.92,0-10.72-12.22-22.55-31.13-22.55-48.04,0-14.92,12.09-27.01,27.01-27.01s27.01,12.09,27.01,27.01Z"/>
    <circle className="st1" cx="435.79" cy="1040.49" r="17.43"/>
    <path className="st3" d="M435.79,1059.94c-10.72,0-19.45-8.72-19.45-19.45s8.72-19.45,19.45-19.45,19.45,8.72,19.45,19.45-8.72,19.45-19.45,19.45ZM435.79,1025.07c-8.5,0-15.42,6.92-15.42,15.42s6.92,15.42,15.42,15.42,15.42-6.92,15.42-15.42-6.92-15.42-15.42-15.42Z"/>
    <path className="st2" d="M652.57,1040.49c0,16.91-11.83,35.81-22.55,48.04-2.36,2.69-6.56,2.69-8.92,0-10.72-12.22-22.55-31.13-22.55-48.04,0-14.92,12.09-27.01,27.01-27.01s27.01,12.09,27.01,27.01Z"/>
    <circle className="st1" cx="625.56" cy="1040.49" r="17.43"/>
    <path className="st3" d="M625.56,1059.94c-10.72,0-19.45-8.72-19.45-19.45s8.72-19.45,19.45-19.45,19.45,8.72,19.45,19.45-8.72,19.45-19.45,19.45ZM625.56,1025.07c-8.5,0-15.42,6.92-15.42,15.42s6.92,15.42,15.42,15.42,15.42-6.92,15.42-15.42-6.92-15.42-15.42-15.42Z"/>
    <path className="st2" d="M842.34,1040.49c0,16.91-11.83,35.81-22.55,48.04-2.36,2.69-6.56,2.69-8.92,0-10.72-12.22-22.55-31.13-22.55-48.04,0-14.92,12.09-27.01,27.01-27.01s27.01,12.09,27.01,27.01Z"/>
    <circle className="st1" cx="815.34" cy="1040.49" r="17.43"/>
    <path className="st3" d="M815.34,1059.94c-10.72,0-19.45-8.72-19.45-19.45s8.72-19.45,19.45-19.45,19.45,8.72,19.45,19.45-8.72,19.45-19.45,19.45ZM815.34,1025.07c-8.5,0-15.42,6.92-15.42,15.42s6.92,15.42,15.42,15.42,15.42-6.92,15.42-15.42-6.92-15.42-15.42-15.42Z"/>
    <path className="st2" d="M1032.12,1040.49c0,16.91-11.83,35.81-22.55,48.04-2.36,2.69-6.56,2.69-8.92,0-10.72-12.22-22.55-31.13-22.55-48.04,0-14.92,12.09-27.01,27.01-27.01s27.01,12.09,27.01,27.01Z"/>
    <circle className="st1" cx="1005.11" cy="1040.49" r="17.43"/>
    <path className="st3" d="M1005.11,1059.94c-10.72,0-19.45-8.72-19.45-19.45s8.72-19.45,19.45-19.45,19.45,8.72,19.45,19.45-8.72,19.45-19.45,19.45ZM1005.11,1025.07c-8.5,0-15.42,6.92-15.42,15.42s6.92,15.42,15.42,15.42,15.42-6.92,15.42-15.42-6.92-15.42-15.42-15.42Z"/>
    <path className="st2" d="M1221.9,1040.49c0,16.91-11.83,35.81-22.55,48.04-2.36,2.69-6.56,2.69-8.92,0-10.72-12.22-22.55-31.13-22.55-48.04,0-14.92,12.09-27.01,27.01-27.01s27.01,12.09,27.01,27.01Z"/>
    <circle className="st1" cx="1194.89" cy="1040.49" r="17.43"/>
    <path className="st3" d="M1194.89,1059.94c-10.72,0-19.45-8.72-19.45-19.45s8.72-19.45,19.45-19.45,19.45,8.72,19.45,19.45-8.72,19.45-19.45,19.45ZM1194.89,1025.07c-8.5,0-15.42,6.92-15.42,15.42s6.92,15.42,15.42,15.42,15.42-6.92,15.42-15.42-6.92-15.42-15.42-15.42Z"/>
    <path className="st2" d="M1411.67,1040.49c0,16.91-11.83,35.81-22.55,48.04-2.36,2.69-6.56,2.69-8.92,0-10.72-12.22-22.55-31.13-22.55-48.04,0-14.92,12.09-27.01,27.01-27.01s27.01,12.09,27.01,27.01Z"/>
    <circle className="st1" cx="1384.66" cy="1040.49" r="17.43"/>
    <path className="st3" d="M1384.66,1059.94c-10.72,0-19.45-8.72-19.45-19.45s8.72-19.45,19.45-19.45,19.45,8.72,19.45,19.45-8.72,19.45-19.45,19.45ZM1384.66,1025.07c-8.5,0-15.42,6.92-15.42,15.42s6.92,15.42,15.42,15.42,15.42-6.92,15.42-15.42-6.92-15.42-15.42-15.42Z"/>
    <path className="st2" d="M1601.45,1040.49c0,16.91-11.83,35.81-22.55,48.04-2.36,2.69-6.56,2.69-8.92,0-10.72-12.22-22.55-31.13-22.55-48.04,0-14.92,12.09-27.01,27.01-27.01s27.01,12.09,27.01,27.01Z"/>
    <circle className="st1" cx="1574.44" cy="1040.49" r="17.43"/>
    <path className="st3" d="M1574.44,1059.94c-10.72,0-19.45-8.72-19.45-19.45s8.72-19.45,19.45-19.45,19.45,8.72,19.45,19.45-8.72,19.45-19.45,19.45ZM1574.44,1025.07c-8.5,0-15.42,6.92-15.42,15.42s6.92,15.42,15.42,15.42,15.42-6.92,15.42-15.42-6.92-15.42-15.42-15.42Z"/>
    <path className="st2" d="M1791.22,1040.49c0,16.91-11.83,35.81-22.55,48.04-2.36,2.69-6.56,2.69-8.92,0-10.72-12.22-22.55-31.13-22.55-48.04,0-14.92,12.09-27.01,27.01-27.01s27.01,12.09,27.01,27.01Z"/>
    <circle className="st1" cx="1764.21" cy="1040.49" r="17.43"/>
    <path className="st3" d="M1764.21,1059.94c-10.72,0-19.45-8.72-19.45-19.45s8.72-19.45,19.45-19.45,19.45,8.72,19.45,19.45-8.72,19.45-19.45,19.45ZM1764.21,1025.07c-8.5,0-15.42,6.92-15.42,15.42s6.92,15.42,15.42,15.42,15.42-6.92,15.42-15.42-6.92-15.42-15.42-15.42Z"/>
    <path className="st2" d="M1981,1040.49c0,16.91-11.83,35.81-22.55,48.04-2.36,2.69-6.56,2.69-8.92,0-10.72-12.22-22.55-31.13-22.55-48.04,0-14.92,12.09-27.01,27.01-27.01s27.01,12.09,27.01,27.01Z"/>
    <circle className="st1" cx="1953.99" cy="1040.49" r="17.43"/>
    <path className="st3" d="M1953.99,1059.94c-10.72,0-19.45-8.72-19.45-19.45s8.72-19.45,19.45-19.45,19.45,8.72,19.45,19.45-8.72,19.45-19.45,19.45ZM1953.99,1025.07c-8.5,0-15.42,6.92-15.42,15.42s6.92,15.42,15.42,15.42,15.42-6.92,15.42-15.42-6.92-15.42-15.42-15.42Z"/>
    <path className="st2" d="M2170.77,1040.49c0,16.91-11.83,35.81-22.55,48.04-2.36,2.69-6.56,2.69-8.92,0-10.72-12.22-22.55-31.13-22.55-48.04,0-14.92,12.09-27.01,27.01-27.01s27.01,12.09,27.01,27.01Z"/>
    <circle className="st1" cx="2143.76" cy="1040.49" r="17.43"/>
    <path className="st3" d="M2143.76,1059.94c-10.72,0-19.45-8.72-19.45-19.45s8.72-19.45,19.45-19.45,19.45,8.72,19.45,19.45-8.72,19.45-19.45,19.45ZM2143.76,1025.07c-8.5,0-15.42,6.92-15.42,15.42s6.92,15.42,15.42,15.42,15.42-6.92,15.42-15.42-6.92-15.42-15.42-15.42Z"/>
    <path className="st2" d="M178.13,1207.79c0,16.91-11.83,35.81-22.55,48.04-2.36,2.69-6.56,2.69-8.92,0-10.72-12.22-22.55-31.13-22.55-48.04,0-14.92,12.09-27.01,27.01-27.01s27.01,12.09,27.01,27.01Z"/>
    <circle className="st1" cx="151.12" cy="1207.79" r="17.43"/>
    <path className="st3" d="M151.12,1227.24c-10.72,0-19.45-8.72-19.45-19.45s8.72-19.45,19.45-19.45,19.45,8.72,19.45,19.45-8.72,19.45-19.45,19.45ZM151.12,1192.38c-8.5,0-15.42,6.92-15.42,15.42s6.92,15.42,15.42,15.42,15.42-6.92,15.42-15.42-6.92-15.42-15.42-15.42Z"/>
    <path className="st2" d="M367.91,1207.79c0,16.91-11.83,35.81-22.55,48.04-2.36,2.69-6.56,2.69-8.92,0-10.72-12.22-22.55-31.13-22.55-48.04,0-14.92,12.09-27.01,27.01-27.01s27.01,12.09,27.01,27.01Z"/>
    <circle className="st1" cx="340.9" cy="1207.79" r="17.43"/>
    <path className="st3" d="M340.9,1227.24c-10.72,0-19.45-8.72-19.45-19.45s8.72-19.45,19.45-19.45,19.45,8.72,19.45,19.45-8.72,19.45-19.45,19.45ZM340.9,1192.38c-8.5,0-15.42,6.92-15.42,15.42s6.92,15.42,15.42,15.42,15.42-6.92,15.42-15.42-6.92-15.42-15.42-15.42Z"/>
    <path className="st2" d="M557.68,1207.79c0,16.91-11.83,35.81-22.55,48.04-2.36,2.69-6.56,2.69-8.92,0-10.72-12.22-22.55-31.13-22.55-48.04,0-14.92,12.09-27.01,27.01-27.01s27.01,12.09,27.01,27.01Z"/>
    <circle className="st1" cx="530.67" cy="1207.79" r="17.43"/>
    <path className="st3" d="M530.67,1227.24c-10.72,0-19.45-8.72-19.45-19.45s8.72-19.45,19.45-19.45,19.45,8.72,19.45,19.45-8.72,19.45-19.45,19.45ZM530.67,1192.38c-8.5,0-15.42,6.92-15.42,15.42s6.92,15.42,15.42,15.42,15.42-6.92,15.42-15.42-6.92-15.42-15.42-15.42Z"/>
    <path className="st2" d="M747.46,1207.79c0,16.91-11.83,35.81-22.55,48.04-2.36,2.69-6.56,2.69-8.92,0-10.72-12.22-22.55-31.13-22.55-48.04,0-14.92,12.09-27.01,27.01-27.01s27.01,12.09,27.01,27.01Z"/>
    <circle className="st1" cx="720.45" cy="1207.79" r="17.43"/>
    <path className="st3" d="M720.45,1227.24c-10.72,0-19.45-8.72-19.45-19.45s8.72-19.45,19.45-19.45,19.45,8.72,19.45,19.45-8.72,19.45-19.45,19.45ZM720.45,1192.38c-8.5,0-15.42,6.92-15.42,15.42s6.92,15.42,15.42,15.42,15.42-6.92,15.42-15.42-6.92-15.42-15.42-15.42Z"/>
    <path className="st2" d="M937.23,1207.79c0,16.91-11.83,35.81-22.55,48.04-2.36,2.69-6.56,2.69-8.92,0-10.72-12.22-22.55-31.13-22.55-48.04,0-14.92,12.09-27.01,27.01-27.01s27.01,12.09,27.01,27.01Z"/>
    <circle className="st1" cx="910.22" cy="1207.79" r="17.43"/>
    <path className="st3" d="M910.22,1227.24c-10.72,0-19.45-8.72-19.45-19.45s8.72-19.45,19.45-19.45,19.45,8.72,19.45,19.45-8.72,19.45-19.45,19.45ZM910.22,1192.38c-8.5,0-15.42,6.92-15.42,15.42s6.92,15.42,15.42,15.42,15.42-6.92,15.42-15.42-6.92-15.42-15.42-15.42Z"/>
    <path className="st2" d="M1127.01,1207.79c0,16.91-11.83,35.81-22.55,48.04-2.36,2.69-6.56,2.69-8.92,0-10.72-12.22-22.55-31.13-22.55-48.04,0-14.92,12.09-27.01,27.01-27.01s27.01,12.09,27.01,27.01Z"/>
    <circle className="st1" cx="1100" cy="1207.79" r="17.43"/>
    <path className="st3" d="M1100,1227.24c-10.72,0-19.45-8.72-19.45-19.45s8.72-19.45,19.45-19.45,19.45,8.72,19.45,19.45-8.72,19.45-19.45,19.45ZM1100,1192.38c-8.5,0-15.42,6.92-15.42,15.42s6.92,15.42,15.42,15.42,15.42-6.92,15.42-15.42-6.92-15.42-15.42-15.42Z"/>
    <path className="st2" d="M1316.78,1207.79c0,16.91-11.83,35.81-22.55,48.04-2.36,2.69-6.56,2.69-8.92,0-10.72-12.22-22.55-31.13-22.55-48.04,0-14.92,12.09-27.01,27.01-27.01s27.01,12.09,27.01,27.01Z"/>
    <circle className="st1" cx="1289.78" cy="1207.79" r="17.43"/>
    <path className="st3" d="M1289.78,1227.24c-10.72,0-19.45-8.72-19.45-19.45s8.72-19.45,19.45-19.45,19.45,8.72,19.45,19.45-8.72,19.45-19.45,19.45ZM1289.78,1192.38c-8.5,0-15.42,6.92-15.42,15.42s6.92,15.42,15.42,15.42,15.42-6.92,15.42-15.42-6.92-15.42-15.42-15.42Z"/>
    <path className="st2" d="M1506.56,1207.79c0,16.91-11.83,35.81-22.55,48.04-2.36,2.69-6.56,2.69-8.92,0-10.72-12.22-22.55-31.13-22.55-48.04,0-14.92,12.09-27.01,27.01-27.01s27.01,12.09,27.01,27.01Z"/>
    <circle className="st1" cx="1479.55" cy="1207.79" r="17.43"/>
    <path className="st3" d="M1479.55,1227.24c-10.72,0-19.45-8.72-19.45-19.45s8.72-19.45,19.45-19.45,19.45,8.72,19.45,19.45-8.72,19.45-19.45,19.45ZM1479.55,1192.38c-8.5,0-15.42,6.92-15.42,15.42s6.92,15.42,15.42,15.42,15.42-6.92,15.42-15.42-6.92-15.42-15.42-15.42Z"/>
    <path className="st2" d="M1696.33,1207.79c0,16.91-11.83,35.81-22.55,48.04-2.36,2.69-6.56,2.69-8.92,0-10.72-12.22-22.55-31.13-22.55-48.04,0-14.92,12.09-27.01,27.01-27.01s27.01,12.09,27.01,27.01Z"/>
    <circle className="st1" cx="1669.33" cy="1207.79" r="17.43"/>
    <path className="st3" d="M1669.33,1227.24c-10.72,0-19.45-8.72-19.45-19.45s8.72-19.45,19.45-19.45,19.45,8.72,19.45,19.45-8.72,19.45-19.45,19.45ZM1669.33,1192.38c-8.5,0-15.42,6.92-15.42,15.42s6.92,15.42,15.42,15.42,15.42-6.92,15.42-15.42-6.92-15.42-15.42-15.42Z"/>
    <path className="st2" d="M1886.11,1207.79c0,16.91-11.83,35.81-22.55,48.04-2.36,2.69-6.56,2.69-8.92,0-10.72-12.22-22.55-31.13-22.55-48.04,0-14.92,12.09-27.01,27.01-27.01s27.01,12.09,27.01,27.01Z"/>
    <circle className="st1" cx="1859.1" cy="1207.79" r="17.43"/>
    <path className="st3" d="M1859.1,1227.24c-10.72,0-19.45-8.72-19.45-19.45s8.72-19.45,19.45-19.45,19.45,8.72,19.45,19.45-8.72,19.45-19.45,19.45ZM1859.1,1192.38c-8.5,0-15.42,6.92-15.42,15.42s6.92,15.42,15.42,15.42,15.42-6.92,15.42-15.42-6.92-15.42-15.42-15.42Z"/>
    <path className="st2" d="M2075.88,1207.79c0,16.91-11.83,35.81-22.55,48.04-2.36,2.69-6.56,2.69-8.92,0-10.72-12.22-22.55-31.13-22.55-48.04,0-14.92,12.09-27.01,27.01-27.01s27.01,12.09,27.01,27.01Z"/>
    <circle className="st1" cx="2048.88" cy="1207.79" r="17.43"/>
    <path className="st3" d="M2048.88,1227.24c-10.72,0-19.45-8.72-19.45-19.45s8.72-19.45,19.45-19.45,19.45,8.72,19.45,19.45-8.72,19.45-19.45,19.45ZM2048.88,1192.38c-8.5,0-15.42,6.92-15.42,15.42s6.92,15.42,15.42,15.42,15.42-6.92,15.42-15.42-6.92-15.42-15.42-15.42Z"/>
    <path className="st2" d="M83.24,1375.1c0,16.91-11.83,35.81-22.55,48.04-2.36,2.69-6.56,2.69-8.92,0-10.72-12.22-22.55-31.13-22.55-48.04,0-14.92,12.09-27.01,27.01-27.01s27.01,12.09,27.01,27.01Z"/>
    <circle className="st1" cx="56.24" cy="1375.1" r="17.43"/>
    <path className="st3" d="M56.24,1394.54c-10.72,0-19.45-8.72-19.45-19.45s8.72-19.45,19.45-19.45,19.45,8.72,19.45,19.45-8.72,19.45-19.45,19.45ZM56.24,1359.68c-8.5,0-15.42,6.92-15.42,15.42s6.92,15.42,15.42,15.42,15.42-6.92,15.42-15.42-6.92-15.42-15.42-15.42Z"/>
    <path className="st2" d="M273.02,1375.1c0,16.91-11.83,35.81-22.55,48.04-2.36,2.69-6.56,2.69-8.92,0-10.72-12.22-22.55-31.13-22.55-48.04,0-14.92,12.09-27.01,27.01-27.01s27.01,12.09,27.01,27.01Z"/>
    <circle className="st1" cx="246.01" cy="1375.1" r="17.43"/>
    <path className="st3" d="M246.01,1394.54c-10.72,0-19.45-8.72-19.45-19.45s8.72-19.45,19.45-19.45,19.45,8.72,19.45,19.45-8.72,19.45-19.45,19.45ZM246.01,1359.68c-8.5,0-15.42,6.92-15.42,15.42s6.92,15.42,15.42,15.42,15.42-6.92,15.42-15.42-6.92-15.42-15.42-15.42Z"/>
    <path className="st2" d="M462.79,1375.1c0,16.91-11.83,35.81-22.55,48.04-2.36,2.69-6.56,2.69-8.92,0-10.72-12.22-22.55-31.13-22.55-48.04,0-14.92,12.09-27.01,27.01-27.01s27.01,12.09,27.01,27.01Z"/>
    <circle className="st1" cx="435.79" cy="1375.1" r="17.43"/>
    <path className="st3" d="M435.79,1394.54c-10.72,0-19.45-8.72-19.45-19.45s8.72-19.45,19.45-19.45,19.45,8.72,19.45,19.45-8.72,19.45-19.45,19.45ZM435.79,1359.68c-8.5,0-15.42,6.92-15.42,15.42s6.92,15.42,15.42,15.42,15.42-6.92,15.42-15.42-6.92-15.42-15.42-15.42Z"/>
    <path className="st2" d="M652.57,1375.1c0,16.91-11.83,35.81-22.55,48.04-2.36,2.69-6.56,2.69-8.92,0-10.72-12.22-22.55-31.13-22.55-48.04,0-14.92,12.09-27.01,27.01-27.01s27.01,12.09,27.01,27.01Z"/>
    <circle className="st1" cx="625.56" cy="1375.1" r="17.43"/>
    <path className="st3" d="M625.56,1394.54c-10.72,0-19.45-8.72-19.45-19.45s8.72-19.45,19.45-19.45,19.45,8.72,19.45,19.45-8.72,19.45-19.45,19.45ZM625.56,1359.68c-8.5,0-15.42,6.92-15.42,15.42s6.92,15.42,15.42,15.42,15.42-6.92,15.42-15.42-6.92-15.42-15.42-15.42Z"/>
    <path className="st2" d="M842.34,1375.1c0,16.91-11.83,35.81-22.55,48.04-2.36,2.69-6.56,2.69-8.92,0-10.72-12.22-22.55-31.13-22.55-48.04,0-14.92,12.09-27.01,27.01-27.01s27.01,12.09,27.01,27.01Z"/>
    <circle className="st1" cx="815.34" cy="1375.1" r="17.43"/>
    <path className="st3" d="M815.34,1394.54c-10.72,0-19.45-8.72-19.45-19.45s8.72-19.45,19.45-19.45,19.45,8.72,19.45,19.45-8.72,19.45-19.45,19.45ZM815.34,1359.68c-8.5,0-15.42,6.92-15.42,15.42s6.92,15.42,15.42,15.42,15.42-6.92,15.42-15.42-6.92-15.42-15.42-15.42Z"/>
    <path className="st2" d="M1032.12,1375.1c0,16.91-11.83,35.81-22.55,48.04-2.36,2.69-6.56,2.69-8.92,0-10.72-12.22-22.55-31.13-22.55-48.04,0-14.92,12.09-27.01,27.01-27.01s27.01,12.09,27.01,27.01Z"/>
    <circle className="st1" cx="1005.11" cy="1375.1" r="17.43"/>
    <path className="st3" d="M1005.11,1394.54c-10.72,0-19.45-8.72-19.45-19.45s8.72-19.45,19.45-19.45,19.45,8.72,19.45,19.45-8.72,19.45-19.45,19.45ZM1005.11,1359.68c-8.5,0-15.42,6.92-15.42,15.42s6.92,15.42,15.42,15.42,15.42-6.92,15.42-15.42-6.92-15.42-15.42-15.42Z"/>
    <path className="st2" d="M1221.9,1375.1c0,16.91-11.83,35.81-22.55,48.04-2.36,2.69-6.56,2.69-8.92,0-10.72-12.22-22.55-31.13-22.55-48.04,0-14.92,12.09-27.01,27.01-27.01s27.01,12.09,27.01,27.01Z"/>
    <circle className="st1" cx="1194.89" cy="1375.1" r="17.43"/>
    <path className="st3" d="M1194.89,1394.54c-10.72,0-19.45-8.72-19.45-19.45s8.72-19.45,19.45-19.45,19.45,8.72,19.45,19.45-8.72,19.45-19.45,19.45ZM1194.89,1359.68c-8.5,0-15.42,6.92-15.42,15.42s6.92,15.42,15.42,15.42,15.42-6.92,15.42-15.42-6.92-15.42-15.42-15.42Z"/>
    <path className="st2" d="M1411.67,1375.1c0,16.91-11.83,35.81-22.55,48.04-2.36,2.69-6.56,2.69-8.92,0-10.72-12.22-22.55-31.13-22.55-48.04,0-14.92,12.09-27.01,27.01-27.01s27.01,12.09,27.01,27.01Z"/>
    <circle className="st1" cx="1384.66" cy="1375.1" r="17.43"/>
    <path className="st3" d="M1384.66,1394.54c-10.72,0-19.45-8.72-19.45-19.45s8.72-19.45,19.45-19.45,19.45,8.72,19.45,19.45-8.72,19.45-19.45,19.45ZM1384.66,1359.68c-8.5,0-15.42,6.92-15.42,15.42s6.92,15.42,15.42,15.42,15.42-6.92,15.42-15.42-6.92-15.42-15.42-15.42Z"/>
    <path className="st2" d="M1601.45,1375.1c0,16.91-11.83,35.81-22.55,48.04-2.36,2.69-6.56,2.69-8.92,0-10.72-12.22-22.55-31.13-22.55-48.04,0-14.92,12.09-27.01,27.01-27.01s27.01,12.09,27.01,27.01Z"/>
    <circle className="st1" cx="1574.44" cy="1375.1" r="17.43"/>
    <path className="st3" d="M1574.44,1394.54c-10.72,0-19.45-8.72-19.45-19.45s8.72-19.45,19.45-19.45,19.45,8.72,19.45,19.45-8.72,19.45-19.45,19.45ZM1574.44,1359.68c-8.5,0-15.42,6.92-15.42,15.42s6.92,15.42,15.42,15.42,15.42-6.92,15.42-15.42-6.92-15.42-15.42-15.42Z"/>
    <path className="st2" d="M1791.22,1375.1c0,16.91-11.83,35.81-22.55,48.04-2.36,2.69-6.56,2.69-8.92,0-10.72-12.22-22.55-31.13-22.55-48.04,0-14.92,12.09-27.01,27.01-27.01s27.01,12.09,27.01,27.01Z"/>
    <circle className="st1" cx="1764.21" cy="1375.1" r="17.43"/>
    <path className="st3" d="M1764.21,1394.54c-10.72,0-19.45-8.72-19.45-19.45s8.72-19.45,19.45-19.45,19.45,8.72,19.45,19.45-8.72,19.45-19.45,19.45ZM1764.21,1359.68c-8.5,0-15.42,6.92-15.42,15.42s6.92,15.42,15.42,15.42,15.42-6.92,15.42-15.42-6.92-15.42-15.42-15.42Z"/>
    <path className="st2" d="M1981,1375.1c0,16.91-11.83,35.81-22.55,48.04-2.36,2.69-6.56,2.69-8.92,0-10.72-12.22-22.55-31.13-22.55-48.04,0-14.92,12.09-27.01,27.01-27.01s27.01,12.09,27.01,27.01Z"/>
    <circle className="st1" cx="1953.99" cy="1375.1" r="17.43"/>
    <path className="st3" d="M1953.99,1394.54c-10.72,0-19.45-8.72-19.45-19.45s8.72-19.45,19.45-19.45,19.45,8.72,19.45,19.45-8.72,19.45-19.45,19.45ZM1953.99,1359.68c-8.5,0-15.42,6.92-15.42,15.42s6.92,15.42,15.42,15.42,15.42-6.92,15.42-15.42-6.92-15.42-15.42-15.42Z"/>
    <path className="st2" d="M2170.77,1375.1c0,16.91-11.83,35.81-22.55,48.04-2.36,2.69-6.56,2.69-8.92,0-10.72-12.22-22.55-31.13-22.55-48.04,0-14.92,12.09-27.01,27.01-27.01s27.01,12.09,27.01,27.01Z"/>
    <circle className="st1" cx="2143.76" cy="1375.1" r="17.43"/>
    <path className="st3" d="M2143.76,1394.54c-10.72,0-19.45-8.72-19.45-19.45s8.72-19.45,19.45-19.45,19.45,8.72,19.45,19.45-8.72,19.45-19.45,19.45ZM2143.76,1359.68c-8.5,0-15.42,6.92-15.42,15.42s6.92,15.42,15.42,15.42,15.42-6.92,15.42-15.42-6.92-15.42-15.42-15.42Z"/>
  </g>
</svg>