<svg xmlns="http://www.w3.org/2000/svg" width="16" height="16" viewBox="0 0 16 16" version="1.1">
  <path d="M4.91016 1.1024639999999999C4.720416 1.163168 4.1608 1.510608 3.8440160000000003 1.764384C3.2338400000000003 2.253232 2.716384 2.8359360000000002 2.199776 3.616C1.953568 3.9877759999999998 1.814416 4.226752 1.60816 4.632C1.385696 5.069136 1.3568959999999999 5.144992 1.274032 5.512304C0.80608 7.586544 0.73016 9.883136 1.048688 12.328C1.0796320000000001 12.5656 1.119952 12.821200000000001 1.138272 12.896C1.315728 13.620608 1.8899839999999999 14.18048 2.651424 14.371232000000001C2.778448 14.403056000000001 2.833632 14.406528 3.224 14.407232L3.656 14.408 3.741696 14.362879999999999C4.142272 14.15192 4.165616 13.608272000000001 3.7846080000000004 13.363968000000002C3.681024 13.297552 3.583328 13.2804 3.307328 13.280192C2.892528 13.279872 2.688144 13.214896000000001 2.48304 13.018111999999999C2.290432 12.833328 2.258272 12.743872 2.185008 12.18936C2.052 11.1824 2.008528 10.499728 2.008464 9.416C2.008384 8.471632 2.040912 7.928464 2.145008 7.136C2.19352 6.766576000000001 2.3093760000000003 6.091328000000001 2.34608 5.964C2.3537600000000003 5.9374080000000005 2.636752 5.936 8 5.936C13.363248 5.936 13.64624 5.9374080000000005 13.653920000000001 5.964C13.690624 6.091328000000001 13.80648 6.766576000000001 13.854992000000001 7.136C13.957936 7.919776 13.991472 8.481648 13.991536 9.424C13.991616 10.491584000000001 13.946208 11.201248 13.81472 12.187232C13.740416 12.7444 13.70792 12.835168 13.517616 13.017184C13.399712 13.129952 13.313008 13.183536 13.168000000000001 13.233232000000001C13.078256 13.264000000000001 13.016864 13.270288 12.72 13.279104C12.389008 13.288928 12.372368 13.290992000000001 12.280000000000001 13.333472C12.037888 13.444816000000001 11.906704 13.690624 11.951647999999999 13.948672C11.97496 14.082608 12.01712 14.163632 12.110864 14.254688C12.277616 14.416656000000001 12.442272 14.44992 12.926288000000001 14.419343999999999C13.404768 14.389136 13.676992 14.305552 14.008000000000001 14.087168C14.479088 13.776368000000002 14.782464000000001 13.323440000000002 14.88624 12.776C14.920432000000002 12.59568 15.001280000000001 11.957840000000001 15.0404 11.56C15.172144000000001 10.219792 15.1748 8.70664 15.047584 7.48C14.945712 6.497888 14.73256 5.3747039999999995 14.581504 5.024C14.409536000000001 4.624816 14.105264 4.076512 13.800111999999999 3.616C13.074432000000002 2.520816 12.307712 1.768688 11.386032 1.247824C11.038432 1.051392 11.435552 1.0718720000000002 7.994576 1.072864C5.158688000000001 1.0736800000000002 4.995232 1.075248 4.91016 1.1024639999999999M5.102064 2.2864C4.467024 2.6570720000000003 3.828272 3.276544 3.2938560000000003 4.04C3.095408 4.323488 2.832 4.741504 2.832 4.772928C2.832 4.779024000000001 3.8651999999999997 4.784 5.128 4.784L7.424 4.784 7.424 3.504L7.424 2.224 6.316 2.224288L5.208 2.22456 5.102064 2.2864M8.576 3.504L8.576 4.784 10.873712 4.784C13.009216 4.784 13.170704 4.782128 13.161216000000001 4.757408000000001C13.13464 4.688144 12.870768 4.272416000000001 12.690624 4.016C12.171856 3.277552 11.4864 2.619136 10.878048000000001 2.274896L10.788112 2.224 9.682048000000002 2.224L8.576 2.224 8.576 3.504M7.791296 8.381072C7.626224000000001 8.435824 7.249968 8.66096 6.944 8.888064C6.243184 9.408256 5.552544 10.211376 5.23608 10.874176C5.17944 10.992816000000001 5.176032 11.008688000000001 5.176640000000001 11.152000000000001C5.177424 11.333024 5.207792 11.414384 5.319008 11.533280000000001C5.494479999999999 11.72088 5.760736 11.76992 5.9911840000000005 11.657056C6.103936 11.601840000000001 6.191072 11.505248 6.288016 11.328C6.501648 10.937408 6.719488 10.65456 7.095184000000001 10.28L7.368 10.008000000000001 7.376 12.368C7.383376 14.545776 7.386112000000001 14.733264 7.41136 14.796175999999999C7.473792 14.951792 7.588464 15.071984 7.738720000000001 15.139280000000001C7.859376 15.193312 8.056912 15.189392 8.18576 15.1304C8.308064 15.0744 8.416688 14.965424 8.475200000000001 14.84L8.52 14.744 8.528 12.368L8.536 9.992 8.800928 10.256C9.181376 10.635104 9.425711999999999 10.953232 9.624 11.327632C9.668000000000001 11.41072 9.733968 11.509152 9.770592 11.546368000000001C10.073808000000001 11.854464 10.595696 11.724864 10.721648 11.310176C10.769168 11.153712 10.75672 11.043536 10.671376 10.865296C10.456336 10.416176 10.101904000000001 9.940512 9.632688 9.471312C9.163120000000001 9.001728 8.689104 8.648608000000001 8.237392 8.431856C8.068192 8.350672000000001 7.93032 8.334976000000001 7.791296 8.381072" stroke="none" fill="currentColor" fill-rule="evenodd" stroke-width="0.016"></path>
</svg>